Fira Sans-Light Italic.ufo
<glyph name="exclam" format="1">
  <advance width="234"/>
  <unicode hex="0021"/>
  <outline>
    <contour>
      <point x="109" y="188" type="line"/>
      <point x="177" y="680" type="line"/>
      <point x="175" y="680" type="line"/>
      <point x="107" y="188" type="line"/>
    </contour>
    <component base="period" xOffset="60"/>
  </outline>
</glyph>
<glyph name="numbersign" format="1">
  <advance width="479"/>
  <unicode hex="0023"/>
  <outline>
    <contour>
      <point x="457" y="662" type="line"/>
      <point x="278" y="0" type="line"/>
      <point x="280" y="0" type="line"/>
      <point x="459" y="662" type="line"/>
    </contour>
    <contour>
      <point x="10" y="216" type="line"/>
      <point x="8" y="214" type="line"/>
      <point x="420" y="214" type="line"/>
      <point x="422" y="216" type="line"/>
    </contour>
    <contour>
      <point x="223" y="662" type="line"/>
      <point x="44" y="0" type="line"/>
      <point x="46" y="0" type="line"/>
      <point x="225" y="662" type="line"/>
    </contour>
    <contour>
      <point x="81" y="468" type="line"/>
      <point x="81" y="466" type="line"/>
      <point x="493" y="466" type="line"/>
      <point x="493" y="468" type="line"/>
    </contour>
  </outline>
</glyph>
<glyph name="dollar" format="1">
  <advance width="529"/>
  <unicode hex="0024"/>
  <outline>
    <contour>
      <point x="217" y="-8" type="line"/>
      <point x="198" y="-144" type="line"/>
      <point x="200" y="-144" type="line"/>
      <point x="219" y="-8" type="line"/>
    </contour>
    <contour>
      <point x="335" y="805" type="line"/>
      <point x="316" y="669" type="line"/>
      <point x="318" y="669" type="line"/>
      <point x="337" y="805" type="line"/>
    </contour>
    <contour>
      <point x="173" y="669"/>
      <point x="122" y="583"/>
      <point x="122" y="504" type="curve" smooth="yes"/>
      <point x="122" y="435"/>
      <point x="165" y="395"/>
      <point x="278" y="357" type="curve" smooth="yes"/>
      <point x="382" y="321"/>
      <point x="436" y="270"/>
      <point x="436" y="188" type="curve" smooth="yes"/>
      <point x="436" y="94"/>
      <point x="381" y="-7"/>
      <point x="217" y="-7" type="curve" smooth="yes"/>
      <point x="141" y="-7"/>
      <point x="81" y="23"/>
      <point x="39" y="69" type="curve"/>
      <point x="38" y="67" type="line"/>
      <point x="80" y="21"/>
      <point x="141" y="-9"/>
      <point x="217" y="-9" type="curve" smooth="yes"/>
      <point x="382" y="-9"/>
      <point x="438" y="93"/>
      <point x="438" y="188" type="curve" smooth="yes"/>
      <point x="438" y="271"/>
      <point x="384" y="323"/>
      <point x="279" y="359" type="curve" smooth="yes"/>
      <point x="165" y="397"/>
      <point x="124" y="437"/>
      <point x="124" y="504" type="curve" smooth="yes"/>
      <point x="124" y="582"/>
      <point x="173" y="667"/>
      <point x="313" y="667" type="curve" smooth="yes"/>
      <point x="387" y="667"/>
      <point x="430" y="642"/>
      <point x="471" y="605" type="curve"/>
      <point x="473" y="607" type="line"/>
      <point x="431" y="643"/>
      <point x="389" y="669"/>
      <point x="313" y="669" type="curve" smooth="yes"/>
    </contour>
  </outline>
</glyph>
<glyph name="percent" format="1">
  <advance width="745"/>
  <unicode hex="0025"/>
  <outline>
    <contour>
      <point x="108" y="-9" type="line"/>
      <point x="110" y="-9" type="line"/>
      <point x="663" y="690" type="line"/>
      <point x="661" y="690" type="line"/>
    </contour>
    <contour>
      <point x="316" y="668"/>
      <point x="354" y="628"/>
      <point x="354" y="554" type="curve" smooth="yes"/>
      <point x="354" y="483"/>
      <point x="320" y="368"/>
      <point x="209" y="368" type="curve" smooth="yes"/>
      <point x="142" y="368"/>
      <point x="106" y="413"/>
      <point x="106" y="485" type="curve" smooth="yes"/>
      <point x="106" y="555"/>
      <point x="139" y="668"/>
      <point x="251" y="668" type="curve" smooth="yes"/>
    </contour>
    <contour>
      <point x="139" y="670"/>
      <point x="104" y="557"/>
      <point x="104" y="485" type="curve" smooth="yes"/>
      <point x="104" y="412"/>
      <point x="141" y="366"/>
      <point x="209" y="366" type="curve" smooth="yes"/>
      <point x="321" y="366"/>
      <point x="356" y="482"/>
      <point x="356" y="554" type="curve" smooth="yes"/>
      <point x="356" y="628"/>
      <point x="318" y="670"/>
      <point x="251" y="670" type="curve" smooth="yes"/>
    </contour>
    <contour>
      <point x="621" y="293"/>
      <point x="659" y="253"/>
      <point x="659" y="179" type="curve" smooth="yes"/>
      <point x="659" y="108"/>
      <point x="625" y="-7"/>
      <point x="514" y="-7" type="curve" smooth="yes"/>
      <point x="447" y="-7"/>
      <point x="411" y="38"/>
      <point x="411" y="110" type="curve" smooth="yes"/>
      <point x="411" y="180"/>
      <point x="444" y="293"/>
      <point x="556" y="293" type="curve" smooth="yes"/>
    </contour>
    <contour>
      <point x="444" y="295"/>
      <point x="409" y="182"/>
      <point x="409" y="110" type="curve" smooth="yes"/>
      <point x="409" y="37"/>
      <point x="446" y="-9"/>
      <point x="514" y="-9" type="curve" smooth="yes"/>
      <point x="626" y="-9"/>
      <point x="661" y="107"/>
      <point x="661" y="179" type="curve" smooth="yes"/>
      <point x="661" y="253"/>
      <point x="623" y="295"/>
      <point x="556" y="295" type="curve" smooth="yes"/>
    </contour>
  </outline>
</glyph>
<glyph name="ampersand" format="1">
  <advance width="734"/>
  <unicode hex="0026"/>
  <outline>
    <contour>
      <point x="247" y="691"/>
      <point x="201" y="604"/>
      <point x="201" y="532" type="curve" smooth="yes"/>
      <point x="201" y="476"/>
      <point x="226" y="424"/>
      <point x="285" y="361" type="curve"/>
      <point x="144" y="292"/>
      <point x="112" y="221"/>
      <point x="112" y="145" type="curve" smooth="yes"/>
      <point x="112" y="61"/>
      <point x="176" y="-9"/>
      <point x="279" y="-9" type="curve" smooth="yes"/>
      <point x="379" y="-9"/>
      <point x="451" y="34"/>
      <point x="512" y="114" type="curve"/>
      <point x="616" y="-1" type="line"/>
      <point x="618" y="0" type="line"/>
      <point x="513" y="115" type="line"/>
      <point x="565" y="184"/>
      <point x="589" y="254"/>
      <point x="614" y="334" type="curve"/>
      <point x="612" y="334" type="line"/>
      <point x="588" y="257"/>
      <point x="565" y="186"/>
      <point x="512" y="116" type="curve"/>
      <point x="289" y="361" type="line"/>
      <point x="440" y="440"/>
      <point x="487" y="487"/>
      <point x="487" y="573" type="curve" smooth="yes"/>
      <point x="487" y="642"/>
      <point x="430" y="691"/>
      <point x="356" y="691" type="curve" smooth="yes"/>
    </contour>
    <contour>
      <point x="511" y="115" type="line"/>
      <point x="449" y="35"/>
      <point x="379" y="-7"/>
      <point x="279" y="-7" type="curve" smooth="yes"/>
      <point x="177" y="-7"/>
      <point x="114" y="62"/>
      <point x="114" y="145" type="curve" smooth="yes"/>
      <point x="114" y="216"/>
      <point x="141" y="288"/>
      <point x="287" y="360" type="curve"/>
    </contour>
    <contour>
      <point x="429" y="689"/>
      <point x="485" y="641"/>
      <point x="485" y="573" type="curve" smooth="yes"/>
      <point x="485" y="492"/>
      <point x="445" y="444"/>
      <point x="287" y="362" type="curve"/>
      <point x="227" y="426"/>
      <point x="203" y="477"/>
      <point x="203" y="532" type="curve" smooth="yes"/>
      <point x="203" y="603"/>
      <point x="248" y="689"/>
      <point x="356" y="689" type="curve" smooth="yes"/>
    </contour>
  </outline>
</glyph>
<glyph name="quotesingle" format="1">
  <advance width="182"/>
  <unicode hex="0027"/>
  <outline>
    <contour>
      <point x="119" y="446" type="line"/>
      <point x="151" y="680" type="line"/>
      <point x="149" y="680" type="line"/>
      <point x="117" y="446" type="line"/>
    </contour>
  </outline>
</glyph>
<glyph name="parenleft" format="1">
  <advance width="329"/>
  <unicode hex="0028"/>
  <outline>
    <contour>
      <point x="218" y="693"/>
      <point x="124" y="577"/>
      <point x="93" y="350" type="curve"/>
      <point x="61" y="123"/>
      <point x="122" y="7"/>
      <point x="194" y="-125" type="curve"/>
      <point x="196" y="-124" type="line"/>
      <point x="125" y="7"/>
      <point x="63" y="123"/>
      <point x="95" y="350" type="curve"/>
      <point x="126" y="577"/>
      <point x="221" y="693"/>
      <point x="328" y="824" type="curve"/>
      <point x="327" y="825" type="line"/>
    </contour>
  </outline>
</glyph>
<glyph name="parenright" format="1">
  <advance width="327"/>
  <unicode hex="0029"/>
  <outline>
    <contour>
      <point x="158" y="824" type="line"/>
      <point x="229" y="693"/>
      <point x="289" y="577"/>
      <point x="258" y="350" type="curve"/>
      <point x="226" y="123"/>
      <point x="132" y="7"/>
      <point x="25" y="-124" type="curve"/>
      <point x="27" y="-125" type="line"/>
      <point x="135" y="7"/>
      <point x="228" y="123"/>
      <point x="260" y="350" type="curve"/>
      <point x="291" y="577"/>
      <point x="231" y="693"/>
      <point x="160" y="825" type="curve"/>
    </contour>
  </outline>
</glyph>
<glyph name="plus" format="1">
  <advance width="478"/>
  <unicode hex="002B"/>
  <outline>
    <contour>
      <point x="270" y="488" type="line"/>
      <point x="249" y="332" type="line"/>
      <point x="96" y="332" type="line"/>
      <point x="95" y="330" type="line"/>
      <point x="248" y="330" type="line"/>
      <point x="226" y="174" type="line"/>
      <point x="228" y="174" type="line"/>
      <point x="250" y="330" type="line"/>
      <point x="403" y="330" type="line"/>
      <point x="404" y="332" type="line"/>
      <point x="251" y="332" type="line"/>
      <point x="272" y="488" type="line"/>
    </contour>
  </outline>
</glyph>
<glyph name="comma" format="1">
  <advance width="120"/>
  <unicode hex="002C"/>
  <outline>
    <contour>
      <point x="19" y="10"/>
      <point x="16" y="7"/>
      <point x="16" y="3" type="curve" smooth="yes"/>
      <point x="16" y="0"/>
      <point x="18" y="-3"/>
      <point x="22" y="-4" type="curve"/>
      <point x="-26" y="-109" type="line"/>
      <point x="-23" y="-109" type="line"/>
      <point x="27" y="-6" type="line" smooth="yes"/>
      <point x="29" y="-2"/>
      <point x="30" y="0"/>
      <point x="30" y="3" type="curve" smooth="yes"/>
      <point x="30" y="7"/>
      <point x="27" y="10"/>
      <point x="23" y="10" type="curve" smooth="yes"/>
    </contour>
  </outline>
</glyph>
<glyph name="hyphen" format="1">
  <advance width="400"/>
  <unicode hex="002D"/>
  <outline>
    <contour>
      <point x="323" y="311" type="line"/>
      <point x="323" y="313" type="line"/>
      <point x="93" y="313" type="line"/>
      <point x="93" y="311" type="line"/>
    </contour>
  </outline>
</glyph>
<glyph name="period" format="1">
  <advance width="120"/>
  <unicode hex="002E"/>
  <outline>
    <contour>
      <point x="19" y="10"/>
      <point x="16" y="7"/>
      <point x="16" y="3" type="curve" smooth="yes"/>
      <point x="16" y="-1"/>
      <point x="19" y="-4"/>
      <point x="23" y="-4" type="curve" smooth="yes"/>
      <point x="27" y="-4"/>
      <point x="30" y="-1"/>
      <point x="30" y="3" type="curve"/>
      <point x="30" y="7"/>
      <point x="27" y="10"/>
      <point x="23" y="10" type="curve" smooth="yes"/>
    </contour>
  </outline>
</glyph>
<glyph name="slash" format="1">
  <advance width="520"/>
  <unicode hex="002F"/>
  <outline>
    <contour>
      <point x="94" y="-91" type="line"/>
      <point x="96" y="-92" type="line"/>
      <point x="452" y="793" type="line"/>
      <point x="450" y="794" type="line"/>
    </contour>
  </outline>
</glyph>
<glyph name="zero" format="1">
  <advance width="536"/>
  <unicode hex="0030"/>
  <outline>
    <contour>
      <point x="127" y="670"/>
      <point x="81" y="373"/>
      <point x="81" y="205" type="curve" smooth="yes"/>
      <point x="81" y="63"/>
      <point x="130" y="-9"/>
      <point x="231" y="-9" type="curve" smooth="yes"/>
      <point x="429" y="-9"/>
      <point x="476" y="289"/>
      <point x="476" y="453" type="curve" smooth="yes"/>
      <point x="476" y="597"/>
      <point x="427" y="670"/>
      <point x="325" y="670" type="curve" smooth="yes"/>
    </contour>
    <contour>
      <point x="425" y="668"/>
      <point x="474" y="597"/>
      <point x="474" y="453" type="curve" smooth="yes"/>
      <point x="474" y="423"/>
      <point x="473" y="378"/>
      <point x="465" y="323" type="curve" smooth="yes"/>
      <point x="437" y="123"/>
      <point x="361" y="-6"/>
      <point x="231" y="-7" type="curve"/>
      <point x="131" y="-7"/>
      <point x="83" y="65"/>
      <point x="83" y="205" type="curve" smooth="yes"/>
      <point x="83" y="242"/>
      <point x="85" y="284"/>
      <point x="92" y="338" type="curve" smooth="yes"/>
      <point x="119" y="542"/>
      <point x="198" y="668"/>
      <point x="325" y="668" type="curve"/>
    </contour>
  </outline>
</glyph>
<glyph name="one" format="1">
  <advance width="385"/>
  <unicode hex="0031"/>
  <outline>
    <contour>
      <point x="299" y="660" type="line"/>
      <point x="100" y="543" type="line"/>
      <point x="101" y="541" type="line"/>
      <point x="299" y="658" type="line"/>
      <point x="207" y="0" type="line"/>
      <point x="209" y="0" type="line"/>
      <point x="301" y="660" type="line"/>
    </contour>
  </outline>
</glyph>
<glyph name="two" format="1">
  <advance width="463"/>
  <unicode hex="0032"/>
  <outline>
    <contour>
      <point x="203" y="670"/>
      <point x="151" y="639"/>
      <point x="97" y="588" type="curve"/>
      <point x="99" y="587" type="line"/>
      <point x="153" y="638"/>
      <point x="204" y="668"/>
      <point x="278" y="668" type="curve" smooth="yes"/>
      <point x="367" y="668"/>
      <point x="422" y="607"/>
      <point x="422" y="528" type="curve" smooth="yes"/>
      <point x="422" y="408"/>
      <point x="365" y="348"/>
      <point x="15" y="2" type="curve"/>
      <point x="15" y="0" type="line"/>
      <point x="358" y="0" type="line"/>
      <point x="358" y="2" type="line"/>
      <point x="18" y="2" type="line"/>
      <point x="364" y="344"/>
      <point x="424" y="405"/>
      <point x="424" y="528" type="curve" smooth="yes"/>
      <point x="424" y="608"/>
      <point x="368" y="670"/>
      <point x="278" y="670" type="curve" smooth="yes"/>
    </contour>
  </outline>
</glyph>
<glyph name="three" format="1">
  <advance width="469"/>
  <unicode hex="0033"/>
  <outline>
    <contour>
      <point x="214" y="670"/>
      <point x="157" y="649"/>
      <point x="102" y="599" type="curve"/>
      <point x="104" y="598" type="line"/>
      <point x="159" y="648"/>
      <point x="216" y="668"/>
      <point x="273" y="668" type="curve" smooth="yes"/>
      <point x="361" y="668"/>
      <point x="411" y="616"/>
      <point x="411" y="539" type="curve" smooth="yes"/>
      <point x="411" y="457"/>
      <point x="355" y="354"/>
      <point x="228" y="354" type="curve" smooth="yes"/>
      <point x="191" y="354" type="line"/>
      <point x="191" y="352" type="line"/>
      <point x="225" y="352" type="line" smooth="yes"/>
      <point x="322" y="352"/>
      <point x="383" y="302"/>
      <point x="383" y="203" type="curve" smooth="yes"/>
      <point x="383" y="124"/>
      <point x="328" y="-7"/>
      <point x="175" y="-7" type="curve" smooth="yes"/>
      <point x="98" y="-7"/>
      <point x="52" y="16"/>
      <point x="10" y="73" type="curve"/>
      <point x="8" y="72" type="line"/>
      <point x="50" y="15"/>
      <point x="97" y="-9"/>
      <point x="175" y="-9" type="curve" smooth="yes"/>
      <point x="328" y="-9"/>
      <point x="385" y="121"/>
      <point x="385" y="203" type="curve" smooth="yes"/>
      <point x="385" y="300"/>
      <point x="328" y="347"/>
      <point x="244" y="353" type="curve"/>
      <point x="359" y="361"/>
      <point x="413" y="456"/>
      <point x="413" y="539" type="curve" smooth="yes"/>
      <point x="413" y="617"/>
      <point x="363" y="670"/>
      <point x="273" y="670" type="curve" smooth="yes"/>
    </contour>
  </outline>
</glyph>
<glyph name="four" format="1">
  <advance width="493"/>
  <unicode hex="0034"/>
  <outline>
    <contour>
      <point x="47" y="199" type="line"/>
      <point x="46" y="196" type="line"/>
      <point x="444" y="196" type="line"/>
      <point x="445" y="198" type="line"/>
      <point x="49" y="198" type="line"/>
      <point x="323" y="669" type="line"/>
      <point x="321" y="670" type="line"/>
    </contour>
    <contour>
      <point x="379" y="418" type="line"/>
      <point x="348" y="197" type="line"/>
      <point x="320" y="0" type="line"/>
      <point x="322" y="0" type="line"/>
      <point x="381" y="418" type="line"/>
    </contour>
  </outline>
</glyph>
<glyph name="five" format="1">
  <advance width="470"/>
  <unicode hex="0035"/>
  <outline>
    <contour>
      <point x="147" y="660" type="line"/>
      <point x="106" y="360" type="line"/>
      <point x="108" y="360" type="line"/>
      <point x="151" y="390"/>
      <point x="190" y="407"/>
      <point x="247" y="407" type="curve" smooth="yes"/>
      <point x="342" y="407"/>
      <point x="394" y="351"/>
      <point x="394" y="257" type="curve" smooth="yes"/>
      <point x="394" y="160"/>
      <point x="347" y="-7"/>
      <point x="174" y="-7" type="curve" smooth="yes"/>
      <point x="109" y="-7"/>
      <point x="55" y="20"/>
      <point x="24" y="64" type="curve"/>
      <point x="22" y="63" type="line"/>
      <point x="55" y="18"/>
      <point x="108" y="-9"/>
      <point x="174" y="-9" type="curve" smooth="yes"/>
      <point x="344" y="-9"/>
      <point x="396" y="153"/>
      <point x="396" y="257" type="curve" smooth="yes"/>
      <point x="396" y="353"/>
      <point x="343" y="409"/>
      <point x="247" y="409" type="curve" smooth="yes"/>
      <point x="189" y="409"/>
      <point x="147" y="390"/>
      <point x="108" y="362" type="curve"/>
      <point x="149" y="658" type="line"/>
      <point x="435" y="658" type="line"/>
      <point x="435" y="660" type="line"/>
    </contour>
  </outline>
</glyph>
<glyph name="seven" format="1">
  <advance width="435"/>
  <unicode hex="0037"/>
  <outline>
    <contour>
      <point x="101" y="660" type="line"/>
      <point x="101" y="658" type="line"/>
      <point x="439" y="658" type="line"/>
      <point x="62" y="-4" type="line"/>
      <point x="64" y="-5" type="line"/>
      <point x="441" y="658" type="line"/>
      <point x="441" y="660" type="line"/>
    </contour>
  </outline>
</glyph>
<glyph name="eight" format="1">
  <advance width="523"/>
  <unicode hex="0038"/>
  <outline>
    <contour>
      <point x="225" y="670"/>
      <point x="134" y="600"/>
      <point x="134" y="504" type="curve" smooth="yes"/>
      <point x="134" y="438"/>
      <point x="163" y="398"/>
      <point x="242" y="365" type="curve"/>
      <point x="244" y="364" type="line"/>
      <point x="282" y="348" type="line" smooth="yes"/>
      <point x="387" y="305"/>
      <point x="440" y="271"/>
      <point x="440" y="183" type="curve" smooth="yes"/>
      <point x="440" y="78"/>
      <point x="352" y="-7"/>
      <point x="227" y="-7" type="curve" smooth="yes"/>
      <point x="119" y="-7"/>
      <point x="58" y="49"/>
      <point x="58" y="137" type="curve" smooth="yes"/>
      <point x="58" y="218"/>
      <point x="90" y="301"/>
      <point x="244" y="364" type="curve"/>
      <point x="242" y="365" type="line"/>
      <point x="93" y="304"/>
      <point x="56" y="223"/>
      <point x="56" y="137" type="curve" smooth="yes"/>
      <point x="56" y="48"/>
      <point x="118" y="-9"/>
      <point x="227" y="-9" type="curve" smooth="yes"/>
      <point x="353" y="-9"/>
      <point x="442" y="77"/>
      <point x="442" y="183" type="curve" smooth="yes"/>
      <point x="442" y="261"/>
      <point x="402" y="299"/>
      <point x="308" y="339" type="curve"/>
      <point x="306" y="340" type="line"/>
      <point x="253" y="362" type="line" smooth="yes"/>
      <point x="173" y="395"/>
      <point x="136" y="429"/>
      <point x="136" y="504" type="curve" smooth="yes"/>
      <point x="136" y="599"/>
      <point x="226" y="668"/>
      <point x="319" y="668" type="curve" smooth="yes"/>
      <point x="399" y="668"/>
      <point x="461" y="623"/>
      <point x="461" y="538" type="curve" smooth="yes"/>
      <point x="461" y="469"/>
      <point x="437" y="403"/>
      <point x="306" y="340" type="curve"/>
      <point x="308" y="339" type="line"/>
      <point x="438" y="402"/>
      <point x="463" y="467"/>
      <point x="463" y="538" type="curve" smooth="yes"/>
      <point x="463" y="624"/>
      <point x="400" y="670"/>
      <point x="319" y="670" type="curve" smooth="yes"/>
    </contour>
  </outline>
</glyph>
<glyph name="nine" format="1">
  <advance width="499"/>
  <unicode hex="0039"/>
  <outline>
    <contour>
      <point x="443" y="393" type="line"/>
      <point x="391" y="307"/>
      <point x="317" y="263"/>
      <point x="233" y="263" type="curve" smooth="yes"/>
      <point x="149" y="263"/>
      <point x="92" y="322"/>
      <point x="92" y="422" type="curve" smooth="yes"/>
      <point x="92" y="523"/>
      <point x="152" y="668"/>
      <point x="301" y="668" type="curve" smooth="yes"/>
      <point x="406" y="668"/>
      <point x="448" y="600"/>
      <point x="448" y="483" type="curve" smooth="yes"/>
      <point x="448" y="455"/>
      <point x="446" y="424"/>
      <point x="442" y="391" type="curve"/>
      <point x="442" y="389" type="line"/>
      <point x="409" y="155"/>
      <point x="258" y="41"/>
      <point x="87" y="-9" type="curve"/>
      <point x="88" y="-11" type="line"/>
      <point x="386" y="78"/>
      <point x="450" y="300"/>
      <point x="450" y="484" type="curve" smooth="yes"/>
      <point x="450" y="601"/>
      <point x="407" y="670"/>
      <point x="301" y="670" type="curve" smooth="yes"/>
      <point x="151" y="670"/>
      <point x="90" y="524"/>
      <point x="90" y="422" type="curve" smooth="yes"/>
      <point x="90" y="321"/>
      <point x="148" y="261"/>
      <point x="233" y="261" type="curve" smooth="yes"/>
      <point x="318" y="261"/>
      <point x="390" y="304"/>
      <point x="443" y="389" type="curve"/>
    </contour>
  </outline>
</glyph>
<glyph name="greater" format="1">
  <advance width="496"/>
  <unicode hex="003E"/>
  <outline>
    <contour>
      <point x="122" y="485" type="line"/>
      <point x="415" y="333" type="line"/>
      <point x="78" y="177" type="line"/>
      <point x="79" y="175" type="line"/>
      <point x="417" y="332" type="line"/>
      <point x="417" y="334" type="line"/>
      <point x="123" y="487" type="line"/>
    </contour>
  </outline>
</glyph>
<glyph name="question" format="1">
  <advance width="448"/>
  <unicode hex="003F"/>
  <outline>
    <contour>
      <point x="226" y="690"/>
      <point x="178" y="664"/>
      <point x="123" y="612" type="curve"/>
      <point x="125" y="611" type="line"/>
      <point x="180" y="663"/>
      <point x="227" y="688"/>
      <point x="296" y="688" type="curve"/>
      <point x="374" y="688"/>
      <point x="414" y="636"/>
      <point x="414" y="581" type="curve"/>
      <point x="414" y="400"/>
      <point x="188" y="417"/>
      <point x="190" y="267" type="curve"/>
      <point x="190" y="248"/>
      <point x="194" y="228"/>
      <point x="200" y="209" type="curve"/>
      <point x="202" y="209" type="line"/>
      <point x="196" y="228"/>
      <point x="192" y="248"/>
      <point x="192" y="267" type="curve"/>
      <point x="190" y="416"/>
      <point x="416" y="399"/>
      <point x="416" y="581" type="curve"/>
      <point x="416" y="636"/>
      <point x="375" y="690"/>
      <point x="296" y="690" type="curve"/>
    </contour>
    <component base="period" xOffset="166" yOffset="-1"/>
  </outline>
</glyph>
<glyph name="at" format="1">
  <advance width="1020"/>
  <unicode hex="0040"/>
  <outline>
    <contour>
      <point x="241" y="691"/>
      <point x="99" y="383"/>
      <point x="99" y="177" type="curve" smooth="yes"/>
      <point x="99" y="-53"/>
      <point x="260" y="-192"/>
      <point x="473" y="-192" type="curve" smooth="yes"/>
      <point x="533" y="-192"/>
      <point x="605" y="-180"/>
      <point x="656" y="-161" type="curve"/>
      <point x="656" y="-159" type="line"/>
      <point x="605" y="-178"/>
      <point x="533" y="-190"/>
      <point x="473" y="-190" type="curve" smooth="yes"/>
      <point x="261" y="-190"/>
      <point x="101" y="-52"/>
      <point x="101" y="177" type="curve" smooth="yes"/>
      <point x="101" y="382"/>
      <point x="242" y="689"/>
      <point x="586" y="689" type="curve" smooth="yes"/>
      <point x="815" y="689"/>
      <point x="922" y="543"/>
      <point x="922" y="363" type="curve" smooth="yes"/>
      <point x="922" y="216"/>
      <point x="863" y="16"/>
      <point x="720" y="16" type="curve" smooth="yes"/>
      <point x="654" y="16"/>
      <point x="617" y="71"/>
      <point x="631" y="175" type="curve" smooth="yes"/>
      <point x="668" y="442" type="line"/>
      <point x="644" y="457"/>
      <point x="606" y="474"/>
      <point x="556" y="474" type="curve" smooth="yes"/>
      <point x="388" y="474"/>
      <point x="326" y="301"/>
      <point x="326" y="178" type="curve" smooth="yes"/>
      <point x="326" y="70"/>
      <point x="381" y="16"/>
      <point x="456" y="16" type="curve" smooth="yes"/>
      <point x="528" y="16"/>
      <point x="585" y="67"/>
      <point x="627" y="161" type="curve"/>
      <point x="621" y="107"/>
      <point x="631" y="14"/>
      <point x="720" y="14" type="curve" smooth="yes"/>
      <point x="864" y="14"/>
      <point x="924" y="215"/>
      <point x="924" y="363" type="curve" smooth="yes"/>
      <point x="924" y="544"/>
      <point x="816" y="691"/>
      <point x="586" y="691" type="curve" smooth="yes"/>
    </contour>
    <contour>
      <point x="382" y="18"/>
      <point x="328" y="71"/>
      <point x="328" y="178" type="curve" smooth="yes"/>
      <point x="328" y="300"/>
      <point x="389" y="472"/>
      <point x="556" y="472" type="curve" smooth="yes"/>
      <point x="607" y="472"/>
      <point x="644" y="455"/>
      <point x="666" y="441" type="curve"/>
      <point x="628" y="167" type="line"/>
      <point x="585" y="71"/>
      <point x="529" y="18"/>
      <point x="456" y="18" type="curve" smooth="yes"/>
    </contour>
  </outline>
</glyph>
<glyph name="B" format="1">
  <advance width="581"/>
  <unicode hex="0042"/>
  <outline>
    <contour>
      <point x="189" y="680" type="line"/>
      <point x="94" y="0" type="line"/>
      <point x="251" y="0" type="line" smooth="yes"/>
      <point x="446" y="0"/>
      <point x="507" y="103"/>
      <point x="507" y="212" type="curve" smooth="yes"/>
      <point x="507" y="305"/>
      <point x="437" y="355"/>
      <point x="351" y="360" type="curve"/>
      <point x="438" y="371"/>
      <point x="516" y="440"/>
      <point x="516" y="541" type="curve" smooth="yes"/>
      <point x="516" y="630"/>
      <point x="449" y="680"/>
      <point x="323" y="680" type="curve" smooth="yes"/>
    </contour>
    <contour>
      <point x="449" y="678"/>
      <point x="514" y="628"/>
      <point x="514" y="541" type="curve" smooth="yes"/>
      <point x="514" y="419"/>
      <point x="406" y="361"/>
      <point x="336" y="361" type="curve" smooth="yes"/>
      <point x="146" y="361" type="line"/>
      <point x="146" y="359" type="line"/>
      <point x="332" y="359" type="line" smooth="yes"/>
      <point x="435" y="359"/>
      <point x="505" y="304"/>
      <point x="505" y="212" type="curve" smooth="yes"/>
      <point x="505" y="100"/>
      <point x="440" y="2"/>
      <point x="252" y="2" type="curve" smooth="yes"/>
      <point x="96" y="2" type="line"/>
      <point x="191" y="678" type="line"/>
      <point x="324" y="678" type="line" smooth="yes"/>
    </contour>
    <contour>
      <point x="338" y="680" type="move" name="top"/>
    </contour>
  </outline>
</glyph>
<glyph name="C" format="1">
  <advance width="530"/>
  <unicode hex="0043"/>
  <outline>
    <contour>
      <point x="166" y="690"/>
      <point x="91" y="429"/>
      <point x="91" y="253" type="curve" smooth="yes"/>
      <point x="91" y="83"/>
      <point x="173" y="-9"/>
      <point x="305" y="-9" type="curve" smooth="yes"/>
      <point x="387" y="-9"/>
      <point x="439" y="23"/>
      <point x="475" y="50" type="curve"/>
      <point x="474" y="52" type="line"/>
      <point x="438" y="25"/>
      <point x="386" y="-7"/>
      <point x="305" y="-7" type="curve" smooth="yes"/>
      <point x="175" y="-7"/>
      <point x="93" y="84"/>
      <point x="93" y="253" type="curve" smooth="yes"/>
      <point x="93" y="424"/>
      <point x="166" y="688"/>
      <point x="403" y="688" type="curve" smooth="yes"/>
      <point x="478" y="688"/>
      <point x="514" y="663"/>
      <point x="546" y="631" type="curve"/>
      <point x="547" y="633" type="line"/>
      <point x="517" y="664"/>
      <point x="477" y="690"/>
      <point x="403" y="690" type="curve" smooth="yes"/>
    </contour>
    <contour>
      <point x="403" y="680" type="move" name="top"/>
    </contour>
    <contour>
      <point x="306" y="0" type="move" name="bottom"/>
    </contour>
  </outline>
</glyph>
<glyph name="D" format="1">
  <advance width="613"/>
  <unicode hex="0044"/>
  <outline>
    <contour>
      <point x="189" y="680" type="line"/>
      <point x="94" y="0" type="line"/>
      <point x="205" y="0" type="line" smooth="yes"/>
      <point x="461" y="0"/>
      <point x="547" y="233"/>
      <point x="547" y="436" type="curve" smooth="yes"/>
      <point x="547" y="638"/>
      <point x="421" y="680"/>
      <point x="293" y="680" type="curve" smooth="yes"/>
    </contour>
    <contour>
      <point x="420" y="678"/>
      <point x="545" y="636"/>
      <point x="545" y="436" type="curve" smooth="yes"/>
      <point x="545" y="234"/>
      <point x="459" y="2"/>
      <point x="205" y="2" type="curve" smooth="yes"/>
      <point x="96" y="2" type="line"/>
      <point x="191" y="678" type="line"/>
      <point x="293" y="678" type="line" smooth="yes"/>
    </contour>
    <contour>
      <point x="321" y="340" type="move" name="center"/>
    </contour>
    <contour>
      <point x="252" y="0" type="move" name="bottom"/>
    </contour>
    <contour>
      <point x="348" y="680" type="move" name="top"/>
    </contour>
  </outline>
</glyph>
<glyph name="E" format="1">
  <advance width="495"/>
  <unicode hex="0045"/>
  <outline>
    <contour>
      <point x="189" y="680" type="line"/>
      <point x="94" y="0" type="line"/>
      <point x="409" y="0" type="line"/>
      <point x="409" y="2" type="line"/>
      <point x="96" y="2" type="line"/>
      <point x="147" y="360" type="line"/>
      <point x="407" y="360" type="line"/>
      <point x="407" y="362" type="line"/>
      <point x="147" y="362" type="line"/>
      <point x="191" y="678" type="line"/>
      <point x="494" y="678" type="line"/>
      <point x="494" y="680" type="line"/>
    </contour>
    <contour>
      <point x="389" y="0" type="move" name="ogonek"/>
    </contour>
    <contour>
      <point x="343" y="680" type="move" name="top"/>
    </contour>
    <contour>
      <point x="139" y="680" type="move" name="topleft"/>
    </contour>
    <contour>
      <point x="248" y="0" type="move" name="bottom"/>
    </contour>
  </outline>
</glyph>
<glyph name="F" format="1">
  <advance width="470"/>
  <unicode hex="0046"/>
  <outline>
    <contour>
      <point x="189" y="680" type="line"/>
      <point x="94" y="0" type="line"/>
      <point x="96" y="0" type="line"/>
      <point x="144" y="345" type="line"/>
      <point x="402" y="345" type="line"/>
      <point x="402" y="347" type="line"/>
      <point x="144" y="347" type="line"/>
      <point x="191" y="678" type="line"/>
      <point x="489" y="678" type="line"/>
      <point x="489" y="680" type="line"/>
    </contour>
    <contour>
      <point x="339" y="680" type="move" name="top"/>
    </contour>
  </outline>
</glyph>
<glyph name="H" format="1">
  <advance width="654"/>
  <unicode hex="0048"/>
  <outline>
    <contour>
      <point x="488" y="0" type="line"/>
      <point x="583" y="680" type="line"/>
      <point x="581" y="680" type="line"/>
      <point x="537" y="367" type="line"/>
      <point x="147" y="367" type="line"/>
      <point x="191" y="680" type="line"/>
      <point x="189" y="680" type="line"/>
      <point x="94" y="0" type="line"/>
      <point x="96" y="0" type="line"/>
      <point x="147" y="365" type="line"/>
      <point x="537" y="365" type="line"/>
      <point x="486" y="0" type="line"/>
    </contour>
    <contour>
      <point x="304" y="0" type="move" name="bottom"/>
    </contour>
    <contour>
      <point x="385" y="680" type="move" name="top"/>
    </contour>
    <contour>
      <point x="139" y="680" type="move" name="topleft"/>
    </contour>
    <contour>
      <point x="498" y="0" type="move" name="bottomright"/>
    </contour>
    <contour>
      <point x="338" y="340" type="move" name="center"/>
    </contour>
  </outline>
</glyph>
<glyph name="I" format="1">
  <advance width="262"/>
  <unicode hex="0049"/>
  <outline>
    <contour>
      <point x="189" y="680" type="line"/>
      <point x="94" y="0" type="line"/>
      <point x="96" y="0" type="line"/>
      <point x="191" y="680" type="line"/>
    </contour>
    <contour>
      <point x="105" y="0" type="move" name="ogonek"/>
    </contour>
    <contour>
      <point x="190" y="680" type="move" name="top"/>
    </contour>
    <contour>
      <point x="140" y="680" type="move" name="topleft"/>
    </contour>
    <contour>
      <point x="95" y="0" type="move" name="bottom"/>
    </contour>
  </outline>
</glyph>
<glyph name="J" format="1">
  <advance width="274"/>
  <unicode hex="004A"/>
  <outline>
    <contour>
      <point x="207" y="680" type="line"/>
      <point x="124" y="85" type="line" smooth="yes"/>
      <point x="111" y="-6"/>
      <point x="86" y="-49"/>
      <point x="-19" y="-89" type="curve"/>
      <point x="-18" y="-91" type="line"/>
      <point x="88" y="-50"/>
      <point x="113" y="-7"/>
      <point x="126" y="85" type="curve" smooth="yes"/>
      <point x="209" y="680" type="line"/>
    </contour>
    <contour>
      <point x="209" y="680" type="move" name="top"/>
    </contour>
  </outline>
</glyph>
<glyph name="K" format="1">
  <advance width="504"/>
  <unicode hex="004B"/>
  <outline>
    <contour>
      <point x="529" y="680" type="line"/>
      <point x="150" y="366" type="line"/>
      <point x="450" y="0" type="line"/>
      <point x="453" y="0" type="line"/>
      <point x="153" y="366" type="line"/>
      <point x="532" y="680" type="line"/>
    </contour>
    <contour>
      <point x="189" y="680" type="line"/>
      <point x="94" y="1" type="line"/>
      <point x="96" y="1" type="line"/>
      <point x="191" y="680" type="line"/>
    </contour>
    <contour>
      <point x="343" y="680" type="move" name="top"/>
    </contour>
    <contour>
      <point x="248" y="0" type="move" name="bottom"/>
    </contour>
  </outline>
</glyph>
<glyph name="L" format="1">
  <advance width="445"/>
  <unicode hex="004C"/>
  <outline>
    <contour>
      <point x="189" y="680" type="line"/>
      <point x="94" y="0" type="line"/>
      <point x="384" y="0" type="line"/>
      <point x="384" y="2" type="line"/>
      <point x="96" y="2" type="line"/>
      <point x="191" y="680" type="line"/>
    </contour>
    <contour>
      <point x="239" y="0" type="move" name="bottom"/>
    </contour>
    <contour>
      <point x="190" y="680" type="move" name="top"/>
    </contour>
    <contour>
      <point x="251" y="680" type="move" name="topright"/>
    </contour>
    <contour>
      <point x="363" y="355" type="move" name="center"/>
    </contour>
  </outline>
</glyph>
<glyph name="O" format="1">
  <advance width="687"/>
  <unicode hex="004F"/>
  <outline>
    <contour>
      <point x="169" y="690"/>
      <point x="90" y="418"/>
      <point x="90" y="251" type="curve" smooth="yes"/>
      <point x="90" y="86"/>
      <point x="169" y="-9"/>
      <point x="306" y="-9" type="curve" smooth="yes"/>
      <point x="551" y="-9"/>
      <point x="621" y="261"/>
      <point x="621" y="429" type="curve" smooth="yes"/>
      <point x="621" y="596"/>
      <point x="541" y="690"/>
      <point x="403" y="690" type="curve" smooth="yes"/>
    </contour>
    <contour>
      <point x="540" y="688"/>
      <point x="619" y="595"/>
      <point x="619" y="429" type="curve" smooth="yes"/>
      <point x="619" y="262"/>
      <point x="550" y="-7"/>
      <point x="306" y="-7" type="curve" smooth="yes"/>
      <point x="170" y="-7"/>
      <point x="92" y="87"/>
      <point x="92" y="251" type="curve" smooth="yes"/>
      <point x="92" y="417"/>
      <point x="170" y="688"/>
      <point x="403" y="688" type="curve" smooth="yes"/>
    </contour>
    <contour>
      <point x="401" y="680" type="move" name="top"/>
    </contour>
    <contour>
      <point x="577" y="680" type="move" name="topright"/>
    </contour>
    <contour>
      <point x="162" y="679" type="move" name="topleft"/>
    </contour>
    <contour>
      <point x="306" y="0" type="move" name="bottom"/>
    </contour>
  </outline>
</glyph>
<glyph name="P" format="1">
  <advance width="552"/>
  <unicode hex="0050"/>
  <outline>
    <contour>
      <point x="191" y="678" type="line"/>
      <point x="311" y="678" type="line" smooth="yes"/>
      <point x="452" y="678"/>
      <point x="520" y="633"/>
      <point x="520" y="525" type="curve" smooth="yes"/>
      <point x="520" y="412"/>
      <point x="461" y="293"/>
      <point x="254" y="293" type="curve" smooth="yes"/>
      <point x="136" y="293" type="line"/>
      <point x="135" y="291" type="line"/>
      <point x="253" y="291" type="line" smooth="yes"/>
      <point x="462" y="291"/>
      <point x="522" y="411"/>
      <point x="522" y="525" type="curve" smooth="yes"/>
      <point x="522" y="634"/>
      <point x="453" y="680"/>
      <point x="311" y="680" type="curve" smooth="yes"/>
      <point x="189" y="680" type="line"/>
      <point x="94" y="0" type="line"/>
      <point x="96" y="0" type="line"/>
    </contour>
    <contour>
      <point x="335" y="680" type="move" name="top"/>
    </contour>
    <contour>
      <point x="240" y="0" type="move" name="bottom"/>
    </contour>
    <contour>
      <point x="139" y="680" type="move" name="topleft"/>
    </contour>
  </outline>
</glyph>
<glyph name="Q" format="1">
  <advance width="674"/>
  <unicode hex="0051"/>
  <outline>
    <contour>
      <point x="306" y="-9" type="line"/>
      <point x="448" y="-7"/>
      <point x="513" y="-24"/>
      <point x="567" y="-73" type="curve"/>
      <point x="569" y="-72" type="line"/>
      <point x="514" y="-21"/>
      <point x="443" y="-8"/>
      <point x="336" y="-7" type="curve"/>
    </contour>
    <contour>
      <point x="169" y="690"/>
      <point x="90" y="418"/>
      <point x="90" y="251" type="curve" smooth="yes"/>
      <point x="90" y="86"/>
      <point x="169" y="-9"/>
      <point x="306" y="-9" type="curve" smooth="yes"/>
      <point x="312" y="-9"/>
      <point x="317" y="-9"/>
      <point x="323" y="-8" type="curve"/>
      <point x="326" y="-8" type="line"/>
      <point x="555" y="6"/>
      <point x="621" y="266"/>
      <point x="621" y="429" type="curve" smooth="yes"/>
      <point x="621" y="596"/>
      <point x="541" y="690"/>
      <point x="403" y="690" type="curve" smooth="yes"/>
    </contour>
    <contour>
      <point x="540" y="688"/>
      <point x="619" y="595"/>
      <point x="619" y="429" type="curve" smooth="yes"/>
      <point x="619" y="265"/>
      <point x="550" y="-7"/>
      <point x="306" y="-7" type="curve" smooth="yes"/>
      <point x="170" y="-7"/>
      <point x="92" y="88"/>
      <point x="92" y="253" type="curve" smooth="yes"/>
      <point x="92" y="415"/>
      <point x="170" y="688"/>
      <point x="403" y="688" type="curve" smooth="yes"/>
    </contour>
    <contour>
      <point x="396" y="680" type="move" name="top"/>
    </contour>
    <contour>
      <point x="301" y="0" type="move" name="bottom"/>
    </contour>
  </outline>
</glyph>
<glyph name="R" format="1">
  <advance width="561"/>
  <unicode hex="0052"/>
  <outline>
    <contour>
      <point x="189" y="680" type="line"/>
      <point x="94" y="0" type="line"/>
      <point x="96" y="0" type="line"/>
      <point x="191" y="678" type="line"/>
      <point x="326" y="678" type="line" smooth="yes"/>
      <point x="467" y="678"/>
      <point x="517" y="624"/>
      <point x="517" y="538" type="curve" smooth="yes"/>
      <point x="517" y="441"/>
      <point x="458" y="336"/>
      <point x="317" y="336" type="curve" smooth="yes"/>
      <point x="142" y="336" type="line"/>
      <point x="142" y="334" type="line"/>
      <point x="323" y="334" type="line"/>
      <point x="464" y="337"/>
      <point x="519" y="445"/>
      <point x="519" y="538" type="curve" smooth="yes"/>
      <point x="519" y="625"/>
      <point x="468" y="680"/>
      <point x="326" y="680" type="curve" smooth="yes"/>
    </contour>
    <contour>
      <point x="322" y="335" type="line"/>
      <point x="467" y="0" type="line"/>
      <point x="470" y="0" type="line"/>
      <point x="324" y="335" type="line"/>
    </contour>
    <contour>
      <point x="340" y="680" type="move" name="top"/>
    </contour>
    <contour>
      <point x="265" y="0" type="move" name="bottom"/>
    </contour>
  </outline>
</glyph>
<glyph name="S" format="1">
  <advance width="540"/>
  <unicode hex="0053"/>
  <outline>
    <contour>
      <point x="177" y="690"/>
      <point x="125" y="591"/>
      <point x="125" y="524" type="curve" smooth="yes"/>
      <point x="125" y="439"/>
      <point x="168" y="407"/>
      <point x="285" y="368" type="curve" smooth="yes"/>
      <point x="393" y="331"/>
      <point x="449" y="293"/>
      <point x="449" y="197" type="curve" smooth="yes"/>
      <point x="449" y="121"/>
      <point x="388" y="-7"/>
      <point x="223" y="-7" type="curve" smooth="yes"/>
      <point x="131" y="-7"/>
      <point x="82" y="24"/>
      <point x="39" y="71" type="curve"/>
      <point x="38" y="69" type="line"/>
      <point x="81" y="22"/>
      <point x="131" y="-9"/>
      <point x="223" y="-9" type="curve" smooth="yes"/>
      <point x="389" y="-9"/>
      <point x="451" y="118"/>
      <point x="451" y="198" type="curve" smooth="yes"/>
      <point x="451" y="294"/>
      <point x="395" y="333"/>
      <point x="286" y="370" type="curve" smooth="yes"/>
      <point x="169" y="409"/>
      <point x="127" y="441"/>
      <point x="127" y="524" type="curve" smooth="yes"/>
      <point x="127" y="590"/>
      <point x="178" y="688"/>
      <point x="324" y="688" type="curve" smooth="yes"/>
      <point x="400" y="688"/>
      <point x="450" y="662"/>
      <point x="487" y="625" type="curve"/>
      <point x="489" y="626" type="line"/>
      <point x="452" y="663"/>
      <point x="402" y="690"/>
      <point x="324" y="690" type="curve" smooth="yes"/>
    </contour>
    <contour>
      <point x="332" y="680" type="move" name="top"/>
    </contour>
    <contour>
      <point x="225" y="0" type="move" name="bottom"/>
    </contour>
  </outline>
</glyph>
<glyph name="T" format="1">
  <advance width="472"/>
  <unicode hex="0054"/>
  <outline>
    <contour>
      <point x="79" y="680" type="line"/>
      <point x="79" y="678" type="line"/>
      <point x="294" y="678" type="line"/>
      <point x="199" y="0" type="line"/>
      <point x="201" y="0" type="line"/>
      <point x="296" y="678" type="line"/>
      <point x="511" y="678" type="line"/>
      <point x="511" y="680" type="line"/>
    </contour>
    <contour>
      <point x="200" y="0" type="move" name="bottom"/>
    </contour>
    <contour>
      <point x="295" y="680" type="move" name="top"/>
    </contour>
    <contour>
      <point x="211" y="0" type="move" name="bottomright"/>
    </contour>
    <contour>
      <point x="248" y="340" type="move" name="center"/>
    </contour>
  </outline>
</glyph>
<glyph name="U" format="1">
  <advance width="635"/>
  <unicode hex="0055"/>
  <outline>
    <contour>
      <point x="572" y="680" type="line"/>
      <point x="505" y="206" type="line" smooth="yes"/>
      <point x="489" y="84"/>
      <point x="424" y="-7"/>
      <point x="281" y="-7" type="curve" smooth="yes"/>
      <point x="137" y="-7"/>
      <point x="99" y="84"/>
      <point x="115" y="206" type="curve" smooth="yes"/>
      <point x="182" y="680" type="line"/>
      <point x="180" y="680" type="line"/>
      <point x="113" y="206" type="line" smooth="yes"/>
      <point x="97" y="83"/>
      <point x="135" y="-9"/>
      <point x="281" y="-9" type="curve" smooth="yes"/>
      <point x="425" y="-9"/>
      <point x="491" y="83"/>
      <point x="507" y="206" type="curve" smooth="yes"/>
      <point x="574" y="680" type="line"/>
    </contour>
    <contour>
      <point x="362" y="0" type="move" name="ogonek"/>
    </contour>
    <contour>
      <point x="377" y="680" type="move" name="top"/>
    </contour>
    <contour>
      <point x="584" y="680" type="move" name="topright"/>
    </contour>
    <contour>
      <point x="281" y="0" type="move" name="bottom"/>
    </contour>
  </outline>
</glyph>
<glyph name="V" format="1">
  <advance width="523"/>
  <unicode hex="0056"/>
  <outline>
    <contour>
      <point x="545" y="680" type="line"/>
      <point x="227" y="2" type="line"/>
      <point x="96" y="680" type="line"/>
      <point x="94" y="680" type="line"/>
      <point x="226" y="0" type="line"/>
      <point x="228" y="0" type="line"/>
      <point x="547" y="680" type="line"/>
    </contour>
  </outline>
</glyph>
<glyph name="W" format="1">
  <advance width="776"/>
  <unicode hex="0057"/>
  <outline>
    <contour>
      <point x="788" y="680" type="line"/>
      <point x="534" y="3" type="line"/>
      <point x="448" y="680" type="line"/>
      <point x="446" y="680" type="line"/>
      <point x="170" y="2" type="line"/>
      <point x="106" y="680" type="line"/>
      <point x="104" y="680" type="line"/>
      <point x="169" y="0" type="line"/>
      <point x="171" y="0" type="line"/>
      <point x="447" y="678" type="line"/>
      <point x="533" y="0" type="line"/>
      <point x="535" y="0" type="line"/>
      <point x="790" y="680" type="line"/>
    </contour>
    <contour>
      <point x="447" y="680" type="move" name="top"/>
    </contour>
  </outline>
</glyph>
<glyph name="X" format="1">
  <advance width="467"/>
  <unicode hex="0058"/>
  <outline>
    <contour>
      <point x="110" y="680" type="line"/>
      <point x="247" y="370" type="line"/>
      <point x="249" y="369" type="line"/>
      <point x="409" y="0" type="line"/>
      <point x="411" y="0" type="line"/>
      <point x="251" y="370" type="line"/>
      <point x="249" y="371" type="line"/>
      <point x="112" y="680" type="line"/>
    </contour>
    <contour>
      <point x="473" y="680" type="line"/>
      <point x="249" y="371" type="line"/>
      <point x="247" y="370" type="line"/>
      <point x="-16" y="0" type="line"/>
      <point x="-14" y="0" type="line"/>
      <point x="249" y="369" type="line"/>
      <point x="251" y="370" type="line"/>
      <point x="475" y="680" type="line"/>
    </contour>
    <contour>
      <point x="293" y="680" type="move" name="top"/>
    </contour>
    <contour>
      <point x="197" y="0" type="move" name="bottom"/>
    </contour>
    <contour>
      <point x="418" y="0" type="move" name="bottomright"/>
    </contour>
  </outline>
</glyph>
<glyph name="Z" format="1">
  <advance width="504"/>
  <unicode hex="005A"/>
  <outline>
    <contour>
      <point x="401" y="0" type="line"/>
      <point x="401" y="2" type="line"/>
      <point x="12" y="2" type="line"/>
      <point x="513" y="678" type="line"/>
      <point x="513" y="680" type="line"/>
      <point x="141" y="680" type="line"/>
      <point x="141" y="678" type="line"/>
      <point x="510" y="678" type="line"/>
      <point x="9" y="2" type="line"/>
      <point x="9" y="0" type="line"/>
    </contour>
    <contour>
      <point x="313" y="680" type="move" name="top"/>
    </contour>
    <contour>
      <point x="208" y="0" type="move" name="bottom"/>
    </contour>
  </outline>
</glyph>
<glyph name="bracketleft" format="1">
  <advance width="310"/>
  <unicode hex="005B"/>
  <outline>
    <contour>
      <point x="185" y="790" type="line"/>
      <point x="59" y="-100" type="line"/>
      <point x="169" y="-100" type="line"/>
      <point x="171" y="-98" type="line"/>
      <point x="63" y="-98" type="line"/>
      <point x="186" y="788" type="line"/>
      <point x="294" y="788" type="line"/>
      <point x="295" y="790" type="line"/>
    </contour>
  </outline>
</glyph>
<glyph name="backslash" format="1">
  <advance width="520"/>
  <unicode hex="005C"/>
  <outline>
    <contour>
      <point x="218" y="793" type="line"/>
      <point x="326" y="-92" type="line"/>
      <point x="328" y="-91" type="line"/>
      <point x="220" y="794" type="line"/>
    </contour>
  </outline>
</glyph>
<glyph name="bracketright" format="1">
  <advance width="309"/>
  <unicode hex="005D"/>
  <outline>
    <contour>
      <point x="164" y="790" type="line"/>
      <point x="164" y="788" type="line"/>
      <point x="272" y="788" type="line"/>
      <point x="148" y="-98" type="line"/>
      <point x="39" y="-98" type="line"/>
      <point x="39" y="-100" type="line"/>
      <point x="150" y="-100" type="line"/>
      <point x="275" y="790" type="line"/>
    </contour>
  </outline>
</glyph>
<glyph name="asciicircum" format="1">
  <advance width="528"/>
  <unicode hex="005E"/>
  <outline>
    <contour>
      <point x="337" y="817" type="line"/>
      <point x="127" y="527" type="line"/>
      <point x="129" y="527" type="line"/>
      <point x="336" y="815" type="line"/>
      <point x="463" y="527" type="line"/>
      <point x="465" y="527" type="line"/>
      <point x="339" y="817" type="line"/>
    </contour>
  </outline>
</glyph>
<glyph name="underscore" format="1">
  <advance width="520"/>
  <unicode hex="005F"/>
  <outline>
    <contour>
      <point x="419" y="-87" type="line"/>
      <point x="419" y="-85" type="line"/>
      <point x="5" y="-85" type="line"/>
      <point x="5" y="-87" type="line"/>
    </contour>
  </outline>
</glyph>
<glyph name="grave" format="1">
  <advance width="228"/>
  <unicode hex="0060"/>
  <outline>
    <contour>
      <point x="98" y="744" type="line"/>
      <point x="253" y="662" type="line"/>
      <point x="254" y="663" type="line"/>
      <point x="99" y="746" type="line"/>
    </contour>
  </outline>
</glyph>
<glyph name="a" format="1">
  <advance width="539"/>
  <unicode hex="0061"/>
  <outline>
    <contour>
      <point x="139" y="527"/>
      <point x="74" y="326"/>
      <point x="74" y="183" type="curve" smooth="yes"/>
      <point x="74" y="72"/>
      <point x="129" y="-9"/>
      <point x="227" y="-9" type="curve" smooth="yes"/>
      <point x="291" y="-9"/>
      <point x="357" y="31"/>
      <point x="403" y="116" type="curve"/>
      <point x="398" y="71"/>
      <point x="388" y="12"/>
      <point x="442" y="-9" type="curve"/>
      <point x="443" y="-7" type="line"/>
      <point x="413" y="4"/>
      <point x="401" y="28"/>
      <point x="401" y="65" type="curve" smooth="yes"/>
      <point x="401" y="81"/>
      <point x="403" y="99"/>
      <point x="406" y="121" type="curve" smooth="yes"/>
      <point x="462" y="487" type="line"/>
      <point x="428" y="511"/>
      <point x="387" y="527"/>
      <point x="337" y="527" type="curve" smooth="yes"/>
    </contour>
    <contour>
      <point x="386" y="525"/>
      <point x="426" y="510"/>
      <point x="460" y="486" type="curve"/>
      <point x="404" y="121" type="line"/>
      <point x="357" y="34"/>
      <point x="291" y="-7"/>
      <point x="227" y="-7" type="curve" smooth="yes"/>
      <point x="130" y="-7"/>
      <point x="76" y="73"/>
      <point x="76" y="183" type="curve" smooth="yes"/>
      <point x="76" y="325"/>
      <point x="140" y="525"/>
      <point x="337" y="525" type="curve" smooth="yes"/>
    </contour>
    <contour>
      <point x="452" y="-9" type="move" name="ogonek"/>
    </contour>
    <contour>
      <point x="257" y="0" type="move" name="bottom"/>
    </contour>
    <contour>
      <point x="336" y="517" type="move" name="top"/>
    </contour>
  </outline>
</glyph>
<glyph name="c" format="1">
  <advance width="469"/>
  <unicode hex="0063"/>
  <outline>
    <contour>
      <point x="160" y="527"/>
      <point x="76" y="364"/>
      <point x="76" y="194" type="curve" smooth="yes"/>
      <point x="76" y="62"/>
      <point x="143" y="-9"/>
      <point x="243" y="-9" type="curve" smooth="yes"/>
      <point x="304" y="-9"/>
      <point x="346" y="13"/>
      <point x="384" y="44" type="curve"/>
      <point x="383" y="45" type="line"/>
      <point x="344" y="14"/>
      <point x="302" y="-7"/>
      <point x="243" y="-7" type="curve" smooth="yes"/>
      <point x="144" y="-7"/>
      <point x="78" y="63"/>
      <point x="78" y="194" type="curve" smooth="yes"/>
      <point x="78" y="363"/>
      <point x="161" y="525"/>
      <point x="319" y="525" type="curve" smooth="yes"/>
      <point x="370" y="525"/>
      <point x="408" y="509"/>
      <point x="439" y="476" type="curve"/>
      <point x="441" y="477" type="line"/>
      <point x="410" y="510"/>
      <point x="372" y="527"/>
      <point x="319" y="527" type="curve" smooth="yes"/>
    </contour>
    <contour>
      <point x="305" y="517" type="move" name="top"/>
    </contour>
    <contour>
      <point x="249" y="-1" type="move" name="bottom"/>
    </contour>
  </outline>
</glyph>
<glyph name="d" format="1">
  <advance width="571"/>
  <unicode hex="0064"/>
  <outline>
    <contour>
      <point x="467" y="424" type="line"/>
      <point x="449" y="473"/>
      <point x="403" y="527"/>
      <point x="317" y="527" type="curve" smooth="yes"/>
      <point x="138" y="527"/>
      <point x="79" y="315"/>
      <point x="79" y="182" type="curve" smooth="yes"/>
      <point x="79" y="61"/>
      <point x="138" y="-9"/>
      <point x="228" y="-9" type="curve" smooth="yes"/>
      <point x="325" y="-9"/>
      <point x="382" y="65"/>
      <point x="429" y="149" type="curve"/>
      <point x="408" y="0" type="line"/>
      <point x="410" y="0" type="line"/>
      <point x="512" y="730" type="line"/>
      <point x="510" y="730" type="line"/>
    </contour>
    <contour>
      <point x="402" y="525"/>
      <point x="447" y="474"/>
      <point x="467" y="420" type="curve"/>
      <point x="429" y="152" type="line"/>
      <point x="382" y="68"/>
      <point x="325" y="-7"/>
      <point x="228" y="-7" type="curve" smooth="yes"/>
      <point x="139" y="-7"/>
      <point x="81" y="62"/>
      <point x="81" y="182" type="curve" smooth="yes"/>
      <point x="81" y="314"/>
      <point x="139" y="525"/>
      <point x="317" y="525" type="curve" smooth="yes"/>
    </contour>
    <contour>
      <point x="252" y="0" type="move" name="bottom"/>
    </contour>
    <contour>
      <point x="344" y="727" type="move" name="top"/>
    </contour>
    <contour>
      <point x="561" y="727" type="move" name="topright"/>
    </contour>
    <contour>
      <point x="288" y="259" type="move" name="center"/>
    </contour>
  </outline>
</glyph>
<glyph name="e" format="1">
  <advance width="520"/>
  <unicode hex="0065"/>
  <outline>
    <contour>
      <point x="133" y="527"/>
      <point x="75" y="310"/>
      <point x="75" y="190" type="curve"/>
      <point x="75" y="61"/>
      <point x="137" y="-9"/>
      <point x="239" y="-9" type="curve"/>
      <point x="304" y="-9"/>
      <point x="349" y="12"/>
      <point x="401" y="50" type="curve"/>
      <point x="400" y="52" type="line"/>
      <point x="348" y="14"/>
      <point x="304" y="-7"/>
      <point x="239" y="-7" type="curve"/>
      <point x="138" y="-7"/>
      <point x="77" y="62"/>
      <point x="77" y="190" type="curve"/>
      <point x="77" y="310"/>
      <point x="135" y="525"/>
      <point x="325" y="525" type="curve"/>
      <point x="399" y="525"/>
      <point x="463" y="487"/>
      <point x="463" y="414" type="curve"/>
      <point x="463" y="308"/>
      <point x="348" y="233"/>
      <point x="77" y="220" type="curve"/>
      <point x="77" y="218" type="line"/>
      <point x="348" y="231"/>
      <point x="465" y="306"/>
      <point x="465" y="414" type="curve"/>
      <point x="465" y="488"/>
      <point x="400" y="527"/>
      <point x="325" y="527" type="curve"/>
    </contour>
    <contour>
      <point x="344" y="10" type="move" name="ogonek"/>
    </contour>
    <contour>
      <point x="234" y="0" type="move" name="bottom"/>
    </contour>
    <contour>
      <point x="308" y="517" type="move" name="top"/>
    </contour>
  </outline>
</glyph>
<glyph name="f" format="1">
  <advance width="299"/>
  <unicode hex="0066"/>
  <outline>
    <contour>
      <point x="240" y="734"/>
      <point x="189" y="694"/>
      <point x="178" y="618" type="curve" smooth="yes"/>
      <point x="91" y="1" type="line" smooth="yes"/>
      <point x="75" y="-117"/>
      <point x="41" y="-153"/>
      <point x="-33" y="-190" type="curve"/>
      <point x="-32" y="-191" type="line"/>
      <point x="43" y="-154"/>
      <point x="76" y="-118"/>
      <point x="93" y="1" type="curve" smooth="yes"/>
      <point x="180" y="618" type="line" smooth="yes"/>
      <point x="191" y="693"/>
      <point x="241" y="732"/>
      <point x="305" y="732" type="curve" smooth="yes"/>
      <point x="349" y="732"/>
      <point x="382" y="719"/>
      <point x="413" y="695" type="curve"/>
      <point x="415" y="696" type="line"/>
      <point x="383" y="721"/>
      <point x="349" y="734"/>
      <point x="305" y="734" type="curve" smooth="yes"/>
    </contour>
    <contour>
      <point x="71" y="517" type="line"/>
      <point x="71" y="515" type="line"/>
      <point x="316" y="515" type="line"/>
      <point x="316" y="517" type="line"/>
    </contour>
    <contour>
      <point x="310" y="727" type="move" name="top"/>
    </contour>
    <contour>
      <point x="65" y="-188" type="move" name="bottom"/>
    </contour>
  </outline>
</glyph>
<glyph name="g" format="1">
  <advance width="549"/>
  <unicode hex="0067"/>
  <outline>
    <contour>
      <point x="139" y="527"/>
      <point x="76" y="338"/>
      <point x="76" y="195" type="curve" smooth="yes"/>
      <point x="76" y="84"/>
      <point x="130" y="0"/>
      <point x="228" y="0" type="curve" smooth="yes"/>
      <point x="292" y="0"/>
      <point x="360" y="42"/>
      <point x="407" y="132" type="curve"/>
      <point x="386" y="-11" type="line" smooth="yes"/>
      <point x="365" y="-151"/>
      <point x="296" y="-189"/>
      <point x="211" y="-189" type="curve" smooth="yes"/>
      <point x="141" y="-189"/>
      <point x="85" y="-165"/>
      <point x="53" y="-143" type="curve"/>
      <point x="52" y="-145" type="line"/>
      <point x="84" y="-167"/>
      <point x="141" y="-191"/>
      <point x="211" y="-191" type="curve" smooth="yes"/>
      <point x="297" y="-191"/>
      <point x="367" y="-152"/>
      <point x="388" y="-11" type="curve" smooth="yes"/>
      <point x="462" y="487" type="line"/>
      <point x="428" y="511"/>
      <point x="387" y="527"/>
      <point x="337" y="527" type="curve" smooth="yes"/>
    </contour>
    <contour>
      <point x="386" y="525"/>
      <point x="426" y="510"/>
      <point x="460" y="486" type="curve"/>
      <point x="408" y="138" type="line"/>
      <point x="362" y="49"/>
      <point x="297" y="2"/>
      <point x="228" y="2" type="curve" smooth="yes"/>
      <point x="131" y="2"/>
      <point x="78" y="85"/>
      <point x="78" y="195" type="curve" smooth="yes"/>
      <point x="78" y="337"/>
      <point x="140" y="525"/>
      <point x="337" y="525" type="curve" smooth="yes"/>
    </contour>
    <contour>
      <point x="316" y="517" type="move" name="top"/>
    </contour>
    <contour>
      <point x="211" y="-188" type="move" name="bottom"/>
    </contour>
  </outline>
</glyph>
<glyph name="h" format="1">
  <advance width="580"/>
  <unicode hex="0068"/>
  <outline>
    <contour>
      <point x="279" y="527"/>
      <point x="207" y="473"/>
      <point x="138" y="335" type="curve"/>
      <point x="193" y="730" type="line"/>
      <point x="191" y="730" type="line"/>
      <point x="89" y="0" type="line"/>
      <point x="91" y="0" type="line"/>
      <point x="137" y="329" type="line"/>
      <point x="208" y="471"/>
      <point x="279" y="525"/>
      <point x="365" y="525" type="curve" smooth="yes"/>
      <point x="457" y="525"/>
      <point x="487" y="466"/>
      <point x="474" y="368" type="curve" smooth="yes"/>
      <point x="422" y="0" type="line"/>
      <point x="424" y="0" type="line"/>
      <point x="476" y="368" type="line" smooth="yes"/>
      <point x="489" y="467"/>
      <point x="458" y="527"/>
      <point x="365" y="527" type="curve" smooth="yes"/>
    </contour>
    <contour>
      <point x="281" y="259" type="move" name="center"/>
    </contour>
    <contour>
      <point x="257" y="0" type="move" name="bottom"/>
    </contour>
    <contour>
      <point x="321" y="727" type="move" name="top"/>
    </contour>
  </outline>
</glyph>
<glyph name="k" format="1">
  <advance width="509"/>
  <unicode hex="006B"/>
  <outline>
    <contour>
      <point x="191" y="730" type="line"/>
      <point x="89" y="0" type="line"/>
      <point x="91" y="0" type="line"/>
      <point x="133" y="302" type="line"/>
      <point x="197" y="446"/>
      <point x="279" y="525"/>
      <point x="367" y="525" type="curve" smooth="yes"/>
      <point x="433" y="525"/>
      <point x="469" y="485"/>
      <point x="469" y="424" type="curve" smooth="yes"/>
      <point x="469" y="335"/>
      <point x="396" y="283"/>
      <point x="279" y="244" type="curve"/>
      <point x="408" y="0" type="line"/>
      <point x="410" y="0" type="line"/>
      <point x="282" y="243" type="line"/>
      <point x="397" y="281"/>
      <point x="471" y="334"/>
      <point x="471" y="425" type="curve" smooth="yes"/>
      <point x="471" y="486"/>
      <point x="434" y="527"/>
      <point x="367" y="527" type="curve" smooth="yes"/>
      <point x="278" y="527"/>
      <point x="196" y="448"/>
      <point x="134" y="308" type="curve"/>
      <point x="193" y="730" type="line"/>
    </contour>
    <contour>
      <point x="348" y="727" type="move" name="top"/>
    </contour>
    <contour>
      <point x="228" y="0" type="move" name="bottom"/>
    </contour>
  </outline>
</glyph>
<glyph name="m" format="1">
  <advance width="842"/>
  <unicode hex="006D"/>
  <outline>
    <contour>
      <point x="274" y="527"/>
      <point x="202" y="478"/>
      <point x="138" y="335" type="curve"/>
      <point x="163" y="517" type="line"/>
      <point x="161" y="517" type="line"/>
      <point x="89" y="0" type="line"/>
      <point x="91" y="0" type="line"/>
      <point x="137" y="329" type="line"/>
      <point x="203" y="476"/>
      <point x="274" y="525"/>
      <point x="345" y="525" type="curve" smooth="yes"/>
      <point x="422" y="525"/>
      <point x="452" y="466"/>
      <point x="438" y="368" type="curve" smooth="yes"/>
      <point x="387" y="0" type="line"/>
      <point x="389" y="0" type="line"/>
      <point x="440" y="368" type="line" smooth="yes"/>
      <point x="454" y="467"/>
      <point x="423" y="527"/>
      <point x="345" y="527" type="curve" smooth="yes"/>
    </contour>
    <contour>
      <point x="572" y="527"/>
      <point x="499" y="480"/>
      <point x="435" y="337" type="curve"/>
      <point x="434" y="331" type="line"/>
      <point x="500" y="479"/>
      <point x="572" y="525"/>
      <point x="643" y="525" type="curve" smooth="yes"/>
      <point x="720" y="525"/>
      <point x="750" y="466"/>
      <point x="736" y="368" type="curve" smooth="yes"/>
      <point x="685" y="0" type="line"/>
      <point x="687" y="0" type="line"/>
      <point x="738" y="368" type="line" smooth="yes"/>
      <point x="752" y="467"/>
      <point x="721" y="527"/>
      <point x="643" y="527" type="curve" smooth="yes"/>
    </contour>
    <contour>
      <point x="456" y="517" type="move" name="top"/>
    </contour>
    <contour>
      <point x="388" y="0" type="move" name="bottom"/>
    </contour>
  </outline>
</glyph>
<glyph name="n" format="1">
  <advance width="580"/>
  <unicode hex="006E"/>
  <outline>
    <contour>
      <point x="279" y="527"/>
      <point x="207" y="473"/>
      <point x="138" y="335" type="curve"/>
      <point x="163" y="517" type="line"/>
      <point x="161" y="517" type="line"/>
      <point x="89" y="0" type="line"/>
      <point x="91" y="0" type="line"/>
      <point x="137" y="329" type="line"/>
      <point x="208" y="471"/>
      <point x="279" y="525"/>
      <point x="368" y="525" type="curve" smooth="yes"/>
      <point x="454" y="525"/>
      <point x="487" y="466"/>
      <point x="474" y="368" type="curve" smooth="yes"/>
      <point x="422" y="0" type="line"/>
      <point x="424" y="0" type="line"/>
      <point x="476" y="368" type="line" smooth="yes"/>
      <point x="489" y="467"/>
      <point x="455" y="527"/>
      <point x="368" y="527" type="curve" smooth="yes"/>
    </contour>
    <contour>
      <point x="330" y="517" type="move" name="top"/>
    </contour>
    <contour>
      <point x="257" y="0" type="move" name="bottom"/>
    </contour>
    <contour>
      <point x="151" y="517" type="move" name="topleft"/>
    </contour>
  </outline>
</glyph>
<glyph name="o" format="1">
  <advance width="559"/>
  <unicode hex="006F"/>
  <outline>
    <contour>
      <point x="136" y="527"/>
      <point x="75" y="325"/>
      <point x="75" y="192" type="curve" smooth="yes"/>
      <point x="75" y="65"/>
      <point x="136" y="-9"/>
      <point x="242" y="-9" type="curve" smooth="yes"/>
      <point x="426" y="-9"/>
      <point x="484" y="198"/>
      <point x="484" y="328" type="curve" smooth="yes"/>
      <point x="484" y="455"/>
      <point x="423" y="527"/>
      <point x="318" y="527" type="curve" smooth="yes"/>
    </contour>
    <contour>
      <point x="422" y="525"/>
      <point x="482" y="454"/>
      <point x="482" y="328" type="curve" smooth="yes"/>
      <point x="482" y="199"/>
      <point x="425" y="-7"/>
      <point x="242" y="-7" type="curve" smooth="yes"/>
      <point x="137" y="-7"/>
      <point x="77" y="66"/>
      <point x="77" y="192" type="curve" smooth="yes"/>
      <point x="77" y="324"/>
      <point x="137" y="525"/>
      <point x="318" y="525" type="curve" smooth="yes"/>
    </contour>
    <contour>
      <point x="316" y="517" type="move" name="top"/>
    </contour>
    <contour>
      <point x="242" y="0" type="move" name="bottom"/>
    </contour>
    <contour>
      <point x="467" y="517" type="move" name="topright"/>
    </contour>
  </outline>
</glyph>
<glyph name="p" format="1">
  <advance width="567"/>
  <unicode hex="0070"/>
  <outline>
    <contour>
      <point x="260" y="527"/>
      <point x="200" y="483"/>
      <point x="150" y="420" type="curve"/>
      <point x="163" y="517" type="line"/>
      <point x="161" y="517" type="line"/>
      <point x="63" y="-189" type="line"/>
      <point x="65" y="-189" type="line"/>
      <point x="95" y="26" type="line"/>
      <point x="134" y="6"/>
      <point x="189" y="-9"/>
      <point x="251" y="-9" type="curve" smooth="yes"/>
      <point x="425" y="-9"/>
      <point x="489" y="207"/>
      <point x="489" y="339" type="curve" smooth="yes"/>
      <point x="489" y="459"/>
      <point x="439" y="527"/>
      <point x="343" y="527" type="curve" smooth="yes"/>
    </contour>
    <contour>
      <point x="438" y="525"/>
      <point x="487" y="458"/>
      <point x="487" y="339" type="curve" smooth="yes"/>
      <point x="487" y="208"/>
      <point x="424" y="-7"/>
      <point x="251" y="-7" type="curve" smooth="yes"/>
      <point x="190" y="-7"/>
      <point x="136" y="7"/>
      <point x="95" y="28" type="curve"/>
      <point x="150" y="418" type="line"/>
      <point x="205" y="484"/>
      <point x="261" y="525"/>
      <point x="343" y="525" type="curve" smooth="yes"/>
    </contour>
    <contour>
      <point x="320" y="517" type="move" name="top"/>
    </contour>
    <contour>
      <point x="224" y="-188" type="move" name="bottom"/>
    </contour>
  </outline>
</glyph>
<glyph name="q" format="1">
  <advance width="549"/>
  <unicode hex="0071"/>
  <outline>
    <contour>
      <point x="139" y="527"/>
      <point x="74" y="326"/>
      <point x="74" y="183" type="curve" smooth="yes"/>
      <point x="74" y="72"/>
      <point x="129" y="-9"/>
      <point x="227" y="-9" type="curve" smooth="yes"/>
      <point x="291" y="-9"/>
      <point x="358" y="31"/>
      <point x="405" y="118" type="curve"/>
      <point x="360" y="-189" type="line"/>
      <point x="362" y="-189" type="line"/>
      <point x="462" y="487" type="line"/>
      <point x="428" y="511"/>
      <point x="387" y="527"/>
      <point x="337" y="527" type="curve" smooth="yes"/>
    </contour>
    <contour>
      <point x="386" y="525"/>
      <point x="426" y="510"/>
      <point x="460" y="486" type="curve"/>
      <point x="406" y="124" type="line"/>
      <point x="358" y="33"/>
      <point x="291" y="-7"/>
      <point x="227" y="-7" type="curve" smooth="yes"/>
      <point x="130" y="-7"/>
      <point x="76" y="73"/>
      <point x="76" y="183" type="curve" smooth="yes"/>
      <point x="76" y="325"/>
      <point x="140" y="525"/>
      <point x="337" y="525" type="curve" smooth="yes"/>
    </contour>
    <contour>
      <point x="321" y="517" type="move" name="top"/>
    </contour>
    <contour>
      <point x="208" y="-188" type="move" name="bottom"/>
    </contour>
  </outline>
</glyph>
<glyph name="r" format="1">
  <advance width="361"/>
  <unicode hex="0072"/>
  <outline>
    <contour>
      <point x="245" y="527"/>
      <point x="189" y="486"/>
      <point x="141" y="357" type="curve"/>
      <point x="163" y="517" type="line"/>
      <point x="161" y="517" type="line"/>
      <point x="89" y="0" type="line"/>
      <point x="91" y="0" type="line"/>
      <point x="140" y="349" type="line"/>
      <point x="190" y="485"/>
      <point x="246" y="525"/>
      <point x="327" y="525" type="curve" smooth="yes"/>
      <point x="344" y="525"/>
      <point x="360" y="522"/>
      <point x="372" y="518" type="curve"/>
      <point x="373" y="520" type="line"/>
      <point x="360" y="524"/>
      <point x="345" y="527"/>
      <point x="327" y="527" type="curve" smooth="yes"/>
    </contour>
    <contour>
      <point x="266" y="517" type="move" name="top"/>
    </contour>
    <contour>
      <point x="90" y="0" type="move" name="bottom"/>
    </contour>
  </outline>
</glyph>
<glyph name="s" format="1">
  <advance width="457"/>
  <unicode hex="0073"/>
  <outline>
    <contour>
      <point x="171" y="527"/>
      <point x="96" y="478"/>
      <point x="96" y="399" type="curve" smooth="yes"/>
      <point x="96" y="341"/>
      <point x="129" y="309"/>
      <point x="233" y="275" type="curve" smooth="yes"/>
      <point x="334" y="242"/>
      <point x="369" y="210"/>
      <point x="369" y="141" type="curve" smooth="yes"/>
      <point x="369" y="46"/>
      <point x="290" y="-7"/>
      <point x="193" y="-7" type="curve" smooth="yes"/>
      <point x="112" y="-7"/>
      <point x="68" y="21"/>
      <point x="30" y="59" type="curve"/>
      <point x="29" y="57" type="line"/>
      <point x="67" y="19"/>
      <point x="112" y="-9"/>
      <point x="193" y="-9" type="curve" smooth="yes"/>
      <point x="291" y="-9"/>
      <point x="371" y="45"/>
      <point x="371" y="141" type="curve" smooth="yes"/>
      <point x="371" y="211"/>
      <point x="335" y="244"/>
      <point x="234" y="277" type="curve" smooth="yes"/>
      <point x="129" y="311"/>
      <point x="98" y="343"/>
      <point x="98" y="399" type="curve" smooth="yes"/>
      <point x="98" y="478"/>
      <point x="173" y="525"/>
      <point x="259" y="525" type="curve" smooth="yes"/>
      <point x="323" y="525"/>
      <point x="365" y="508"/>
      <point x="401" y="474" type="curve"/>
      <point x="403" y="475" type="line"/>
      <point x="367" y="509"/>
      <point x="324" y="527"/>
      <point x="259" y="527" type="curve" smooth="yes"/>
    </contour>
    <contour>
      <point x="270" y="517" type="move" name="top"/>
    </contour>
    <contour>
      <point x="193" y="0" type="move" name="bottom"/>
    </contour>
  </outline>
</glyph>
<glyph name="t" format="1">
  <advance width="322"/>
  <unicode hex="0074"/>
  <outline>
    <contour>
      <point x="172" y="651" type="line"/>
      <point x="153" y="516" type="line"/>
      <point x="97" y="113" type="line" smooth="yes"/>
      <point x="86" y="35"/>
      <point x="118" y="-9"/>
      <point x="183" y="-9" type="curve" smooth="yes"/>
      <point x="224" y="-9"/>
      <point x="254" y="4"/>
      <point x="281" y="19" type="curve"/>
      <point x="280" y="21" type="line"/>
      <point x="252" y="5"/>
      <point x="223" y="-7"/>
      <point x="183" y="-7" type="curve" smooth="yes"/>
      <point x="119" y="-7"/>
      <point x="88" y="37"/>
      <point x="99" y="113" type="curve" smooth="yes"/>
      <point x="174" y="651" type="line"/>
    </contour>
    <contour>
      <point x="66" y="517" type="line"/>
      <point x="66" y="515" type="line"/>
      <point x="301" y="515" type="line"/>
      <point x="301" y="517" type="line"/>
    </contour>
    <contour>
      <point x="192" y="0" type="move" name="bottom"/>
    </contour>
    <contour>
      <point x="173" y="649" type="move" name="top"/>
    </contour>
    <contour>
      <point x="243" y="730" type="move" name="topright"/>
    </contour>
    <contour>
      <point x="145" y="259" type="move" name="center"/>
    </contour>
  </outline>
</glyph>
<glyph name="u" format="1">
  <advance width="574"/>
  <unicode hex="0075"/>
  <outline>
    <contour>
      <point x="483" y="517" type="line"/>
      <point x="435" y="171" type="line"/>
      <point x="385" y="55"/>
      <point x="310" y="-7"/>
      <point x="223" y="-7" type="curve" smooth="yes"/>
      <point x="137" y="-7"/>
      <point x="92" y="48"/>
      <point x="106" y="150" type="curve" smooth="yes"/>
      <point x="157" y="517" type="line"/>
      <point x="155" y="517" type="line"/>
      <point x="104" y="150" type="line" smooth="yes"/>
      <point x="90" y="46"/>
      <point x="136" y="-9"/>
      <point x="223" y="-9" type="curve" smooth="yes"/>
      <point x="309" y="-9"/>
      <point x="385" y="52"/>
      <point x="435" y="167" type="curve"/>
      <point x="411" y="0" type="line"/>
      <point x="413" y="0" type="line"/>
      <point x="485" y="517" type="line"/>
    </contour>
    <contour>
      <point x="423" y="0" type="move" name="ogonek"/>
    </contour>
    <contour>
      <point x="320" y="517" type="move" name="top"/>
    </contour>
    <contour>
      <point x="495" y="517" type="move" name="topright"/>
    </contour>
    <contour>
      <point x="422" y="0" type="move" name="bottomright"/>
    </contour>
    <contour>
      <point x="250" y="0" type="move" name="bottom"/>
    </contour>
  </outline>
</glyph>
<glyph name="w" format="1">
  <advance width="672"/>
  <unicode hex="0077"/>
  <outline>
    <contour>
      <point x="666" y="517" type="line"/>
      <point x="454" y="2" type="line"/>
      <point x="373" y="517" type="line"/>
      <point x="371" y="517" type="line"/>
      <point x="146" y="2" type="line"/>
      <point x="78" y="517" type="line"/>
      <point x="76" y="517" type="line"/>
      <point x="145" y="0" type="line"/>
      <point x="147" y="0" type="line"/>
      <point x="372" y="514" type="line"/>
      <point x="453" y="0" type="line"/>
      <point x="455" y="0" type="line"/>
      <point x="668" y="517" type="line"/>
    </contour>
    <contour>
      <point x="372" y="517" type="move" name="top"/>
    </contour>
    <contour>
      <point x="300" y="0" type="move" name="bottom"/>
    </contour>
  </outline>
</glyph>
<glyph name="x" format="1">
  <advance width="424"/>
  <unicode hex="0078"/>
  <outline>
    <contour>
      <point x="88" y="517" type="line"/>
      <point x="212" y="278" type="line"/>
      <point x="213" y="277" type="line"/>
      <point x="361" y="0" type="line"/>
      <point x="363" y="0" type="line"/>
      <point x="214" y="278" type="line"/>
      <point x="213" y="279" type="line"/>
      <point x="90" y="517" type="line"/>
    </contour>
    <contour>
      <point x="406" y="517" type="line"/>
      <point x="213" y="279" type="line"/>
      <point x="212" y="278" type="line"/>
      <point x="-11" y="0" type="line"/>
      <point x="-9" y="0" type="line"/>
      <point x="213" y="277" type="line"/>
      <point x="214" y="278" type="line"/>
      <point x="408" y="517" type="line"/>
    </contour>
    <contour>
      <point x="242" y="517" type="move" name="top"/>
    </contour>
    <contour>
      <point x="169" y="0" type="move" name="bottom"/>
    </contour>
    <contour>
      <point x="371" y="0" type="move" name="bottomright"/>
    </contour>
  </outline>
</glyph>
<glyph name="y" format="1">
  <advance width="434"/>
  <unicode hex="0079"/>
  <outline>
    <contour>
      <point x="438" y="517" type="line"/>
      <point x="188" y="1" type="line"/>
      <point x="68" y="517" type="line"/>
      <point x="66" y="517" type="line"/>
      <point x="186" y="0" type="line"/>
      <point x="188" y="0" type="line"/>
      <point x="133" y="-112"/>
      <point x="104" y="-157"/>
      <point x="-2" y="-187" type="curve"/>
      <point x="-2" y="-189" type="line"/>
      <point x="106" y="-159"/>
      <point x="135" y="-112"/>
      <point x="190" y="0" type="curve" smooth="yes"/>
      <point x="440" y="517" type="line"/>
    </contour>
    <contour>
      <point x="253" y="517" type="move" name="top"/>
    </contour>
    <contour>
      <point x="156" y="-188" type="move" name="bottom"/>
    </contour>
  </outline>
</glyph>
<glyph name="z" format="1">
  <advance width="410"/>
  <unicode hex="007A"/>
  <outline>
    <contour>
      <point x="102" y="517" type="line"/>
      <point x="102" y="515" type="line"/>
      <point x="403" y="515" type="line"/>
      <point x="-1" y="2" type="line"/>
      <point x="-1" y="0" type="line"/>
      <point x="323" y="0" type="line"/>
      <point x="323" y="2" type="line"/>
      <point x="2" y="2" type="line"/>
      <point x="406" y="515" type="line"/>
      <point x="406" y="517" type="line"/>
    </contour>
    <contour>
      <point x="251" y="517" type="move" name="top"/>
    </contour>
    <contour>
      <point x="161" y="0" type="move" name="bottom"/>
    </contour>
  </outline>
</glyph>
<glyph name="braceleft" format="1">
  <advance width="326"/>
  <unicode hex="007B"/>
  <outline>
    <contour>
      <point x="259" y="808"/>
      <point x="224" y="782"/>
      <point x="215" y="714" type="curve"/>
      <point x="175" y="427" type="line"/>
      <point x="167" y="375"/>
      <point x="133" y="350"/>
      <point x="88" y="350" type="curve"/>
      <point x="87" y="348" type="line"/>
      <point x="132" y="348"/>
      <point x="160" y="323"/>
      <point x="152" y="271" type="curve"/>
      <point x="112" y="-16" type="line"/>
      <point x="103" y="-84"/>
      <point x="130" y="-110"/>
      <point x="179" y="-110" type="curve"/>
      <point x="179" y="-108" type="line"/>
      <point x="130" y="-108"/>
      <point x="105" y="-82"/>
      <point x="114" y="-15" type="curve"/>
      <point x="154" y="271" type="line"/>
      <point x="161" y="320"/>
      <point x="137" y="349"/>
      <point x="90" y="349" type="curve"/>
      <point x="138" y="349"/>
      <point x="170" y="378"/>
      <point x="177" y="427" type="curve"/>
      <point x="217" y="713" type="line"/>
      <point x="226" y="780"/>
      <point x="259" y="806"/>
      <point x="308" y="806" type="curve"/>
      <point x="308" y="808" type="line"/>
    </contour>
  </outline>
</glyph>
<glyph name="bar" format="1">
  <advance width="420"/>
  <unicode hex="007C"/>
  <outline>
    <contour>
      <point x="285" y="800" type="line"/>
      <point x="160" y="-97" type="line"/>
      <point x="162" y="-97" type="line"/>
      <point x="287" y="800" type="line"/>
    </contour>
  </outline>
</glyph>
<glyph name="braceright" format="1">
  <advance width="325"/>
  <unicode hex="007D"/>
  <outline>
    <contour>
      <point x="92" y="-110"/>
      <point x="127" y="-84"/>
      <point x="136" y="-16" type="curve"/>
      <point x="176" y="271" type="line"/>
      <point x="184" y="323"/>
      <point x="218" y="348"/>
      <point x="263" y="348" type="curve"/>
      <point x="264" y="350" type="line"/>
      <point x="219" y="350"/>
      <point x="191" y="375"/>
      <point x="199" y="427" type="curve"/>
      <point x="239" y="714" type="line"/>
      <point x="248" y="782"/>
      <point x="221" y="808"/>
      <point x="172" y="808" type="curve"/>
      <point x="172" y="806" type="line"/>
      <point x="221" y="806"/>
      <point x="246" y="780"/>
      <point x="237" y="713" type="curve"/>
      <point x="197" y="427" type="line"/>
      <point x="190" y="378"/>
      <point x="214" y="349"/>
      <point x="261" y="349" type="curve"/>
      <point x="213" y="349"/>
      <point x="181" y="320"/>
      <point x="174" y="271" type="curve"/>
      <point x="134" y="-15" type="line"/>
      <point x="125" y="-82"/>
      <point x="92" y="-108"/>
      <point x="43" y="-108" type="curve"/>
      <point x="43" y="-110" type="line"/>
    </contour>
  </outline>
</glyph>
<glyph name="asciitilde" format="1">
  <advance width="454"/>
  <unicode hex="007E"/>
  <outline>
    <contour>
      <point x="135" y="348"/>
      <point x="108" y="325"/>
      <point x="92" y="303" type="curve"/>
      <point x="94" y="302" type="line"/>
      <point x="112" y="325"/>
      <point x="136" y="346"/>
      <point x="169" y="346" type="curve"/>
      <point x="217" y="346"/>
      <point x="256" y="291"/>
      <point x="303" y="291" type="curve"/>
      <point x="337" y="291"/>
      <point x="364" y="314"/>
      <point x="380" y="336" type="curve"/>
      <point x="378" y="337" type="line"/>
      <point x="360" y="314"/>
      <point x="336" y="293"/>
      <point x="303" y="293" type="curve"/>
      <point x="257" y="293"/>
      <point x="218" y="348"/>
      <point x="169" y="348" type="curve"/>
    </contour>
  </outline>
</glyph>
<glyph name="exclamdown" format="1">
  <advance width="234"/>
  <unicode hex="00A1"/>
  <outline>
    <contour>
      <point x="117" y="254" type="line"/>
      <point x="54" y="-188" type="line"/>
      <point x="56" y="-188" type="line"/>
      <point x="119" y="254" type="line"/>
    </contour>
    <component base="period" xOffset="120" yOffset="428"/>
  </outline>
</glyph>
<glyph name="cent" format="1">
  <advance width="469"/>
  <unicode hex="00A2"/>
  <outline>
    <contour>
      <point x="333" y="672" type="line"/>
      <point x="313" y="526" type="line"/>
      <point x="315" y="526" type="line"/>
      <point x="335" y="672" type="line"/>
    </contour>
    <contour>
      <point x="214" y="-144" type="line"/>
      <point x="216" y="-144" type="line"/>
      <point x="235" y="-8" type="line"/>
      <point x="233" y="-8" type="line"/>
    </contour>
    <component base="c"/>
  </outline>
</glyph>
<glyph name="sterling" format="1">
  <advance width="492"/>
  <unicode hex="00A3"/>
  <outline>
    <contour>
      <point x="253" y="670"/>
      <point x="197" y="598"/>
      <point x="184" y="506" type="curve" smooth="yes"/>
      <point x="163" y="356" type="line"/>
      <point x="106" y="356" type="line"/>
      <point x="106" y="354" type="line"/>
      <point x="163" y="354" type="line"/>
      <point x="130" y="118" type="line" smooth="yes"/>
      <point x="121" y="51"/>
      <point x="92" y="23"/>
      <point x="34" y="2" type="curve"/>
      <point x="34" y="0" type="line"/>
      <point x="387" y="0" type="line"/>
      <point x="387" y="2" type="line"/>
      <point x="39" y="2" type="line"/>
      <point x="95" y="23"/>
      <point x="123" y="52"/>
      <point x="132" y="118" type="curve" smooth="yes"/>
      <point x="165" y="354" type="line"/>
      <point x="374" y="354" type="line"/>
      <point x="374" y="356" type="line"/>
      <point x="165" y="356" type="line"/>
      <point x="186" y="506" type="line" smooth="yes"/>
      <point x="199" y="597"/>
      <point x="255" y="668"/>
      <point x="352" y="668" type="curve" smooth="yes"/>
      <point x="410" y="668"/>
      <point x="448" y="646"/>
      <point x="474" y="608" type="curve"/>
      <point x="476" y="609" type="line"/>
      <point x="449" y="648"/>
      <point x="410" y="670"/>
      <point x="352" y="670" type="curve" smooth="yes"/>
    </contour>
  </outline>
</glyph>
<glyph name="brokenbar" format="1">
  <advance width="421"/>
  <unicode hex="00A6"/>
  <outline>
    <contour>
      <point x="210" y="262" type="line"/>
      <point x="161" y="-97" type="line"/>
      <point x="163" y="-97" type="line"/>
      <point x="212" y="262" type="line"/>
    </contour>
    <contour>
      <point x="286" y="800" type="line"/>
      <point x="235" y="443" type="line"/>
      <point x="237" y="443" type="line"/>
      <point x="288" y="800" type="line"/>
    </contour>
  </outline>
</glyph>
<glyph name="section" format="1">
  <advance width="531"/>
  <unicode hex="00A7"/>
  <outline>
    <contour>
      <point x="227" y="670"/>
      <point x="175" y="604"/>
      <point x="175" y="544" type="curve" smooth="yes"/>
      <point x="175" y="496"/>
      <point x="206" y="459"/>
      <point x="303" y="424" type="curve"/>
      <point x="390" y="392"/>
      <point x="424" y="355"/>
      <point x="424" y="297" type="curve" smooth="yes"/>
      <point x="424" y="242"/>
      <point x="400" y="198"/>
      <point x="317" y="155" type="curve"/>
      <point x="318" y="153" type="line"/>
      <point x="397" y="194"/>
      <point x="426" y="238"/>
      <point x="426" y="297" type="curve" smooth="yes"/>
      <point x="426" y="356"/>
      <point x="392" y="394"/>
      <point x="304" y="426" type="curve"/>
      <point x="208" y="461"/>
      <point x="177" y="497"/>
      <point x="177" y="544" type="curve" smooth="yes"/>
      <point x="177" y="603"/>
      <point x="227" y="668"/>
      <point x="329" y="668" type="curve"/>
      <point x="384" y="668"/>
      <point x="422" y="655"/>
      <point x="461" y="628" type="curve"/>
      <point x="462" y="630" type="line"/>
      <point x="422" y="657"/>
      <point x="384" y="670"/>
      <point x="329" y="670" type="curve"/>
    </contour>
    <contour>
      <point x="140" y="403"/>
      <point x="117" y="362"/>
      <point x="117" y="310" type="curve" smooth="yes"/>
      <point x="117" y="252"/>
      <point x="156" y="217"/>
      <point x="245" y="186" type="curve" smooth="yes"/>
      <point x="339" y="155"/>
      <point x="369" y="118"/>
      <point x="369" y="66" type="curve" smooth="yes"/>
      <point x="369" y="15"/>
      <point x="330" y="-57"/>
      <point x="219" y="-57" type="curve"/>
      <point x="161" y="-57"/>
      <point x="113" y="-44"/>
      <point x="77" y="-16" type="curve"/>
      <point x="76" y="-18" type="line"/>
      <point x="114" y="-46"/>
      <point x="161" y="-59"/>
      <point x="219" y="-59" type="curve"/>
      <point x="331" y="-59"/>
      <point x="371" y="14"/>
      <point x="371" y="66" type="curve" smooth="yes"/>
      <point x="371" y="118"/>
      <point x="342" y="156"/>
      <point x="247" y="187" type="curve" smooth="yes"/>
      <point x="158" y="218"/>
      <point x="119" y="253"/>
      <point x="119" y="310" type="curve" smooth="yes"/>
      <point x="119" y="361"/>
      <point x="140" y="400"/>
      <point x="236" y="455" type="curve"/>
      <point x="235" y="457" type="line"/>
    </contour>
  </outline>
</glyph>
<glyph name="copyright" format="1">
  <advance width="810"/>
  <unicode hex="00A9"/>
  <outline>
    <contour>
      <point x="251" y="711"/>
      <point x="138" y="595"/>
      <point x="138" y="435" type="curve"/>
      <point x="138" y="272"/>
      <point x="251" y="159"/>
      <point x="405" y="159" type="curve"/>
      <point x="559" y="159"/>
      <point x="672" y="275"/>
      <point x="672" y="435" type="curve"/>
      <point x="672" y="598"/>
      <point x="559" y="711"/>
      <point x="405" y="711" type="curve"/>
    </contour>
    <contour>
      <point x="351" y="602"/>
      <point x="277" y="554"/>
      <point x="277" y="437" type="curve"/>
      <point x="277" y="334"/>
      <point x="334" y="271"/>
      <point x="406" y="271" type="curve"/>
      <point x="446" y="271"/>
      <point x="473" y="285"/>
      <point x="491" y="301" type="curve"/>
      <point x="490" y="303" type="line"/>
      <point x="471" y="287"/>
      <point x="446" y="273"/>
      <point x="406" y="273" type="curve"/>
      <point x="334" y="273"/>
      <point x="279" y="334"/>
      <point x="279" y="437" type="curve"/>
      <point x="279" y="552"/>
      <point x="351" y="600"/>
      <point x="406" y="600" type="curve"/>
      <point x="440" y="600"/>
      <point x="462" y="588"/>
      <point x="479" y="574" type="curve"/>
      <point x="480" y="576" type="line"/>
      <point x="463" y="590"/>
      <point x="440" y="602"/>
      <point x="406" y="602" type="curve"/>
    </contour>
    <contour>
      <point x="559" y="709"/>
      <point x="670" y="598"/>
      <point x="670" y="435" type="curve"/>
      <point x="670" y="275"/>
      <point x="559" y="161"/>
      <point x="405" y="161" type="curve"/>
      <point x="251" y="161"/>
      <point x="140" y="272"/>
      <point x="140" y="435" type="curve"/>
      <point x="140" y="595"/>
      <point x="251" y="709"/>
      <point x="405" y="709" type="curve"/>
    </contour>
  </outline>
</glyph>
<glyph name="ordfeminine" format="1">
  <advance width="500"/>
  <unicode hex="00AA"/>
  <outline>
    <contour>
      <point x="267" y="680"/>
      <point x="228" y="672"/>
      <point x="183" y="655" type="curve"/>
      <point x="183" y="653" type="line"/>
      <point x="229" y="670"/>
      <point x="268" y="678"/>
      <point x="304" y="678" type="curve" smooth="yes"/>
      <point x="377" y="678"/>
      <point x="401" y="645"/>
      <point x="401" y="593" type="curve" smooth="yes"/>
      <point x="401" y="583"/>
      <point x="400" y="574"/>
      <point x="399" y="564" type="curve"/>
      <point x="392" y="513" type="line"/>
      <point x="293" y="513" type="line" smooth="yes"/>
      <point x="186" y="513"/>
      <point x="115" y="462"/>
      <point x="115" y="373" type="curve" smooth="yes"/>
      <point x="115" y="317"/>
      <point x="152" y="278"/>
      <point x="221" y="278" type="curve" smooth="yes"/>
      <point x="289" y="278"/>
      <point x="335" y="308"/>
      <point x="371" y="363" type="curve"/>
      <point x="366" y="328"/>
      <point x="359" y="290"/>
      <point x="403" y="278" type="curve"/>
      <point x="404" y="280" type="line"/>
      <point x="361" y="292"/>
      <point x="368" y="326"/>
      <point x="374" y="368" type="curve" smooth="yes"/>
      <point x="401" y="564" type="line"/>
      <point x="402" y="574"/>
      <point x="403" y="584"/>
      <point x="403" y="593" type="curve" smooth="yes"/>
      <point x="403" y="648"/>
      <point x="376" y="680"/>
      <point x="304" y="680" type="curve" smooth="yes"/>
    </contour>
    <contour>
      <point x="372" y="368" type="line"/>
      <point x="335" y="312"/>
      <point x="292" y="280"/>
      <point x="221" y="280" type="curve" smooth="yes"/>
      <point x="153" y="280"/>
      <point x="117" y="318"/>
      <point x="117" y="373" type="curve" smooth="yes"/>
      <point x="117" y="461"/>
      <point x="187" y="511"/>
      <point x="293" y="511" type="curve" smooth="yes"/>
      <point x="392" y="511" type="line"/>
    </contour>
    <component base="minus" xOffset="-38" yOffset="-330"/>
  </outline>
</glyph>
<glyph name="logicalnot" format="1">
  <advance width="488"/>
  <unicode hex="00AC"/>
  <outline>
    <contour>
      <point x="95" y="322" type="line"/>
      <point x="94" y="320" type="line"/>
      <point x="410" y="320" type="line"/>
      <point x="395" y="215" type="line"/>
      <point x="397" y="215" type="line"/>
      <point x="413" y="322" type="line"/>
    </contour>
  </outline>
</glyph>
<glyph name="macron" format="1">
  <advance width="250"/>
  <unicode hex="00AF"/>
  <outline>
    <contour>
      <point x="280" y="691" type="line"/>
      <point x="90" y="691" type="line"/>
      <point x="90" y="689" type="line"/>
      <point x="280" y="689" type="line"/>
    </contour>
  </outline>
</glyph>
<glyph name="degree" format="1">
  <advance width="521"/>
  <unicode hex="00B0"/>
  <outline>
    <contour>
      <point x="172" y="423"/>
      <point x="128" y="476"/>
      <point x="138" y="556" type="curve"/>
      <point x="149" y="632"/>
      <point x="208" y="688"/>
      <point x="280" y="688" type="curve"/>
      <point x="358" y="688"/>
      <point x="396" y="632"/>
      <point x="385" y="555" type="curve"/>
      <point x="375" y="476"/>
      <point x="321" y="423"/>
      <point x="243" y="423" type="curve"/>
    </contour>
    <contour>
      <point x="323" y="421"/>
      <point x="377" y="476"/>
      <point x="387" y="555" type="curve"/>
      <point x="398" y="632"/>
      <point x="360" y="690"/>
      <point x="280" y="690" type="curve"/>
      <point x="206" y="690"/>
      <point x="147" y="632"/>
      <point x="136" y="556" type="curve"/>
      <point x="126" y="476"/>
      <point x="170" y="421"/>
      <point x="243" y="421" type="curve"/>
    </contour>
  </outline>
</glyph>
<glyph name="acute" format="1">
  <advance width="228"/>
  <unicode hex="00B4"/>
  <outline>
    <contour>
      <point x="87" y="664" type="line"/>
      <point x="87" y="662" type="line"/>
      <point x="266" y="744" type="line"/>
      <point x="265" y="746" type="line"/>
    </contour>
  </outline>
</glyph>
<glyph name="paragraph" format="1">
  <advance width="683"/>
  <unicode hex="00B6"/>
  <outline>
    <contour>
      <point x="401" y="680" type="line"/>
      <point x="400" y="678" type="line"/>
      <point x="278" y="-190" type="line"/>
      <point x="280" y="-190" type="line"/>
      <point x="402" y="678" type="line"/>
      <point x="550" y="679" type="line"/>
      <point x="428" y="-190" type="line"/>
      <point x="430" y="-190" type="line"/>
      <point x="552" y="681" type="line"/>
    </contour>
    <contour>
      <point x="276" y="680"/>
      <point x="179" y="613"/>
      <point x="163" y="496" type="curve"/>
      <point x="150" y="399"/>
      <point x="194" y="312"/>
      <point x="350" y="312" type="curve"/>
      <point x="401" y="680" type="line"/>
    </contour>
  </outline>
</glyph>
<glyph name="ordmasculine" format="1">
  <advance width="500"/>
  <unicode hex="00BA"/>
  <outline>
    <contour>
      <point x="166" y="680"/>
      <point x="117" y="532"/>
      <point x="117" y="431" type="curve" smooth="yes"/>
      <point x="117" y="334"/>
      <point x="166" y="278"/>
      <point x="252" y="278" type="curve" smooth="yes"/>
      <point x="400" y="278"/>
      <point x="445" y="434"/>
      <point x="445" y="529" type="curve" smooth="yes"/>
      <point x="445" y="625"/>
      <point x="395" y="680"/>
      <point x="310" y="680" type="curve" smooth="yes"/>
    </contour>
    <contour>
      <point x="394" y="678"/>
      <point x="443" y="624"/>
      <point x="443" y="529" type="curve" smooth="yes"/>
      <point x="443" y="435"/>
      <point x="399" y="280"/>
      <point x="252" y="280" type="curve" smooth="yes"/>
      <point x="167" y="280"/>
      <point x="119" y="335"/>
      <point x="119" y="431" type="curve" smooth="yes"/>
      <point x="119" y="531"/>
      <point x="167" y="678"/>
      <point x="310" y="678" type="curve" smooth="yes"/>
    </contour>
    <component base="minus" xOffset="-36" yOffset="-330"/>
  </outline>
</glyph>
<glyph name="questiondown" format="1">
  <advance width="448"/>
  <unicode hex="00BF"/>
  <outline>
    <contour>
      <point x="217" y="-194"/>
      <point x="265" y="-168"/>
      <point x="320" y="-116" type="curve"/>
      <point x="318" y="-115" type="line"/>
      <point x="263" y="-167"/>
      <point x="216" y="-192"/>
      <point x="147" y="-192" type="curve"/>
      <point x="69" y="-192"/>
      <point x="29" y="-140"/>
      <point x="29" y="-85" type="curve"/>
      <point x="29" y="96"/>
      <point x="255" y="79"/>
      <point x="253" y="229" type="curve"/>
      <point x="253" y="248"/>
      <point x="249" y="268"/>
      <point x="243" y="287" type="curve"/>
      <point x="241" y="287" type="line"/>
      <point x="247" y="268"/>
      <point x="251" y="248"/>
      <point x="251" y="229" type="curve"/>
      <point x="253" y="80"/>
      <point x="27" y="97"/>
      <point x="27" y="-85" type="curve"/>
      <point x="27" y="-140"/>
      <point x="68" y="-194"/>
      <point x="147" y="-194" type="curve"/>
    </contour>
    <component base="period" xOffset="277" yOffset="497" xScale="-1" yScale="-1"/>
  </outline>
</glyph>
<glyph name="AE" format="1">
  <advance width="750"/>
  <unicode hex="00C6"/>
  <outline>
    <contour>
      <point x="343" y="680" type="line"/>
      <point x="-15" y="0" type="line"/>
      <point x="-13" y="0" type="line"/>
      <point x="344" y="678" type="line"/>
      <point x="427" y="0" type="line"/>
      <point x="664" y="0" type="line"/>
      <point x="664" y="2" type="line"/>
      <point x="429" y="2" type="line"/>
      <point x="346" y="678" type="line"/>
      <point x="704" y="678" type="line"/>
      <point x="704" y="680" type="line"/>
    </contour>
    <contour>
      <point x="95" y="207" type="line"/>
      <point x="94" y="205" type="line"/>
      <point x="402" y="205" type="line"/>
      <point x="403" y="207" type="line"/>
    </contour>
    <contour>
      <point x="384" y="362" type="line"/>
      <point x="384" y="360" type="line"/>
      <point x="650" y="360" type="line"/>
      <point x="650" y="362" type="line"/>
    </contour>
    <contour>
      <point x="516" y="680" type="move" name="top"/>
    </contour>
    <contour>
      <point x="339" y="0" type="move" name="bottom"/>
    </contour>
  </outline>
</glyph>
<glyph name="Eth" format="1">
  <advance width="605"/>
  <unicode hex="00D0"/>
  <outline>
    <contour>
      <point x="137" y="354" type="line"/>
      <point x="43" y="354" type="line"/>
      <point x="43" y="352" type="line"/>
      <point x="335" y="352" type="line"/>
      <point x="335" y="354" type="line"/>
    </contour>
    <component base="D" xOffset="-8"/>
  </outline>
</glyph>
<glyph name="multiply" format="1">
  <advance width="478"/>
  <unicode hex="00D7"/>
  <outline>
    <contour>
      <point x="246" y="309" type="line"/>
      <point x="132" y="444" type="line"/>
      <point x="130" y="443" type="line"/>
      <point x="244" y="308" type="line"/>
      <point x="93" y="172" type="line"/>
      <point x="95" y="171" type="line"/>
      <point x="246" y="306" type="line"/>
      <point x="359" y="171" type="line"/>
      <point x="361" y="172" type="line"/>
      <point x="248" y="308" type="line"/>
      <point x="398" y="443" type="line"/>
      <point x="396" y="444" type="line"/>
    </contour>
  </outline>
</glyph>
<glyph name="Thorn" format="1">
  <advance width="552"/>
  <unicode hex="00DE"/>
  <outline>
    <contour>
      <point x="171" y="550" type="line"/>
      <point x="172" y="548" type="line"/>
      <point x="292" y="548" type="line" smooth="yes"/>
      <point x="433" y="548"/>
      <point x="501" y="503"/>
      <point x="501" y="383" type="curve" smooth="yes"/>
      <point x="501" y="276"/>
      <point x="447" y="156"/>
      <point x="234" y="156" type="curve" smooth="yes"/>
      <point x="116" y="156" type="line"/>
      <point x="116" y="154" type="line"/>
      <point x="234" y="154" type="line" smooth="yes"/>
      <point x="445" y="154"/>
      <point x="503" y="272"/>
      <point x="503" y="383" type="curve" smooth="yes"/>
      <point x="503" y="505"/>
      <point x="434" y="550"/>
      <point x="293" y="550" type="curve" smooth="yes"/>
    </contour>
    <contour>
      <point x="189" y="680" type="line"/>
      <point x="94" y="0" type="line"/>
      <point x="96" y="0" type="line"/>
      <point x="191" y="680" type="line"/>
    </contour>
    <contour>
      <point x="335" y="680" type="move" name="top"/>
    </contour>
    <contour>
      <point x="240" y="0" type="move" name="bottom"/>
    </contour>
  </outline>
</glyph>
<glyph name="germandbls" format="1">
  <advance width="570"/>
  <unicode hex="00DF"/>
  <outline>
    <contour>
      <point x="331" y="495"/>
      <point x="479" y="500"/>
      <point x="479" y="631" type="curve" smooth="yes"/>
      <point x="479" y="690"/>
      <point x="435" y="733"/>
      <point x="359" y="733" type="curve" smooth="yes"/>
      <point x="261" y="733"/>
      <point x="182" y="663"/>
      <point x="165" y="541" type="curve" smooth="yes"/>
      <point x="89" y="1" type="line" smooth="yes"/>
      <point x="72" y="-117"/>
      <point x="39" y="-153"/>
      <point x="-35" y="-190" type="curve"/>
      <point x="-34" y="-191" type="line"/>
      <point x="41" y="-154"/>
      <point x="74" y="-118"/>
      <point x="91" y="0" type="curve" smooth="yes"/>
      <point x="167" y="541" type="line" smooth="yes"/>
      <point x="183" y="662"/>
      <point x="262" y="731"/>
      <point x="359" y="731" type="curve" smooth="yes"/>
      <point x="435" y="731"/>
      <point x="477" y="688"/>
      <point x="477" y="631" type="curve" smooth="yes"/>
      <point x="477" y="501"/>
      <point x="329" y="496"/>
      <point x="329" y="411" type="curve" smooth="yes"/>
      <point x="329" y="329"/>
      <point x="489" y="309"/>
      <point x="489" y="150" type="curve" smooth="yes"/>
      <point x="489" y="89"/>
      <point x="449" y="-8"/>
      <point x="333" y="-8" type="curve" smooth="yes"/>
      <point x="290" y="-8"/>
      <point x="248" y="6"/>
      <point x="227" y="20" type="curve"/>
      <point x="226" y="18" type="line"/>
      <point x="246" y="5"/>
      <point x="289" y="-10"/>
      <point x="333" y="-10" type="curve" smooth="yes"/>
      <point x="450" y="-10"/>
      <point x="491" y="88"/>
      <point x="491" y="150" type="curve" smooth="yes"/>
      <point x="492" y="310"/>
      <point x="331" y="330"/>
      <point x="331" y="411" type="curve" smooth="yes"/>
    </contour>
  </outline>
</glyph>
<glyph name="ae" format="1">
  <advance width="837"/>
  <unicode hex="00E6"/>
  <outline>
    <contour>
      <point x="250" y="527"/>
      <point x="202" y="516"/>
      <point x="144" y="493" type="curve"/>
      <point x="144" y="491" type="line"/>
      <point x="203" y="514"/>
      <point x="250" y="525"/>
      <point x="296" y="525" type="curve" smooth="yes"/>
      <point x="365" y="525"/>
      <point x="431" y="482"/>
      <point x="432" y="378" type="curve"/>
      <point x="419" y="348"/>
      <point x="413" y="328"/>
      <point x="405" y="295" type="curve"/>
      <point x="281" y="295" type="line" smooth="yes"/>
      <point x="120" y="295"/>
      <point x="57" y="214"/>
      <point x="57" y="119" type="curve" smooth="yes"/>
      <point x="57" y="45"/>
      <point x="101" y="-9"/>
      <point x="188" y="-9" type="curve" smooth="yes"/>
      <point x="274" y="-9"/>
      <point x="332" y="32"/>
      <point x="400" y="123" type="curve"/>
      <point x="419" y="39"/>
      <point x="472" y="-9"/>
      <point x="556" y="-9" type="curve" smooth="yes"/>
      <point x="621" y="-9"/>
      <point x="666" y="12"/>
      <point x="718" y="50" type="curve"/>
      <point x="717" y="52" type="line"/>
      <point x="665" y="14"/>
      <point x="621" y="-7"/>
      <point x="556" y="-7" type="curve" smooth="yes"/>
      <point x="414" y="-7"/>
      <point x="389" y="132"/>
      <point x="395" y="218" type="curve"/>
      <point x="665" y="231"/>
      <point x="782" y="306"/>
      <point x="782" y="414" type="curve" smooth="yes"/>
      <point x="782" y="488"/>
      <point x="717" y="527"/>
      <point x="642" y="527" type="curve" smooth="yes"/>
      <point x="498" y="527"/>
      <point x="447" y="409"/>
      <point x="434" y="382" type="curve"/>
      <point x="432" y="484"/>
      <point x="364" y="527"/>
      <point x="296" y="527" type="curve" smooth="yes"/>
    </contour>
    <contour>
      <point x="388" y="219"/>
      <point x="389" y="170"/>
      <point x="399" y="125" type="curve"/>
      <point x="332" y="37"/>
      <point x="276" y="-7"/>
      <point x="188" y="-7" type="curve" smooth="yes"/>
      <point x="102" y="-7"/>
      <point x="59" y="46"/>
      <point x="59" y="119" type="curve" smooth="yes"/>
      <point x="59" y="213"/>
      <point x="121" y="293"/>
      <point x="281" y="293" type="curve" smooth="yes"/>
      <point x="404" y="293" type="line"/>
    </contour>
    <contour>
      <point x="716" y="525"/>
      <point x="780" y="487"/>
      <point x="780" y="414" type="curve" smooth="yes"/>
      <point x="780" y="308"/>
      <point x="665" y="233"/>
      <point x="395" y="220" type="curve"/>
      <point x="402" y="301"/>
      <point x="443" y="525"/>
      <point x="642" y="525" type="curve" smooth="yes"/>
    </contour>
    <contour>
      <point x="457" y="517" type="move" name="top"/>
    </contour>
    <contour>
      <point x="380" y="0" type="move" name="bottom"/>
    </contour>
  </outline>
</glyph>
<glyph name="eth" format="1">
  <advance width="539"/>
  <unicode hex="00F0"/>
  <outline>
    <contour>
      <point x="427" y="736" type="line"/>
      <point x="425" y="737" type="line"/>
      <point x="353" y="671" type="line"/>
      <point x="314" y="701"/>
      <point x="266" y="722"/>
      <point x="218" y="734" type="curve"/>
      <point x="217" y="732" type="line"/>
      <point x="265" y="720"/>
      <point x="313" y="699"/>
      <point x="351" y="670" type="curve"/>
      <point x="250" y="577" type="line"/>
      <point x="252" y="576" type="line"/>
      <point x="353" y="669" type="line"/>
      <point x="465" y="583"/>
      <point x="475" y="451"/>
      <point x="463" y="337" type="curve"/>
      <point x="426" y="408"/>
      <point x="370" y="457"/>
      <point x="287" y="457" type="curve" smooth="yes"/>
      <point x="129" y="457"/>
      <point x="71" y="279"/>
      <point x="71" y="174" type="curve" smooth="yes"/>
      <point x="71" y="63"/>
      <point x="126" y="-9"/>
      <point x="226" y="-9" type="curve" smooth="yes"/>
      <point x="350" y="-9"/>
      <point x="431" y="93"/>
      <point x="463" y="322" type="curve" smooth="yes"/>
      <point x="467" y="353"/>
      <point x="469" y="382"/>
      <point x="469" y="409" type="curve" smooth="yes"/>
      <point x="469" y="527"/>
      <point x="430" y="612"/>
      <point x="355" y="670" type="curve"/>
    </contour>
    <contour>
      <point x="127" y="-7"/>
      <point x="73" y="64"/>
      <point x="73" y="174" type="curve" smooth="yes"/>
      <point x="73" y="278"/>
      <point x="130" y="455"/>
      <point x="287" y="455" type="curve" smooth="yes"/>
      <point x="371" y="455"/>
      <point x="425" y="406"/>
      <point x="462" y="334" type="curve"/>
      <point x="461" y="322"/>
      <point x="458" y="302"/>
      <point x="453" y="275" type="curve" smooth="yes"/>
      <point x="419" y="93"/>
      <point x="348" y="-7"/>
      <point x="226" y="-7" type="curve" smooth="yes"/>
    </contour>
    <contour>
      <point x="354" y="727" type="move" name="top"/>
    </contour>
    <contour>
      <point x="226" y="0" type="move" name="bottom"/>
    </contour>
  </outline>
</glyph>
<glyph name="thorn" format="1">
  <advance width="565"/>
  <unicode hex="00FE"/>
  <outline>
    <contour>
      <point x="258" y="527"/>
      <point x="199" y="482"/>
      <point x="150" y="422" type="curve"/>
      <point x="193" y="730" type="line"/>
      <point x="191" y="730" type="line"/>
      <point x="62" y="-190" type="line"/>
      <point x="64" y="-189" type="line"/>
      <point x="94" y="26" type="line"/>
      <point x="149" y="2"/>
      <point x="189" y="-9"/>
      <point x="247" y="-9" type="curve" smooth="yes"/>
      <point x="423" y="-9"/>
      <point x="487" y="207"/>
      <point x="487" y="339" type="curve" smooth="yes"/>
      <point x="487" y="459"/>
      <point x="437" y="527"/>
      <point x="341" y="527" type="curve" smooth="yes"/>
    </contour>
    <contour>
      <point x="190" y="-7"/>
      <point x="151" y="3"/>
      <point x="94" y="28" type="curve"/>
      <point x="149" y="420" type="line"/>
      <point x="204" y="484"/>
      <point x="260" y="525"/>
      <point x="341" y="525" type="curve" smooth="yes"/>
      <point x="436" y="525"/>
      <point x="485" y="458"/>
      <point x="485" y="339" type="curve" smooth="yes"/>
      <point x="485" y="208"/>
      <point x="422" y="-7"/>
      <point x="247" y="-7" type="curve" smooth="yes"/>
    </contour>
    <contour>
      <point x="348" y="727" type="move" name="top"/>
    </contour>
  </outline>
</glyph>
<glyph name="dcroat" format="1">
  <advance width="572"/>
  <unicode hex="0111"/>
  <outline>
    <contour>
      <point x="317" y="640" type="line"/>
      <point x="317" y="638" type="line"/>
      <point x="499" y="638" type="line"/>
      <point x="574" y="638" type="line"/>
      <point x="574" y="640" type="line"/>
    </contour>
    <component base="d"/>
  </outline>
</glyph>
<glyph name="Hbar" format="1">
  <advance width="668"/>
  <unicode hex="0126"/>
  <outline>
    <contour>
      <point x="567" y="528" type="line"/>
      <point x="122" y="528" type="line"/>
      <point x="122" y="526" type="line"/>
      <point x="175" y="526" type="line"/>
      <point x="620" y="526" type="line"/>
      <point x="620" y="528" type="line"/>
    </contour>
    <component base="H" xOffset="7"/>
  </outline>
</glyph>
<glyph name="hbar" format="1">
  <advance width="580"/>
  <unicode hex="0127"/>
  <outline>
    <contour>
      <point x="105" y="640" type="line"/>
      <point x="105" y="638" type="line"/>
      <point x="179" y="638" type="line"/>
      <point x="373" y="638" type="line"/>
      <point x="373" y="640" type="line"/>
    </contour>
    <component base="h"/>
  </outline>
</glyph>
<glyph name="dotlessi" format="1">
  <advance width="252"/>
  <unicode hex="0131"/>
  <outline>
    <contour>
      <point x="161" y="517" type="line"/>
      <point x="89" y="0" type="line"/>
      <point x="91" y="0" type="line"/>
      <point x="163" y="517" type="line"/>
    </contour>
    <contour>
      <point x="101" y="0" type="move" name="ogonek"/>
    </contour>
    <contour>
      <point x="90" y="0" type="move" name="bottom"/>
    </contour>
    <contour>
      <point x="162" y="517" type="move" name="top"/>
    </contour>
  </outline>
</glyph>
<glyph name="kgreenlandic" format="1">
  <advance width="446"/>
  <unicode hex="0138"/>
  <outline>
    <contour>
      <point x="427" y="517" type="line"/>
      <point x="134" y="273" type="line"/>
      <point x="382" y="0" type="line"/>
      <point x="385" y="0" type="line"/>
      <point x="137" y="273" type="line"/>
      <point x="430" y="517" type="line"/>
    </contour>
    <contour>
      <point x="161" y="517" type="line"/>
      <point x="89" y="0" type="line"/>
      <point x="91" y="0" type="line"/>
      <point x="163" y="517" type="line"/>
    </contour>
    <contour>
      <point x="259" y="517" type="move" name="top"/>
    </contour>
    <contour>
      <point x="187" y="0" type="move" name="bottom"/>
    </contour>
  </outline>
</glyph>
<glyph name="lslash" format="1">
  <advance width="275"/>
  <unicode hex="0142"/>
  <outline>
    <contour>
      <point x="61" y="329" type="line"/>
      <point x="62" y="327" type="line"/>
      <point x="260" y="442" type="line"/>
      <point x="259" y="444" type="line"/>
    </contour>
    <component base="l"/>
  </outline>
</glyph>
<glyph name="napostrophe" format="1">
  <advance width="580"/>
  <unicode hex="0149"/>
  <outline>
    <contour>
      <point x="78" y="733"/>
      <point x="76" y="731"/>
      <point x="76" y="728" type="curve" smooth="yes"/>
      <point x="76" y="725"/>
      <point x="78" y="723"/>
      <point x="81" y="723" type="curve"/>
      <point x="41" y="601" type="line"/>
      <point x="42" y="601" type="line"/>
      <point x="83" y="717" type="line" smooth="yes"/>
      <point x="85" y="722"/>
      <point x="86" y="726"/>
      <point x="86" y="728" type="curve" smooth="yes"/>
      <point x="86" y="731"/>
      <point x="84" y="733"/>
      <point x="81" y="733" type="curve" smooth="yes"/>
    </contour>
    <component base="n"/>
  </outline>
</glyph>
<glyph name="eng" format="1">
  <advance width="580"/>
  <unicode hex="014B"/>
  <outline>
    <component base="n"/>
    <component base="hookHELPER" xOffset="254"/>
    <contour>
      <point x="243" y="-188" type="move" name="bottom"/>
    </contour>
  </outline>
</glyph>
<glyph name="OE" format="1">
  <advance width="838"/>
  <unicode hex="0152"/>
  <outline>
    <contour>
      <point x="170" y="690"/>
      <point x="89" y="418"/>
      <point x="89" y="247" type="curve" smooth="yes"/>
      <point x="89" y="84"/>
      <point x="162" y="-9"/>
      <point x="287" y="-9" type="curve" smooth="yes"/>
      <point x="316" y="-9"/>
      <point x="339" y="-5"/>
      <point x="360" y="1" type="curve"/>
      <point x="537" y="52"/>
      <point x="592" y="297"/>
      <point x="592" y="438" type="curve" smooth="yes"/>
      <point x="592" y="562"/>
      <point x="546" y="650"/>
      <point x="457" y="679" type="curve"/>
      <point x="440" y="685"/>
      <point x="413" y="690"/>
      <point x="384" y="690" type="curve" smooth="yes"/>
    </contour>
    <contour>
      <point x="361" y="2" type="line"/>
      <point x="356" y="0" type="line"/>
      <point x="752" y="0" type="line"/>
      <point x="752" y="2" type="line"/>
    </contour>
    <contour>
      <point x="587" y="362" type="line"/>
      <point x="587" y="360" type="line"/>
      <point x="750" y="360" type="line"/>
      <point x="750" y="362" type="line"/>
    </contour>
    <contour>
      <point x="453" y="680" type="line"/>
      <point x="458" y="678" type="line"/>
      <point x="837" y="678" type="line"/>
      <point x="837" y="680" type="line"/>
    </contour>
    <contour>
      <point x="516" y="688"/>
      <point x="590" y="594"/>
      <point x="590" y="438" type="curve" smooth="yes"/>
      <point x="590" y="287"/>
      <point x="526" y="-7"/>
      <point x="287" y="-7" type="curve" smooth="yes"/>
      <point x="163" y="-7"/>
      <point x="91" y="86"/>
      <point x="91" y="248" type="curve" smooth="yes"/>
      <point x="91" y="412"/>
      <point x="170" y="688"/>
      <point x="384" y="688" type="curve" smooth="yes"/>
    </contour>
  </outline>
</glyph>
<glyph name="oe" format="1">
  <advance width="917"/>
  <unicode hex="0153"/>
  <outline>
    <contour>
      <point x="136" y="527"/>
      <point x="75" y="325"/>
      <point x="75" y="192" type="curve" smooth="yes"/>
      <point x="75" y="65"/>
      <point x="136" y="-9"/>
      <point x="242" y="-9" type="curve" smooth="yes"/>
      <point x="426" y="-9"/>
      <point x="484" y="198"/>
      <point x="484" y="328" type="curve" smooth="yes"/>
      <point x="484" y="455"/>
      <point x="423" y="527"/>
      <point x="318" y="527" type="curve" smooth="yes"/>
    </contour>
    <contour>
      <point x="422" y="525"/>
      <point x="482" y="454"/>
      <point x="482" y="328" type="curve" smooth="yes"/>
      <point x="482" y="199"/>
      <point x="425" y="-7"/>
      <point x="242" y="-7" type="curve" smooth="yes"/>
      <point x="137" y="-7"/>
      <point x="77" y="66"/>
      <point x="77" y="192" type="curve" smooth="yes"/>
      <point x="77" y="324"/>
      <point x="137" y="525"/>
      <point x="318" y="525" type="curve" smooth="yes"/>
    </contour>
    <contour>
      <point x="530" y="527"/>
      <point x="472" y="310"/>
      <point x="472" y="190" type="curve"/>
      <point x="472" y="61"/>
      <point x="534" y="-9"/>
      <point x="636" y="-9" type="curve"/>
      <point x="701" y="-9"/>
      <point x="746" y="12"/>
      <point x="798" y="50" type="curve"/>
      <point x="797" y="52" type="line"/>
      <point x="745" y="14"/>
      <point x="701" y="-7"/>
      <point x="636" y="-7" type="curve"/>
      <point x="535" y="-7"/>
      <point x="474" y="62"/>
      <point x="474" y="190" type="curve"/>
      <point x="474" y="310"/>
      <point x="532" y="525"/>
      <point x="722" y="525" type="curve"/>
      <point x="796" y="525"/>
      <point x="860" y="487"/>
      <point x="860" y="414" type="curve"/>
      <point x="860" y="308"/>
      <point x="745" y="233"/>
      <point x="474" y="220" type="curve"/>
      <point x="474" y="218" type="line"/>
      <point x="745" y="231"/>
      <point x="862" y="306"/>
      <point x="862" y="414" type="curve"/>
      <point x="862" y="488"/>
      <point x="797" y="527"/>
      <point x="722" y="527" type="curve"/>
    </contour>
    <contour>
      <point x="499" y="517" type="move" name="top"/>
    </contour>
    <contour>
      <point x="451" y="0" type="move" name="bottom"/>
    </contour>
  </outline>
</glyph>
<glyph name="Tbar" format="1">
  <advance width="455"/>
  <unicode hex="0166"/>
  <outline>
    <contour>
      <point x="511" y="678" type="line"/>
      <point x="511" y="680" type="line"/>
      <point x="79" y="680" type="line"/>
      <point x="79" y="678" type="line"/>
      <point x="294" y="678" type="line"/>
      <point x="252" y="376" type="line"/>
      <point x="129" y="376" type="line"/>
      <point x="129" y="374" type="line"/>
      <point x="252" y="374" type="line"/>
      <point x="199" y="0" type="line"/>
      <point x="201" y="0" type="line"/>
      <point x="254" y="374" type="line"/>
      <point x="377" y="374" type="line"/>
      <point x="377" y="376" type="line"/>
      <point x="254" y="376" type="line"/>
      <point x="296" y="678" type="line"/>
    </contour>
  </outline>
</glyph>
<glyph name="tbar" format="1">
  <advance width="322"/>
  <unicode hex="0167"/>
  <outline>
    <contour>
      <point x="129" y="335" type="line"/>
      <point x="42" y="335" type="line"/>
      <point x="42" y="333" type="line"/>
      <point x="277" y="333" type="line"/>
      <point x="277" y="335" type="line"/>
    </contour>
    <component base="t"/>
  </outline>
</glyph>
<glyph name="longs" format="1">
  <advance width="299"/>
  <unicode hex="017F"/>
  <outline>
    <contour>
      <point x="240" y="733"/>
      <point x="189" y="694"/>
      <point x="178" y="618" type="curve" smooth="yes"/>
      <point x="91" y="0" type="line"/>
      <point x="93" y="0" type="line"/>
      <point x="180" y="618" type="line" smooth="yes"/>
      <point x="191" y="693"/>
      <point x="241" y="731"/>
      <point x="305" y="731" type="curve" smooth="yes"/>
      <point x="349" y="731"/>
      <point x="382" y="718"/>
      <point x="413" y="694" type="curve"/>
      <point x="415" y="695" type="line"/>
      <point x="383" y="720"/>
      <point x="349" y="733"/>
      <point x="305" y="733" type="curve" smooth="yes"/>
    </contour>
    <contour>
      <point x="71" y="517" type="line"/>
      <point x="71" y="515" type="line"/>
      <point x="165" y="515" type="line"/>
      <point x="165" y="517" type="line"/>
    </contour>
  </outline>
</glyph>
<glyph name="uni0180" format="1">
  <advance width="562"/>
  <unicode hex="0180"/>
  <outline>
    <contour>
      <point x="105" y="640" type="line"/>
      <point x="105" y="638" type="line"/>
      <point x="179" y="638" type="line"/>
      <point x="373" y="638" type="line"/>
      <point x="373" y="640" type="line"/>
    </contour>
    <component base="b"/>
  </outline>
</glyph>
<glyph name="uni0183" format="1">
  <advance width="563"/>
  <unicode hex="0183"/>
  <outline>
    <contour>
      <point x="434" y="725" type="line"/>
      <point x="434" y="727" type="line"/>
      <point x="192" y="727" type="line"/>
      <point x="193" y="725" type="line"/>
    </contour>
    <contour>
      <point x="191" y="727" type="line"/>
      <point x="95" y="27" type="line"/>
      <point x="151" y="2"/>
      <point x="191" y="-9"/>
      <point x="252" y="-9" type="curve" smooth="yes"/>
      <point x="426" y="-9"/>
      <point x="490" y="207"/>
      <point x="490" y="339" type="curve" smooth="yes"/>
      <point x="490" y="459"/>
      <point x="440" y="527"/>
      <point x="344" y="527" type="curve" smooth="yes"/>
      <point x="260" y="527"/>
      <point x="201" y="481"/>
      <point x="151" y="420" type="curve"/>
      <point x="193" y="727" type="line"/>
    </contour>
    <contour>
      <point x="439" y="525"/>
      <point x="488" y="458"/>
      <point x="488" y="339" type="curve" smooth="yes"/>
      <point x="488" y="208"/>
      <point x="425" y="-7"/>
      <point x="252" y="-7" type="curve" smooth="yes"/>
      <point x="193" y="-7"/>
      <point x="154" y="3"/>
      <point x="97" y="28" type="curve"/>
      <point x="151" y="418" type="line"/>
      <point x="206" y="483"/>
      <point x="262" y="525"/>
      <point x="344" y="525" type="curve" smooth="yes"/>
    </contour>
  </outline>
</glyph>
<glyph name="uni0184" format="1">
  <advance width="549"/>
  <unicode hex="0184"/>
  <outline>
    <contour>
      <point x="244" y="0" type="line" smooth="yes"/>
      <point x="428" y="0"/>
      <point x="485" y="137"/>
      <point x="485" y="240" type="curve" smooth="yes"/>
      <point x="485" y="344"/>
      <point x="418" y="399"/>
      <point x="295" y="399" type="curve" smooth="yes"/>
      <point x="151" y="399" type="line"/>
      <point x="151" y="397" type="line"/>
      <point x="295" y="397" type="line" smooth="yes"/>
      <point x="417" y="397"/>
      <point x="483" y="342"/>
      <point x="483" y="240" type="curve" smooth="yes"/>
      <point x="483" y="146"/>
      <point x="432" y="2"/>
      <point x="244" y="2" type="curve" smooth="yes"/>
      <point x="96" y="2" type="line"/>
      <point x="191" y="680" type="line"/>
      <point x="190" y="680" type="line"/>
      <point x="182" y="628" type="line"/>
      <point x="94" y="0" type="line"/>
    </contour>
    <contour>
      <point x="190" y="680" type="line"/>
      <point x="184" y="659"/>
      <point x="178" y="647"/>
      <point x="168" y="633" type="curve"/>
      <point x="182" y="628" type="line"/>
    </contour>
  </outline>
</glyph>
<glyph name="uni0185" format="1">
  <advance width="492"/>
  <unicode hex="0185"/>
  <outline>
    <contour>
      <point x="162" y="517" type="line"/>
      <point x="156" y="502"/>
      <point x="150" y="490"/>
      <point x="141" y="480" type="curve"/>
      <point x="155" y="475" type="line"/>
    </contour>
    <contour>
      <point x="136" y="328" type="line"/>
      <point x="163" y="517" type="line"/>
      <point x="162" y="517" type="line"/>
      <point x="155" y="475" type="line"/>
      <point x="91" y="15" type="line"/>
      <point x="136" y="-2"/>
      <point x="177" y="-10"/>
      <point x="221" y="-9" type="curve" smooth="yes"/>
      <point x="379" y="-5"/>
      <point x="427" y="104"/>
      <point x="427" y="194" type="curve" smooth="yes"/>
      <point x="427" y="273"/>
      <point x="380" y="328"/>
      <point x="260" y="328" type="curve" smooth="yes"/>
    </contour>
    <contour>
      <point x="178" y="-8"/>
      <point x="136" y="0"/>
      <point x="93" y="16" type="curve"/>
      <point x="136" y="326" type="line"/>
      <point x="260" y="326" type="line" smooth="yes"/>
      <point x="379" y="326"/>
      <point x="425" y="272"/>
      <point x="425" y="194" type="curve" smooth="yes"/>
      <point x="425" y="105"/>
      <point x="378" y="-3"/>
      <point x="221" y="-7" type="curve" smooth="yes"/>
    </contour>
  </outline>
</glyph>
<glyph name="uni0186" format="1">
  <advance width="529"/>
  <unicode hex="0186"/>
  <outline>
    <contour>
      <point x="183" y="690"/>
      <point x="137" y="664"/>
      <point x="87" y="633" type="curve"/>
      <point x="88" y="631" type="line"/>
      <point x="137" y="662"/>
      <point x="184" y="688"/>
      <point x="262" y="688" type="curve" smooth="yes"/>
      <point x="384" y="688"/>
      <point x="460" y="606"/>
      <point x="460" y="437" type="curve" smooth="yes"/>
      <point x="460" y="214"/>
      <point x="357" y="-7"/>
      <point x="160" y="-7" type="curve" smooth="yes"/>
      <point x="75" y="-7"/>
      <point x="31" y="22"/>
      <point x="-2" y="52" type="curve"/>
      <point x="-3" y="50" type="line"/>
      <point x="30" y="20"/>
      <point x="74" y="-9"/>
      <point x="160" y="-9" type="curve" smooth="yes"/>
      <point x="358" y="-9"/>
      <point x="462" y="212"/>
      <point x="462" y="437" type="curve" smooth="yes"/>
      <point x="462" y="607"/>
      <point x="385" y="690"/>
      <point x="262" y="690" type="curve" smooth="yes"/>
    </contour>
    <contour>
      <point x="274" y="680" type="move" name="top"/>
    </contour>
    <contour>
      <point x="179" y="0" type="move" name="bottom"/>
    </contour>
  </outline>
</glyph>
<glyph name="uni0187" format="1">
  <advance width="529"/>
  <unicode hex="0187"/>
  <outline>
    <contour>
      <point x="547" y="633" type="line"/>
      <point x="558" y="708" type="line" smooth="yes"/>
      <point x="567" y="769"/>
      <point x="604" y="801"/>
      <point x="653" y="801" type="curve" smooth="yes"/>
      <point x="690" y="801"/>
      <point x="711" y="789"/>
      <point x="727" y="773" type="curve"/>
      <point x="728" y="775" type="line"/>
      <point x="713" y="790"/>
      <point x="691" y="803"/>
      <point x="653" y="803" type="curve" smooth="yes"/>
      <point x="603" y="803"/>
      <point x="565" y="770"/>
      <point x="556" y="708" type="curve" smooth="yes"/>
      <point x="545" y="633" type="line"/>
    </contour>
    <contour>
      <point x="166" y="690"/>
      <point x="91" y="429"/>
      <point x="91" y="253" type="curve" smooth="yes"/>
      <point x="91" y="83"/>
      <point x="173" y="-9"/>
      <point x="305" y="-9" type="curve" smooth="yes"/>
      <point x="387" y="-9"/>
      <point x="439" y="23"/>
      <point x="475" y="50" type="curve"/>
      <point x="474" y="52" type="line"/>
      <point x="438" y="25"/>
      <point x="386" y="-7"/>
      <point x="305" y="-7" type="curve" smooth="yes"/>
      <point x="175" y="-7"/>
      <point x="93" y="84"/>
      <point x="93" y="253" type="curve" smooth="yes"/>
      <point x="93" y="424"/>
      <point x="166" y="688"/>
      <point x="403" y="688" type="curve" smooth="yes"/>
      <point x="472" y="688"/>
      <point x="515" y="661"/>
      <point x="546" y="631" type="curve"/>
      <point x="547" y="633" type="line"/>
      <point x="547" y="633"/>
      <point x="547" y="632"/>
      <point x="546" y="633" type="curve" smooth="yes"/>
      <point x="517" y="662"/>
      <point x="473" y="690"/>
      <point x="403" y="690" type="curve" smooth="yes"/>
    </contour>
  </outline>
</glyph>
<glyph name="uni0188" format="1">
  <advance width="469"/>
  <unicode hex="0188"/>
  <outline>
    <contour>
      <point x="160" y="527"/>
      <point x="76" y="364"/>
      <point x="76" y="194" type="curve" smooth="yes"/>
      <point x="76" y="62"/>
      <point x="143" y="-9"/>
      <point x="243" y="-9" type="curve" smooth="yes"/>
      <point x="304" y="-9"/>
      <point x="346" y="13"/>
      <point x="384" y="44" type="curve"/>
      <point x="383" y="45" type="line"/>
      <point x="344" y="14"/>
      <point x="302" y="-7"/>
      <point x="243" y="-7" type="curve" smooth="yes"/>
      <point x="144" y="-7"/>
      <point x="78" y="63"/>
      <point x="78" y="194" type="curve" smooth="yes"/>
      <point x="78" y="363"/>
      <point x="161" y="525"/>
      <point x="319" y="525" type="curve" smooth="yes"/>
      <point x="370" y="525"/>
      <point x="408" y="508"/>
      <point x="439" y="476" type="curve"/>
      <point x="441" y="477" type="line"/>
      <point x="441" y="477"/>
      <point x="440" y="478"/>
      <point x="440" y="477" type="curve"/>
      <point x="411" y="509"/>
      <point x="371" y="527"/>
      <point x="319" y="527" type="curve" smooth="yes"/>
    </contour>
    <contour>
      <point x="463" y="638" type="line" smooth="yes"/>
      <point x="471" y="699"/>
      <point x="510" y="731"/>
      <point x="559" y="731" type="curve" smooth="yes"/>
      <point x="596" y="731"/>
      <point x="615" y="719"/>
      <point x="633" y="703" type="curve"/>
      <point x="634" y="705" type="line"/>
      <point x="617" y="720"/>
      <point x="597" y="733"/>
      <point x="559" y="733" type="curve" smooth="yes"/>
      <point x="509" y="733"/>
      <point x="469" y="700"/>
      <point x="461" y="638" type="curve" smooth="yes"/>
      <point x="439" y="477" type="line"/>
      <point x="441" y="477" type="line"/>
    </contour>
  </outline>
</glyph>
<glyph name="uni018B" format="1">
  <advance width="564"/>
  <unicode hex="018B"/>
  <outline>
    <contour>
      <point x="397" y="2" type="line"/>
      <point x="243" y="2" type="line" smooth="yes"/>
      <point x="132" y="2"/>
      <point x="66" y="61"/>
      <point x="66" y="163" type="curve" smooth="yes"/>
      <point x="66" y="304"/>
      <point x="160" y="397"/>
      <point x="315" y="397" type="curve" smooth="yes"/>
      <point x="453" y="397" type="line"/>
      <point x="453" y="399" type="line"/>
      <point x="315" y="399" type="line" smooth="yes"/>
      <point x="160" y="399"/>
      <point x="64" y="306"/>
      <point x="64" y="163" type="curve" smooth="yes"/>
      <point x="64" y="60"/>
      <point x="131" y="0"/>
      <point x="242" y="0" type="curve" smooth="yes"/>
      <point x="398" y="0" type="line"/>
      <point x="493" y="680" type="line"/>
      <point x="491" y="680" type="line"/>
    </contour>
    <contour>
      <point x="195" y="678" type="line"/>
      <point x="492" y="678" type="line"/>
      <point x="493" y="680" type="line"/>
      <point x="195" y="680" type="line"/>
    </contour>
  </outline>
</glyph>
<glyph name="uni018C" format="1">
  <advance width="572"/>
  <unicode hex="018C"/>
  <outline>
    <contour>
      <point x="511" y="725" type="line"/>
      <point x="512" y="727" type="line"/>
      <point x="271" y="727" type="line"/>
      <point x="271" y="725" type="line"/>
    </contour>
    <contour>
      <point x="468" y="424" type="line"/>
      <point x="450" y="473"/>
      <point x="404" y="527"/>
      <point x="318" y="527" type="curve" smooth="yes"/>
      <point x="139" y="527"/>
      <point x="80" y="315"/>
      <point x="80" y="182" type="curve" smooth="yes"/>
      <point x="80" y="61"/>
      <point x="139" y="-9"/>
      <point x="229" y="-9" type="curve" smooth="yes"/>
      <point x="326" y="-9"/>
      <point x="383" y="65"/>
      <point x="430" y="149" type="curve"/>
      <point x="409" y="0" type="line"/>
      <point x="411" y="0" type="line"/>
      <point x="513" y="727" type="line"/>
      <point x="511" y="727" type="line"/>
    </contour>
    <contour>
      <point x="403" y="525"/>
      <point x="448" y="474"/>
      <point x="468" y="420" type="curve"/>
      <point x="430" y="152" type="line"/>
      <point x="383" y="68"/>
      <point x="326" y="-7"/>
      <point x="229" y="-7" type="curve" smooth="yes"/>
      <point x="140" y="-7"/>
      <point x="82" y="62"/>
      <point x="82" y="182" type="curve" smooth="yes"/>
      <point x="82" y="314"/>
      <point x="140" y="525"/>
      <point x="318" y="525" type="curve" smooth="yes"/>
    </contour>
  </outline>
</glyph>
<glyph name="uni018D" format="1">
  <advance width="557"/>
  <unicode hex="018D"/>
  <outline>
    <contour>
      <point x="317" y="-191"/>
      <point x="374" y="-141"/>
      <point x="374" y="-80" type="curve" smooth="yes"/>
      <point x="374" y="-26"/>
      <point x="341" y="0"/>
      <point x="255" y="35" type="curve"/>
      <point x="428" y="86"/>
      <point x="483" y="203"/>
      <point x="483" y="332" type="curve" smooth="yes"/>
      <point x="483" y="453"/>
      <point x="421" y="527"/>
      <point x="313" y="527" type="curve" smooth="yes"/>
      <point x="133" y="527"/>
      <point x="80" y="348"/>
      <point x="80" y="232" type="curve" smooth="yes"/>
      <point x="80" y="130"/>
      <point x="130" y="83"/>
      <point x="252" y="34" type="curve" smooth="yes"/>
      <point x="340" y="-1"/>
      <point x="372" y="-27"/>
      <point x="372" y="-80" type="curve" smooth="yes"/>
      <point x="372" y="-140"/>
      <point x="316" y="-189"/>
      <point x="219" y="-189" type="curve" smooth="yes"/>
      <point x="154" y="-189"/>
      <point x="115" y="-172"/>
      <point x="74" y="-142" type="curve"/>
      <point x="72" y="-143" type="line"/>
      <point x="115" y="-174"/>
      <point x="154" y="-191"/>
      <point x="219" y="-191" type="curve" smooth="yes"/>
    </contour>
    <contour>
      <point x="133" y="84"/>
      <point x="82" y="131"/>
      <point x="82" y="232" type="curve" smooth="yes"/>
      <point x="82" y="347"/>
      <point x="134" y="525"/>
      <point x="313" y="525" type="curve" smooth="yes"/>
      <point x="420" y="525"/>
      <point x="481" y="452"/>
      <point x="481" y="332" type="curve" smooth="yes"/>
      <point x="481" y="210"/>
      <point x="432" y="89"/>
      <point x="252" y="36" type="curve"/>
    </contour>
  </outline>
</glyph>
<glyph name="uni018E" format="1">
  <advance width="495"/>
  <unicode hex="018E"/>
  <outline>
    <contour>
      <point x="115" y="678" type="line"/>
      <point x="421" y="678" type="line"/>
      <point x="377" y="362" type="line"/>
      <point x="117" y="362" type="line"/>
      <point x="117" y="360" type="line"/>
      <point x="377" y="360" type="line"/>
      <point x="327" y="2" type="line"/>
      <point x="14" y="2" type="line"/>
      <point x="14" y="0" type="line"/>
      <point x="329" y="0" type="line"/>
      <point x="423" y="680" type="line"/>
      <point x="115" y="680" type="line"/>
    </contour>
  </outline>
</glyph>
<glyph name="uni0190" format="1">
  <advance width="508"/>
  <unicode hex="0190"/>
  <outline>
    <contour>
      <point x="207" y="690"/>
      <point x="124" y="615"/>
      <point x="124" y="506" type="curve" smooth="yes"/>
      <point x="124" y="418"/>
      <point x="187" y="377"/>
      <point x="260" y="372" type="curve"/>
      <point x="141" y="368"/>
      <point x="53" y="293"/>
      <point x="54" y="158" type="curve" smooth="yes"/>
      <point x="53" y="53"/>
      <point x="123" y="-9"/>
      <point x="231" y="-9" type="curve"/>
      <point x="317" y="-9"/>
      <point x="379" y="23"/>
      <point x="443" y="84" type="curve"/>
      <point x="441" y="85" type="line"/>
      <point x="378" y="25"/>
      <point x="316" y="-7"/>
      <point x="231" y="-7" type="curve"/>
      <point x="124" y="-7"/>
      <point x="55" y="55"/>
      <point x="56" y="158" type="curve" smooth="yes"/>
      <point x="55" y="292"/>
      <point x="144" y="371"/>
      <point x="275" y="371" type="curve" smooth="yes"/>
      <point x="332" y="371" type="line"/>
      <point x="332" y="373" type="line"/>
      <point x="278" y="373" type="line" smooth="yes"/>
      <point x="191" y="373"/>
      <point x="126" y="419"/>
      <point x="126" y="506" type="curve" smooth="yes"/>
      <point x="126" y="611"/>
      <point x="206" y="688"/>
      <point x="320" y="688" type="curve" smooth="yes"/>
      <point x="399" y="688"/>
      <point x="446" y="658"/>
      <point x="489" y="603" type="curve"/>
      <point x="491" y="605" type="line"/>
      <point x="449" y="660"/>
      <point x="400" y="690"/>
      <point x="321" y="690" type="curve" smooth="yes"/>
    </contour>
  </outline>
</glyph>
<glyph name="florin" format="1">
  <advance width="299"/>
  <unicode hex="0192"/>
  <outline>
    <contour>
      <point x="240" y="733"/>
      <point x="189" y="694"/>
      <point x="178" y="618" type="curve" smooth="yes"/>
      <point x="91" y="1" type="line" smooth="yes"/>
      <point x="75" y="-117"/>
      <point x="41" y="-153"/>
      <point x="-33" y="-190" type="curve"/>
      <point x="-32" y="-191" type="line"/>
      <point x="43" y="-154"/>
      <point x="76" y="-118"/>
      <point x="93" y="1" type="curve" smooth="yes"/>
      <point x="180" y="618" type="line" smooth="yes"/>
      <point x="191" y="693"/>
      <point x="241" y="731"/>
      <point x="305" y="731" type="curve" smooth="yes"/>
      <point x="349" y="731"/>
      <point x="382" y="718"/>
      <point x="413" y="694" type="curve"/>
      <point x="415" y="695" type="line"/>
      <point x="383" y="720"/>
      <point x="349" y="733"/>
      <point x="305" y="733" type="curve" smooth="yes"/>
    </contour>
    <contour>
      <point x="71" y="517" type="line"/>
      <point x="71" y="515" type="line"/>
      <point x="316" y="515" type="line"/>
      <point x="316" y="517" type="line"/>
    </contour>
  </outline>
</glyph>
<glyph name="uni0193" format="1">
  <advance width="536"/>
  <unicode hex="0193"/>
  <outline>
    <contour>
      <point x="189" y="690"/>
      <point x="91" y="450"/>
      <point x="91" y="256" type="curve" smooth="yes"/>
      <point x="91" y="83"/>
      <point x="176" y="-9"/>
      <point x="317" y="-9" type="curve" smooth="yes"/>
      <point x="387" y="-9"/>
      <point x="445" y="15"/>
      <point x="489" y="39" type="curve"/>
      <point x="532" y="342" type="line"/>
      <point x="379" y="342" type="line"/>
      <point x="379" y="340" type="line"/>
      <point x="530" y="340" type="line"/>
      <point x="487" y="40" type="line"/>
      <point x="444" y="17"/>
      <point x="388" y="-7"/>
      <point x="317" y="-7" type="curve" smooth="yes"/>
      <point x="177" y="-7"/>
      <point x="93" y="84"/>
      <point x="93" y="256" type="curve" smooth="yes"/>
      <point x="93" y="444"/>
      <point x="188" y="688"/>
      <point x="404" y="688" type="curve" smooth="yes"/>
      <point x="465" y="688"/>
      <point x="509" y="669"/>
      <point x="553" y="633" type="curve"/>
      <point x="554" y="635" type="line"/>
      <point x="553" y="635"/>
      <point x="553" y="637"/>
      <point x="553" y="635" type="curve"/>
      <point x="511" y="670"/>
      <point x="466" y="690"/>
      <point x="404" y="690" type="curve" smooth="yes"/>
    </contour>
    <contour>
      <point x="554" y="635" type="line"/>
      <point x="565" y="708" type="line" smooth="yes"/>
      <point x="574" y="769"/>
      <point x="611" y="801"/>
      <point x="660" y="801" type="curve" smooth="yes"/>
      <point x="697" y="801"/>
      <point x="718" y="789"/>
      <point x="734" y="773" type="curve"/>
      <point x="735" y="775" type="line"/>
      <point x="720" y="790"/>
      <point x="698" y="803"/>
      <point x="660" y="803" type="curve" smooth="yes"/>
      <point x="610" y="803"/>
      <point x="572" y="770"/>
      <point x="563" y="708" type="curve" smooth="yes"/>
      <point x="552" y="635" type="line"/>
    </contour>
  </outline>
</glyph>
<glyph name="uni0194" format="1">
  <advance width="524"/>
  <unicode hex="0194"/>
  <outline>
    <contour>
      <point x="251" y="-193"/>
      <point x="272" y="-155"/>
      <point x="272" y="-111" type="curve" smooth="yes"/>
      <point x="272" y="-65"/>
      <point x="259" y="-16"/>
      <point x="238" y="58" type="curve"/>
      <point x="237" y="60" type="line"/>
      <point x="97" y="680" type="line"/>
      <point x="95" y="680" type="line"/>
      <point x="236" y="58" type="line"/>
      <point x="237" y="56" type="line"/>
      <point x="257" y="-18"/>
      <point x="270" y="-66"/>
      <point x="270" y="-111" type="curve" smooth="yes"/>
      <point x="270" y="-154"/>
      <point x="250" y="-191"/>
      <point x="203" y="-191" type="curve"/>
      <point x="167" y="-191"/>
      <point x="153" y="-168"/>
      <point x="153" y="-140" type="curve" smooth="yes"/>
      <point x="153" y="-96"/>
      <point x="185" y="-35"/>
      <point x="237" y="56" type="curve"/>
      <point x="238" y="58" type="line"/>
      <point x="548" y="680" type="line"/>
      <point x="546" y="680" type="line"/>
      <point x="237" y="60" type="line"/>
      <point x="236" y="58" type="line"/>
      <point x="183" y="-34"/>
      <point x="151" y="-96"/>
      <point x="151" y="-140" type="curve" smooth="yes"/>
      <point x="151" y="-169"/>
      <point x="166" y="-193"/>
      <point x="203" y="-193" type="curve"/>
    </contour>
  </outline>
</glyph>
<glyph name="uni0195" format="1">
  <advance width="892"/>
  <unicode hex="0195"/>
  <outline>
    <contour>
      <point x="799" y="517" type="line"/>
      <point x="801" y="489"/>
      <point x="802" y="457"/>
      <point x="802" y="424" type="curve" smooth="yes"/>
      <point x="802" y="242"/>
      <point x="763" y="-7"/>
      <point x="569" y="-7" type="curve" smooth="yes"/>
      <point x="460" y="-7"/>
      <point x="435" y="76"/>
      <point x="446" y="154" type="curve" smooth="yes"/>
      <point x="476" y="368" type="line" smooth="yes"/>
      <point x="490" y="467"/>
      <point x="458" y="527"/>
      <point x="365" y="527" type="curve" smooth="yes"/>
      <point x="279" y="527"/>
      <point x="207" y="473"/>
      <point x="138" y="335" type="curve"/>
      <point x="193" y="730" type="line"/>
      <point x="191" y="730" type="line"/>
      <point x="89" y="0" type="line"/>
      <point x="91" y="0" type="line"/>
      <point x="137" y="329" type="line"/>
      <point x="208" y="471"/>
      <point x="279" y="525"/>
      <point x="365" y="525" type="curve" smooth="yes"/>
      <point x="457" y="525"/>
      <point x="488" y="466"/>
      <point x="474" y="368" type="curve" smooth="yes"/>
      <point x="444" y="154" type="line" smooth="yes"/>
      <point x="433" y="75"/>
      <point x="459" y="-9"/>
      <point x="569" y="-9" type="curve" smooth="yes"/>
      <point x="763" y="-9"/>
      <point x="804" y="235"/>
      <point x="804" y="424" type="curve" smooth="yes"/>
      <point x="804" y="457"/>
      <point x="803" y="489"/>
      <point x="801" y="517" type="curve"/>
    </contour>
  </outline>
</glyph>
<glyph name="uni0196" format="1">
  <advance width="312"/>
  <unicode hex="0196"/>
  <outline>
    <contour>
      <point x="178" y="680" type="line"/>
      <point x="108" y="183" type="line"/>
      <point x="110" y="183" type="line"/>
      <point x="180" y="680" type="line"/>
    </contour>
    <component base="hookHELPERright.case" xOffset="101" yOffset="183"/>
    <contour>
      <point x="179" y="680" type="move" name="top"/>
    </contour>
    <contour>
      <point x="120" y="0" type="move" name="bottom"/>
    </contour>
  </outline>
</glyph>
<glyph name="uni0198" format="1">
  <advance width="542"/>
  <unicode hex="0198"/>
  <outline>
    <contour>
      <point x="189" y="680" type="line"/>
      <point x="94" y="1" type="line"/>
      <point x="96" y="1" type="line"/>
      <point x="191" y="680" type="line"/>
    </contour>
    <contour>
      <point x="459" y="675"/>
      <point x="481" y="688"/>
      <point x="515" y="688" type="curve" smooth="yes"/>
      <point x="545" y="688"/>
      <point x="565" y="675"/>
      <point x="581" y="657" type="curve"/>
      <point x="583" y="658" type="line"/>
      <point x="567" y="676"/>
      <point x="546" y="690"/>
      <point x="515" y="690" type="curve" smooth="yes"/>
      <point x="481" y="690"/>
      <point x="457" y="677"/>
      <point x="402" y="621" type="curve" smooth="yes"/>
      <point x="150" y="366" type="line"/>
      <point x="450" y="0" type="line"/>
      <point x="453" y="0" type="line"/>
      <point x="153" y="366" type="line"/>
      <point x="403" y="619" type="line" smooth="yes"/>
    </contour>
  </outline>
</glyph>
<glyph name="uni0199" format="1">
  <advance width="509"/>
  <unicode hex="0199"/>
  <outline>
    <contour>
      <point x="161" y="516" type="line"/>
      <point x="89" y="0" type="line"/>
      <point x="91" y="0" type="line"/>
      <point x="133" y="302" type="line"/>
      <point x="197" y="446"/>
      <point x="279" y="525"/>
      <point x="367" y="525" type="curve" smooth="yes"/>
      <point x="433" y="525"/>
      <point x="469" y="485"/>
      <point x="469" y="424" type="curve" smooth="yes"/>
      <point x="469" y="335"/>
      <point x="396" y="283"/>
      <point x="279" y="244" type="curve"/>
      <point x="408" y="0" type="line"/>
      <point x="410" y="0" type="line"/>
      <point x="282" y="243" type="line"/>
      <point x="397" y="281"/>
      <point x="471" y="334"/>
      <point x="471" y="425" type="curve" smooth="yes"/>
      <point x="471" y="486"/>
      <point x="434" y="527"/>
      <point x="367" y="527" type="curve" smooth="yes"/>
      <point x="278" y="527"/>
      <point x="196" y="448"/>
      <point x="134" y="308" type="curve"/>
      <point x="163" y="516" type="line"/>
    </contour>
    <component base="hookaboveHELPER" xOffset="82"/>
  </outline>
</glyph>
<glyph name="uni019B" format="1">
  <advance width="444"/>
  <unicode hex="019B"/>
  <outline>
    <contour>
      <point x="240" y="669" type="line"/>
      <point x="241" y="670" type="line"/>
      <point x="313" y="736" type="line"/>
      <point x="311" y="737" type="line"/>
      <point x="239" y="671" type="line"/>
      <point x="238" y="670" type="line"/>
      <point x="136" y="577" type="line"/>
      <point x="138" y="576" type="line"/>
    </contour>
    <contour>
      <point x="155" y="730" type="line"/>
      <point x="251" y="701"/>
      <point x="262" y="636"/>
      <point x="271" y="517" type="curve"/>
      <point x="270" y="517" type="line"/>
      <point x="14" y="-2" type="line"/>
      <point x="16" y="-3" type="line"/>
      <point x="271" y="515" type="line"/>
      <point x="293" y="155"/>
      <point x="352" y="82"/>
      <point x="406" y="-1" type="curve"/>
      <point x="408" y="0" type="line"/>
      <point x="354" y="83"/>
      <point x="295" y="157"/>
      <point x="273" y="515" type="curve" smooth="yes"/>
      <point x="265" y="637"/>
      <point x="252" y="703"/>
      <point x="156" y="732" type="curve"/>
    </contour>
  </outline>
</glyph>
<glyph name="uni019C" format="1">
  <advance width="918"/>
  <unicode hex="019C"/>
  <outline>
    <contour>
      <point x="314" y="-10"/>
      <point x="376" y="43"/>
      <point x="439" y="131" type="curve"/>
      <point x="438" y="133" type="line"/>
      <point x="374" y="44"/>
      <point x="313" y="-8"/>
      <point x="228" y="-8" type="curve" smooth="yes"/>
      <point x="142" y="-8"/>
      <point x="93" y="51"/>
      <point x="109" y="169" type="curve" smooth="yes"/>
      <point x="180" y="680" type="line"/>
      <point x="178" y="680" type="line"/>
      <point x="107" y="169" type="line" smooth="yes"/>
      <point x="91" y="50"/>
      <point x="141" y="-10"/>
      <point x="228" y="-10" type="curve" smooth="yes"/>
    </contour>
    <contour>
      <point x="647" y="-10"/>
      <point x="709" y="43"/>
      <point x="769" y="127" type="curve"/>
      <point x="769" y="130" type="line"/>
      <point x="707" y="44"/>
      <point x="646" y="-8"/>
      <point x="561" y="-8" type="curve" smooth="yes"/>
      <point x="475" y="-8"/>
      <point x="426" y="51"/>
      <point x="442" y="169" type="curve" smooth="yes"/>
      <point x="513" y="680" type="line"/>
      <point x="511" y="680" type="line"/>
      <point x="440" y="169" type="line" smooth="yes"/>
      <point x="424" y="50"/>
      <point x="474" y="-10"/>
      <point x="561" y="-10" type="curve" smooth="yes"/>
    </contour>
    <contour>
      <point x="752" y="0" type="line"/>
      <point x="846" y="680" type="line"/>
      <point x="844" y="680" type="line"/>
      <point x="768" y="128" type="line"/>
      <point x="750" y="0" type="line"/>
    </contour>
    <contour>
      <point x="518" y="680" type="move" name="top"/>
    </contour>
    <contour>
      <point x="423" y="0" type="move" name="bottom"/>
    </contour>
  </outline>
</glyph>
<glyph name="uni019D" format="1">
  <advance width="654"/>
  <unicode hex="019D"/>
  <outline>
    <contour>
      <point x="35" y="-192"/>
      <point x="74" y="-159"/>
      <point x="83" y="-97" type="curve" smooth="yes"/>
      <point x="96" y="0" type="line"/>
      <point x="94" y="0" type="line"/>
      <point x="81" y="-97" type="line" smooth="yes"/>
      <point x="72" y="-158"/>
      <point x="34" y="-190"/>
      <point x="-15" y="-190" type="curve" smooth="yes"/>
      <point x="-52" y="-190"/>
      <point x="-72" y="-178"/>
      <point x="-89" y="-162" type="curve"/>
      <point x="-90" y="-164" type="line"/>
      <point x="-74" y="-179"/>
      <point x="-53" y="-192"/>
      <point x="-15" y="-192" type="curve" smooth="yes"/>
    </contour>
    <component base="N"/>
  </outline>
</glyph>
<glyph name="uni019E" format="1">
  <advance width="580"/>
  <unicode hex="019E"/>
  <outline>
    <contour>
      <point x="279" y="527"/>
      <point x="207" y="473"/>
      <point x="138" y="335" type="curve"/>
      <point x="163" y="517" type="line"/>
      <point x="161" y="517" type="line"/>
      <point x="89" y="0" type="line"/>
      <point x="91" y="0" type="line"/>
      <point x="137" y="329" type="line"/>
      <point x="208" y="471"/>
      <point x="279" y="525"/>
      <point x="367" y="525" type="curve" smooth="yes"/>
      <point x="456" y="525"/>
      <point x="488" y="466"/>
      <point x="474" y="368" type="curve" smooth="yes"/>
      <point x="394" y="-191" type="line"/>
      <point x="396" y="-191" type="line"/>
      <point x="476" y="368" type="line" smooth="yes"/>
      <point x="490" y="467"/>
      <point x="457" y="527"/>
      <point x="367" y="527" type="curve" smooth="yes"/>
    </contour>
  </outline>
</glyph>
<glyph name="uni01A2" format="1">
  <advance width="874"/>
  <unicode hex="01A2"/>
  <outline>
    <contour>
      <point x="642" y="690"/>
      <point x="597" y="672"/>
      <point x="541" y="644" type="curve"/>
      <point x="543" y="643" type="line"/>
      <point x="598" y="671"/>
      <point x="643" y="688"/>
      <point x="700" y="688" type="curve" smooth="yes"/>
      <point x="769" y="688"/>
      <point x="795" y="641"/>
      <point x="786" y="575" type="curve" smooth="yes"/>
      <point x="679" y="-188" type="line"/>
      <point x="681" y="-188" type="line"/>
      <point x="788" y="575" type="line" smooth="yes"/>
      <point x="797" y="640"/>
      <point x="772" y="690"/>
      <point x="700" y="690" type="curve" smooth="yes"/>
    </contour>
    <contour>
      <point x="169" y="690"/>
      <point x="90" y="418"/>
      <point x="90" y="251" type="curve" smooth="yes"/>
      <point x="90" y="86"/>
      <point x="169" y="-9"/>
      <point x="306" y="-9" type="curve" smooth="yes"/>
      <point x="551" y="-9"/>
      <point x="621" y="261"/>
      <point x="621" y="429" type="curve" smooth="yes"/>
      <point x="621" y="596"/>
      <point x="541" y="690"/>
      <point x="403" y="690" type="curve" smooth="yes"/>
    </contour>
    <contour>
      <point x="540" y="688"/>
      <point x="619" y="595"/>
      <point x="619" y="429" type="curve" smooth="yes"/>
      <point x="619" y="262"/>
      <point x="550" y="-7"/>
      <point x="306" y="-7" type="curve" smooth="yes"/>
      <point x="170" y="-7"/>
      <point x="92" y="87"/>
      <point x="92" y="251" type="curve" smooth="yes"/>
      <point x="92" y="417"/>
      <point x="170" y="688"/>
      <point x="403" y="688" type="curve" smooth="yes"/>
    </contour>
  </outline>
</glyph>
<glyph name="uni01A3" format="1">
  <advance width="722"/>
  <unicode hex="01A3"/>
  <outline>
    <contour>
      <point x="540" y="-191" type="line"/>
      <point x="624" y="412" type="line" smooth="yes"/>
      <point x="635" y="485"/>
      <point x="607" y="527"/>
      <point x="531" y="527" type="curve" smooth="yes"/>
      <point x="492" y="527"/>
      <point x="455" y="517"/>
      <point x="415" y="498" type="curve"/>
      <point x="417" y="497" type="line"/>
      <point x="457" y="516"/>
      <point x="493" y="525"/>
      <point x="531" y="525" type="curve" smooth="yes"/>
      <point x="606" y="525"/>
      <point x="632" y="484"/>
      <point x="622" y="412" type="curve" smooth="yes"/>
      <point x="538" y="-191" type="line"/>
    </contour>
    <contour>
      <point x="136" y="527"/>
      <point x="75" y="325"/>
      <point x="75" y="192" type="curve" smooth="yes"/>
      <point x="75" y="65"/>
      <point x="136" y="-9"/>
      <point x="242" y="-9" type="curve" smooth="yes"/>
      <point x="426" y="-9"/>
      <point x="484" y="198"/>
      <point x="484" y="328" type="curve" smooth="yes"/>
      <point x="484" y="455"/>
      <point x="423" y="527"/>
      <point x="318" y="527" type="curve" smooth="yes"/>
    </contour>
    <contour>
      <point x="422" y="525"/>
      <point x="482" y="454"/>
      <point x="482" y="328" type="curve" smooth="yes"/>
      <point x="482" y="199"/>
      <point x="425" y="-7"/>
      <point x="242" y="-7" type="curve" smooth="yes"/>
      <point x="137" y="-7"/>
      <point x="77" y="66"/>
      <point x="77" y="192" type="curve" smooth="yes"/>
      <point x="77" y="324"/>
      <point x="137" y="525"/>
      <point x="318" y="525" type="curve" smooth="yes"/>
    </contour>
  </outline>
</glyph>
<glyph name="uni01A5" format="1">
  <advance width="567"/>
  <unicode hex="01A5"/>
  <outline>
    <contour>
      <point x="65" y="-189" type="line"/>
      <point x="95" y="26" type="line"/>
      <point x="151" y="2"/>
      <point x="191" y="-9"/>
      <point x="251" y="-9" type="curve" smooth="yes"/>
      <point x="425" y="-9"/>
      <point x="489" y="207"/>
      <point x="489" y="339" type="curve" smooth="yes"/>
      <point x="489" y="459"/>
      <point x="439" y="527"/>
      <point x="343" y="527" type="curve" smooth="yes"/>
      <point x="260" y="527"/>
      <point x="200" y="483"/>
      <point x="150" y="420" type="curve"/>
      <point x="163" y="516" type="line"/>
      <point x="161" y="516" type="line"/>
      <point x="63" y="-189" type="line"/>
    </contour>
    <contour>
      <point x="192" y="-7"/>
      <point x="153" y="3"/>
      <point x="95" y="28" type="curve"/>
      <point x="150" y="418" type="line"/>
      <point x="205" y="484"/>
      <point x="261" y="525"/>
      <point x="343" y="525" type="curve" smooth="yes"/>
      <point x="438" y="525"/>
      <point x="487" y="458"/>
      <point x="487" y="339" type="curve" smooth="yes"/>
      <point x="487" y="208"/>
      <point x="424" y="-7"/>
      <point x="251" y="-7" type="curve" smooth="yes"/>
    </contour>
    <component base="hookaboveHELPER" xOffset="82"/>
  </outline>
</glyph>
<glyph name="yr" format="1">
  <advance width="561"/>
  <unicode hex="01A6"/>
  <outline>
    <contour>
      <point x="96" y="0" type="line"/>
      <point x="191" y="680" type="line"/>
      <point x="189" y="680" type="line"/>
      <point x="94" y="0" type="line"/>
    </contour>
    <contour>
      <point x="303" y="194" type="line"/>
      <point x="444" y="197"/>
      <point x="499" y="304"/>
      <point x="499" y="397" type="curve" smooth="yes"/>
      <point x="499" y="484"/>
      <point x="448" y="540"/>
      <point x="306" y="540" type="curve" smooth="yes"/>
      <point x="170" y="540" type="line"/>
      <point x="171" y="538" type="line"/>
      <point x="306" y="538" type="line" smooth="yes"/>
      <point x="447" y="538"/>
      <point x="497" y="483"/>
      <point x="497" y="397" type="curve" smooth="yes"/>
      <point x="497" y="300"/>
      <point x="438" y="196"/>
      <point x="297" y="196" type="curve" smooth="yes"/>
      <point x="122" y="196" type="line"/>
      <point x="122" y="194" type="line"/>
    </contour>
    <contour>
      <point x="450" y="-140" type="line"/>
      <point x="304" y="195" type="line"/>
      <point x="302" y="195" type="line"/>
      <point x="447" y="-140" type="line"/>
    </contour>
  </outline>
</glyph>
<glyph name="uni01A7" format="1">
  <advance width="539"/>
  <unicode hex="01A7"/>
  <outline>
    <contour>
      <point x="261" y="690"/>
      <point x="206" y="663"/>
      <point x="154" y="626" type="curve"/>
      <point x="155" y="624" type="line"/>
      <point x="208" y="662"/>
      <point x="262" y="688"/>
      <point x="342" y="688" type="curve" smooth="yes"/>
      <point x="436" y="688"/>
      <point x="491" y="638"/>
      <point x="491" y="561" type="curve" smooth="yes"/>
      <point x="491" y="453"/>
      <point x="411" y="409"/>
      <point x="285" y="370" type="curve" smooth="yes"/>
      <point x="140" y="325"/>
      <point x="65" y="267"/>
      <point x="65" y="143" type="curve" smooth="yes"/>
      <point x="65" y="51"/>
      <point x="133" y="-9"/>
      <point x="237" y="-9" type="curve" smooth="yes"/>
      <point x="331" y="-9"/>
      <point x="392" y="22"/>
      <point x="447" y="69" type="curve"/>
      <point x="446" y="71" type="line"/>
      <point x="391" y="24"/>
      <point x="331" y="-7"/>
      <point x="237" y="-7" type="curve" smooth="yes"/>
      <point x="134" y="-7"/>
      <point x="67" y="52"/>
      <point x="67" y="143" type="curve" smooth="yes"/>
      <point x="67" y="266"/>
      <point x="142" y="324"/>
      <point x="286" y="368" type="curve" smooth="yes"/>
      <point x="413" y="407"/>
      <point x="493" y="452"/>
      <point x="493" y="561" type="curve" smooth="yes"/>
      <point x="493" y="639"/>
      <point x="437" y="690"/>
      <point x="342" y="690" type="curve" smooth="yes"/>
    </contour>
  </outline>
</glyph>
<glyph name="uni01AA" format="1">
  <advance width="254"/>
  <unicode hex="01AA"/>
  <outline>
    <contour>
      <point x="61" y="733"/>
      <point x="16" y="678"/>
      <point x="16" y="604" type="curve" smooth="yes"/>
      <point x="16" y="554"/>
      <point x="44" y="526"/>
      <point x="87" y="526" type="curve" smooth="yes"/>
      <point x="121" y="526"/>
      <point x="150" y="539"/>
      <point x="170" y="554" type="curve"/>
      <point x="170" y="556" type="line"/>
      <point x="149" y="540"/>
      <point x="120" y="528"/>
      <point x="87" y="528" type="curve" smooth="yes"/>
      <point x="45" y="528"/>
      <point x="18" y="555"/>
      <point x="18" y="604" type="curve" smooth="yes"/>
      <point x="18" y="677"/>
      <point x="62" y="731"/>
      <point x="122" y="731" type="curve" smooth="yes"/>
      <point x="170" y="731"/>
      <point x="188" y="693"/>
      <point x="181" y="644" type="curve" smooth="yes"/>
      <point x="91" y="0" type="line"/>
      <point x="93" y="0" type="line"/>
      <point x="183" y="644" type="line" smooth="yes"/>
      <point x="190" y="694"/>
      <point x="171" y="733"/>
      <point x="122" y="733" type="curve" smooth="yes"/>
    </contour>
    <component base="hookHELPERright" xOffset="84"/>
  </outline>
</glyph>
<glyph name="uni01AB" format="1">
  <advance width="322"/>
  <unicode hex="01AB"/>
  <outline>
    <contour>
      <point x="217" y="-192"/>
      <point x="256" y="-160"/>
      <point x="265" y="-97" type="curve" smooth="yes"/>
      <point x="281" y="19" type="line"/>
      <point x="279" y="19" type="line"/>
      <point x="263" y="-97" type="line" smooth="yes"/>
      <point x="254" y="-159"/>
      <point x="216" y="-190"/>
      <point x="167" y="-190" type="curve" smooth="yes"/>
      <point x="130" y="-190"/>
      <point x="110" y="-178"/>
      <point x="93" y="-162" type="curve"/>
      <point x="92" y="-164" type="line"/>
      <point x="108" y="-179"/>
      <point x="129" y="-192"/>
      <point x="167" y="-192" type="curve" smooth="yes"/>
    </contour>
    <contour>
      <point x="172" y="651" type="line"/>
      <point x="153" y="516" type="line"/>
      <point x="97" y="113" type="line" smooth="yes"/>
      <point x="86" y="35"/>
      <point x="118" y="-9"/>
      <point x="183" y="-9" type="curve" smooth="yes"/>
      <point x="223" y="-9"/>
      <point x="252" y="3"/>
      <point x="280" y="18" type="curve"/>
      <point x="281" y="19" type="line"/>
      <point x="280" y="20" type="line"/>
      <point x="252" y="5"/>
      <point x="223" y="-7"/>
      <point x="183" y="-7" type="curve" smooth="yes"/>
      <point x="119" y="-7"/>
      <point x="88" y="37"/>
      <point x="99" y="113" type="curve" smooth="yes"/>
      <point x="174" y="651" type="line"/>
    </contour>
    <contour>
      <point x="66" y="517" type="line"/>
      <point x="66" y="515" type="line"/>
      <point x="301" y="515" type="line"/>
      <point x="301" y="517" type="line"/>
    </contour>
  </outline>
</glyph>
<glyph name="uni01AC" format="1">
  <advance width="492"/>
  <unicode hex="01AC"/>
  <outline>
    <contour>
      <point x="221" y="0" type="line"/>
      <point x="316" y="678" type="line"/>
      <point x="531" y="678" type="line"/>
      <point x="531" y="680" type="line"/>
      <point x="229" y="680" type="line"/>
      <point x="229" y="678" type="line"/>
      <point x="314" y="678" type="line"/>
      <point x="219" y="0" type="line"/>
    </contour>
    <contour>
      <point x="96" y="518" type="line"/>
      <point x="86" y="537"/>
      <point x="78" y="552"/>
      <point x="78" y="581" type="curve" smooth="yes"/>
      <point x="78" y="641"/>
      <point x="116" y="678"/>
      <point x="187" y="678" type="curve" smooth="yes"/>
      <point x="236" y="678" type="line"/>
      <point x="236" y="680" type="line"/>
      <point x="187" y="680" type="line" smooth="yes"/>
      <point x="115" y="680"/>
      <point x="76" y="642"/>
      <point x="76" y="581" type="curve" smooth="yes"/>
      <point x="76" y="551"/>
      <point x="85" y="535"/>
      <point x="94" y="517" type="curve"/>
    </contour>
    <contour>
      <point x="305" y="680" type="move" name="top"/>
    </contour>
    <contour>
      <point x="210" y="0" type="move" name="bottom"/>
    </contour>
  </outline>
</glyph>
<glyph name="uni01AD" format="1">
  <advance width="322"/>
  <unicode hex="01AD"/>
  <outline>
    <contour>
      <point x="156" y="524" type="line"/>
      <point x="168" y="610" type="line" smooth="yes"/>
      <point x="178" y="687"/>
      <point x="223" y="731"/>
      <point x="287" y="731" type="curve" smooth="yes"/>
      <point x="329" y="731"/>
      <point x="354" y="718"/>
      <point x="376" y="703" type="curve"/>
      <point x="377" y="705" type="line"/>
      <point x="353" y="720"/>
      <point x="329" y="733"/>
      <point x="287" y="733" type="curve" smooth="yes"/>
      <point x="222" y="733"/>
      <point x="177" y="689"/>
      <point x="166" y="611" type="curve" smooth="yes"/>
      <point x="154" y="524" type="line"/>
    </contour>
    <contour>
      <point x="154" y="524" type="line"/>
      <point x="153" y="516" type="line"/>
      <point x="97" y="113" type="line" smooth="yes"/>
      <point x="86" y="35"/>
      <point x="118" y="-9"/>
      <point x="183" y="-9" type="curve" smooth="yes"/>
      <point x="224" y="-9"/>
      <point x="254" y="4"/>
      <point x="281" y="19" type="curve"/>
      <point x="280" y="21" type="line"/>
      <point x="252" y="5"/>
      <point x="223" y="-7"/>
      <point x="183" y="-7" type="curve" smooth="yes"/>
      <point x="119" y="-7"/>
      <point x="88" y="37"/>
      <point x="99" y="113" type="curve" smooth="yes"/>
      <point x="156" y="524" type="line"/>
    </contour>
    <contour>
      <point x="66" y="517" type="line"/>
      <point x="66" y="515" type="line"/>
      <point x="301" y="515" type="line"/>
      <point x="301" y="517" type="line"/>
    </contour>
  </outline>
</glyph>
<glyph name="uni01B1" format="1">
  <advance width="686"/>
  <unicode hex="01B1"/>
  <outline>
    <contour>
      <point x="506" y="-10"/>
      <point x="618" y="185"/>
      <point x="618" y="409" type="curve" smooth="yes"/>
      <point x="618" y="557"/>
      <point x="558" y="639"/>
      <point x="498" y="678" type="curve"/>
      <point x="634" y="678" type="line"/>
      <point x="634" y="680" type="line"/>
      <point x="496" y="680" type="line"/>
      <point x="496" y="677" type="line"/>
      <point x="556" y="637"/>
      <point x="616" y="555"/>
      <point x="616" y="409" type="curve" smooth="yes"/>
      <point x="616" y="186"/>
      <point x="504" y="-8"/>
      <point x="308" y="-8" type="curve" smooth="yes"/>
      <point x="170" y="-8"/>
      <point x="91" y="92"/>
      <point x="91" y="249" type="curve" smooth="yes"/>
      <point x="91" y="428"/>
      <point x="165" y="597"/>
      <point x="312" y="677" type="curve"/>
      <point x="312" y="680" type="line"/>
      <point x="174" y="680" type="line"/>
      <point x="174" y="678" type="line"/>
      <point x="310" y="678" type="line"/>
      <point x="164" y="599"/>
      <point x="89" y="430"/>
      <point x="89" y="249" type="curve" smooth="yes"/>
      <point x="89" y="91"/>
      <point x="170" y="-10"/>
      <point x="308" y="-10" type="curve" smooth="yes"/>
    </contour>
  </outline>
</glyph>
<glyph name="uni01B2" format="1">
  <advance width="624"/>
  <unicode hex="01B2"/>
  <outline>
    <contour>
      <point x="489" y="690"/>
      <point x="474" y="686"/>
      <point x="459" y="679" type="curve"/>
      <point x="460" y="677" type="line"/>
      <point x="475" y="684"/>
      <point x="489" y="688"/>
      <point x="509" y="688" type="curve" smooth="yes"/>
      <point x="552" y="688"/>
      <point x="568" y="660"/>
      <point x="560" y="607" type="curve" smooth="yes"/>
      <point x="515" y="286" type="line" smooth="yes"/>
      <point x="486" y="79"/>
      <point x="389" y="-7"/>
      <point x="258" y="-7" type="curve" smooth="yes"/>
      <point x="144" y="-7"/>
      <point x="94" y="64"/>
      <point x="110" y="182" type="curve" smooth="yes"/>
      <point x="180" y="680" type="line"/>
      <point x="178" y="680" type="line"/>
      <point x="108" y="182" type="line" smooth="yes"/>
      <point x="92" y="63"/>
      <point x="143" y="-9"/>
      <point x="258" y="-9" type="curve" smooth="yes"/>
      <point x="390" y="-9"/>
      <point x="488" y="78"/>
      <point x="517" y="286" type="curve" smooth="yes"/>
      <point x="562" y="607" type="line" smooth="yes"/>
      <point x="570" y="660"/>
      <point x="554" y="690"/>
      <point x="509" y="690" type="curve" smooth="yes"/>
    </contour>
  </outline>
</glyph>
<glyph name="uni01B3" format="1">
  <advance width="502"/>
  <unicode hex="01B3"/>
  <outline>
    <contour>
      <point x="241" y="273" type="line"/>
      <point x="86" y="680" type="line"/>
      <point x="84" y="680" type="line"/>
      <point x="240" y="271" type="line"/>
      <point x="203" y="0" type="line"/>
      <point x="205" y="0" type="line"/>
      <point x="242" y="271" type="line"/>
      <point x="461" y="622" type="line" smooth="yes"/>
      <point x="487" y="666"/>
      <point x="509" y="688"/>
      <point x="551" y="688" type="curve" smooth="yes"/>
      <point x="584" y="688"/>
      <point x="607" y="671"/>
      <point x="626" y="650" type="curve"/>
      <point x="627" y="652" type="line"/>
      <point x="609" y="672"/>
      <point x="585" y="690"/>
      <point x="551" y="690" type="curve" smooth="yes"/>
      <point x="508" y="690"/>
      <point x="486" y="668"/>
      <point x="459" y="623" type="curve" smooth="yes"/>
    </contour>
  </outline>
</glyph>
<glyph name="uni01B4" format="1">
  <advance width="434"/>
  <unicode hex="01B4"/>
  <outline>
    <contour>
      <point x="106" y="-159"/>
      <point x="135" y="-112"/>
      <point x="190" y="0" type="curve"/>
      <point x="411" y="492" type="line" smooth="yes"/>
      <point x="433" y="541"/>
      <point x="450" y="563"/>
      <point x="490" y="563" type="curve" smooth="yes"/>
      <point x="503" y="563"/>
      <point x="516" y="560"/>
      <point x="527" y="555" type="curve"/>
      <point x="527" y="557" type="line"/>
      <point x="516" y="562"/>
      <point x="503" y="565"/>
      <point x="490" y="565" type="curve" smooth="yes"/>
      <point x="449" y="565"/>
      <point x="431" y="542"/>
      <point x="409" y="493" type="curve" smooth="yes"/>
      <point x="188" y="0" type="line"/>
      <point x="68" y="517" type="line"/>
      <point x="66" y="517" type="line"/>
      <point x="186" y="0" type="line"/>
      <point x="188" y="0" type="line"/>
      <point x="133" y="-112"/>
      <point x="104" y="-157"/>
      <point x="-2" y="-187" type="curve"/>
      <point x="-2" y="-189" type="line"/>
    </contour>
  </outline>
</glyph>
<glyph name="uni01B5" format="1">
  <advance width="504"/>
  <unicode hex="01B5"/>
  <outline>
    <contour>
      <point x="401" y="0" type="line"/>
      <point x="401" y="2" type="line"/>
      <point x="12" y="2" type="line"/>
      <point x="513" y="678" type="line"/>
      <point x="513" y="680" type="line"/>
      <point x="141" y="680" type="line"/>
      <point x="141" y="678" type="line"/>
      <point x="510" y="678" type="line"/>
      <point x="9" y="2" type="line"/>
      <point x="9" y="0" type="line"/>
    </contour>
    <component base="hyphen" xOffset="32" yOffset="30" xScale="1.1"/>
  </outline>
</glyph>
<glyph name="uni01B6" format="1">
  <advance width="410"/>
  <unicode hex="01B6"/>
  <outline>
    <contour>
      <point x="102" y="517" type="line"/>
      <point x="102" y="515" type="line"/>
      <point x="403" y="515" type="line"/>
      <point x="-1" y="2" type="line"/>
      <point x="-1" y="0" type="line"/>
      <point x="323" y="0" type="line"/>
      <point x="323" y="2" type="line"/>
      <point x="2" y="2" type="line"/>
      <point x="406" y="515" type="line"/>
      <point x="406" y="517" type="line"/>
    </contour>
    <component base="hyphen" yOffset="-45"/>
  </outline>
</glyph>
<glyph name="uni01B7" format="1">
  <advance width="464"/>
  <unicode hex="01B7"/>
  <outline>
    <contour>
      <point x="307" y="-9"/>
      <point x="387" y="68"/>
      <point x="403" y="179" type="curve" smooth="yes"/>
      <point x="419" y="299"/>
      <point x="356" y="363"/>
      <point x="217" y="363" type="curve"/>
      <point x="148" y="363" type="line"/>
      <point x="146" y="361" type="line"/>
      <point x="217" y="361" type="line" smooth="yes"/>
      <point x="354" y="361"/>
      <point x="417" y="298"/>
      <point x="401" y="179" type="curve" smooth="yes"/>
      <point x="385" y="70"/>
      <point x="306" y="-7"/>
      <point x="180" y="-7" type="curve" smooth="yes"/>
      <point x="92" y="-7"/>
      <point x="44" y="22"/>
      <point x="5" y="70" type="curve"/>
      <point x="3" y="69" type="line"/>
      <point x="42" y="21"/>
      <point x="91" y="-9"/>
      <point x="180" y="-9" type="curve" smooth="yes"/>
    </contour>
    <contour>
      <point x="146" y="361" type="line"/>
      <point x="149" y="363" type="line"/>
      <point x="440" y="678" type="line"/>
      <point x="440" y="680" type="line"/>
      <point x="96" y="680" type="line"/>
      <point x="96" y="678" type="line"/>
      <point x="437" y="678" type="line"/>
      <point x="146" y="363" type="line"/>
    </contour>
    <contour>
      <point x="196" y="0" type="move" name="bottom"/>
    </contour>
  </outline>
</glyph>
<glyph name="uni01B8" format="1">
  <advance width="466"/>
  <unicode hex="01B8"/>
  <outline>
    <contour>
      <point x="301" y="-9"/>
      <point x="357" y="21"/>
      <point x="409" y="69" type="curve"/>
      <point x="407" y="70" type="line"/>
      <point x="355" y="22"/>
      <point x="300" y="-7"/>
      <point x="204" y="-7" type="curve" smooth="yes"/>
      <point x="101" y="-7"/>
      <point x="40" y="57"/>
      <point x="40" y="152" type="curve" smooth="yes"/>
      <point x="40" y="281"/>
      <point x="134" y="361"/>
      <point x="278" y="361" type="curve" smooth="yes"/>
      <point x="349" y="361" type="line"/>
      <point x="347" y="363" type="line"/>
      <point x="278" y="363" type="line"/>
      <point x="134" y="363"/>
      <point x="38" y="283"/>
      <point x="38" y="152" type="curve" smooth="yes"/>
      <point x="38" y="56"/>
      <point x="100" y="-9"/>
      <point x="204" y="-9" type="curve" smooth="yes"/>
    </contour>
    <contour>
      <point x="141" y="678" type="line"/>
      <point x="487" y="678" type="line"/>
      <point x="487" y="680" type="line"/>
      <point x="138" y="680" type="line"/>
      <point x="138" y="678" type="line"/>
      <point x="346" y="363" type="line"/>
      <point x="349" y="361" type="line"/>
      <point x="349" y="363" type="line"/>
    </contour>
  </outline>
</glyph>
<glyph name="uni01B9" format="1">
  <advance width="439"/>
  <unicode hex="01B9"/>
  <outline>
    <contour>
      <point x="249" y="-192"/>
      <point x="306" y="-162"/>
      <point x="357" y="-114" type="curve"/>
      <point x="355" y="-113" type="line"/>
      <point x="304" y="-161"/>
      <point x="248" y="-190"/>
      <point x="167" y="-190" type="curve" smooth="yes"/>
      <point x="63" y="-190"/>
      <point x="4" y="-124"/>
      <point x="4" y="-29" type="curve" smooth="yes"/>
      <point x="4" y="101"/>
      <point x="97" y="188"/>
      <point x="244" y="188" type="curve" smooth="yes"/>
      <point x="294" y="188" type="line"/>
      <point x="292" y="190" type="line"/>
      <point x="244" y="190" type="line"/>
      <point x="95" y="190"/>
      <point x="2" y="102"/>
      <point x="2" y="-29" type="curve" smooth="yes"/>
      <point x="2" y="-125"/>
      <point x="62" y="-192"/>
      <point x="167" y="-192" type="curve" smooth="yes"/>
    </contour>
    <contour>
      <point x="109" y="515" type="line"/>
      <point x="429" y="515" type="line"/>
      <point x="429" y="517" type="line"/>
      <point x="106" y="517" type="line"/>
      <point x="106" y="515" type="line"/>
      <point x="291" y="190" type="line"/>
      <point x="294" y="188" type="line"/>
      <point x="294" y="190" type="line"/>
    </contour>
  </outline>
</glyph>
<glyph name="uni01BA" format="1">
  <advance width="443"/>
  <unicode hex="01BA"/>
  <outline>
    <contour>
      <point x="92" y="-188" type="line"/>
      <point x="34" y="-171"/>
      <point x="3" y="-143"/>
      <point x="3" y="-103" type="curve" smooth="yes"/>
      <point x="3" y="-54"/>
      <point x="44" y="-21"/>
      <point x="169" y="-7" type="curve" smooth="yes"/>
      <point x="303" y="8"/>
      <point x="377" y="51"/>
      <point x="377" y="155" type="curve" smooth="yes"/>
      <point x="377" y="233"/>
      <point x="329" y="263"/>
      <point x="241" y="263" type="curve" smooth="yes"/>
      <point x="121" y="263" type="line"/>
      <point x="399" y="515" type="line"/>
      <point x="399" y="517" type="line"/>
      <point x="86" y="517" type="line"/>
      <point x="86" y="515" type="line"/>
      <point x="396" y="515" type="line"/>
      <point x="118" y="263" type="line"/>
      <point x="118" y="261" type="line"/>
      <point x="241" y="261" type="line" smooth="yes"/>
      <point x="328" y="261"/>
      <point x="375" y="232"/>
      <point x="375" y="155" type="curve" smooth="yes"/>
      <point x="375" y="52"/>
      <point x="301" y="9"/>
      <point x="169" y="-5" type="curve" smooth="yes"/>
      <point x="43" y="-19"/>
      <point x="1" y="-52"/>
      <point x="1" y="-103" type="curve" smooth="yes"/>
      <point x="1" y="-144"/>
      <point x="33" y="-172"/>
      <point x="91" y="-190" type="curve"/>
    </contour>
  </outline>
</glyph>
<glyph name="uni01BD" format="1">
  <advance width="421"/>
  <unicode hex="01BD"/>
  <outline>
    <contour>
      <point x="130" y="517" type="line"/>
      <point x="97" y="281" type="line"/>
      <point x="99" y="281" type="line"/>
      <point x="136" y="304"/>
      <point x="170" y="318"/>
      <point x="218" y="318" type="curve" smooth="yes"/>
      <point x="296" y="318"/>
      <point x="337" y="270"/>
      <point x="337" y="192" type="curve" smooth="yes"/>
      <point x="337" y="82"/>
      <point x="271" y="-7"/>
      <point x="156" y="-7" type="curve" smooth="yes"/>
      <point x="102" y="-7"/>
      <point x="57" y="15"/>
      <point x="32" y="49" type="curve"/>
      <point x="30" y="48" type="line"/>
      <point x="57" y="13"/>
      <point x="101" y="-9"/>
      <point x="156" y="-9" type="curve" smooth="yes"/>
      <point x="272" y="-9"/>
      <point x="339" y="81"/>
      <point x="339" y="192" type="curve" smooth="yes"/>
      <point x="339" y="271"/>
      <point x="297" y="320"/>
      <point x="218" y="320" type="curve" smooth="yes"/>
      <point x="169" y="320"/>
      <point x="134" y="305"/>
      <point x="99" y="283" type="curve"/>
      <point x="132" y="515" type="line"/>
      <point x="370" y="515" type="line"/>
      <point x="370" y="517" type="line"/>
    </contour>
  </outline>
</glyph>
<glyph name="uni01BE" format="1">
  <advance width="489"/>
  <unicode hex="01BE"/>
  <outline>
    <contour>
      <point x="150" y="583" type="line"/>
      <point x="223" y="583" type="line"/>
      <point x="345" y="583" type="line"/>
      <point x="345" y="585" type="line"/>
      <point x="150" y="585" type="line"/>
    </contour>
    <component base="uni0296"/>
  </outline>
</glyph>
<glyph name="uni01BF" format="1">
  <advance width="562"/>
  <unicode hex="01BF"/>
  <outline>
    <contour>
      <point x="161" y="517" type="line"/>
      <point x="62" y="-190" type="line"/>
      <point x="64" y="-190" type="line"/>
      <point x="150" y="419" type="line"/>
      <point x="150" y="421" type="line"/>
      <point x="163" y="517" type="line"/>
    </contour>
    <contour>
      <point x="149" y="418" type="line"/>
      <point x="206" y="482"/>
      <point x="270" y="525"/>
      <point x="354" y="525" type="curve" smooth="yes"/>
      <point x="441" y="525"/>
      <point x="495" y="472"/>
      <point x="495" y="383" type="curve" smooth="yes"/>
      <point x="495" y="214"/>
      <point x="350" y="114"/>
      <point x="163" y="24" type="curve" smooth="yes"/>
      <point x="88" y="-12" type="line"/>
      <point x="88" y="-14" type="line"/>
      <point x="163" y="22" type="line" smooth="yes"/>
      <point x="352" y="113"/>
      <point x="497" y="213"/>
      <point x="497" y="383" type="curve" smooth="yes"/>
      <point x="497" y="473"/>
      <point x="442" y="527"/>
      <point x="354" y="527" type="curve" smooth="yes"/>
      <point x="269" y="527"/>
      <point x="205" y="483"/>
      <point x="149" y="421" type="curve"/>
    </contour>
  </outline>
</glyph>
<glyph name="uni01C0" format="1">
  <advance width="262"/>
  <unicode hex="01C0"/>
  <outline>
    <contour>
      <point x="196" y="730" type="line"/>
      <point x="94" y="0" type="line"/>
      <point x="96" y="0" type="line"/>
      <point x="198" y="730" type="line"/>
    </contour>
  </outline>
</glyph>
<glyph name="uni01C2" format="1">
  <advance width="339"/>
  <unicode hex="01C2"/>
  <outline>
    <contour>
      <point x="190" y="435" type="line"/>
      <point x="309" y="435" type="line"/>
      <point x="309" y="437" type="line"/>
      <point x="79" y="437" type="line"/>
      <point x="79" y="435" type="line"/>
    </contour>
    <contour>
      <point x="169" y="286" type="line"/>
      <point x="288" y="286" type="line"/>
      <point x="288" y="288" type="line"/>
      <point x="58" y="288" type="line"/>
      <point x="58" y="286" type="line"/>
    </contour>
    <component base="uni01C0" xOffset="35"/>
  </outline>
</glyph>
<glyph name="uni01C3" format="1">
  <advance width="274"/>
  <unicode hex="01C3"/>
  <outline>
    <contour>
      <point x="201" y="730" type="line"/>
      <point x="125" y="188" type="line"/>
      <point x="127" y="188" type="line"/>
      <point x="203" y="730" type="line"/>
    </contour>
    <component base="period" xOffset="78"/>
  </outline>
</glyph>
<glyph name="uni01E4" format="1">
  <advance width="611"/>
  <unicode hex="01E4"/>
  <outline>
    <contour>
      <point x="189" y="690"/>
      <point x="91" y="450"/>
      <point x="91" y="256" type="curve" smooth="yes"/>
      <point x="91" y="83"/>
      <point x="176" y="-9"/>
      <point x="317" y="-9" type="curve" smooth="yes"/>
      <point x="387" y="-9"/>
      <point x="445" y="15"/>
      <point x="489" y="39" type="curve"/>
      <point x="532" y="342" type="line"/>
      <point x="379" y="342" type="line"/>
      <point x="379" y="340" type="line"/>
      <point x="530" y="340" type="line"/>
      <point x="487" y="40" type="line"/>
      <point x="444" y="17"/>
      <point x="388" y="-7"/>
      <point x="317" y="-7" type="curve" smooth="yes"/>
      <point x="177" y="-7"/>
      <point x="93" y="84"/>
      <point x="93" y="256" type="curve" smooth="yes"/>
      <point x="93" y="444"/>
      <point x="188" y="688"/>
      <point x="404" y="688" type="curve" smooth="yes"/>
      <point x="465" y="688"/>
      <point x="509" y="669"/>
      <point x="553" y="633" type="curve"/>
      <point x="554" y="635" type="line"/>
      <point x="510" y="671"/>
      <point x="466" y="690"/>
      <point x="404" y="690" type="curve" smooth="yes"/>
    </contour>
    <component base="hyphen" xOffset="271" yOffset="-90"/>
  </outline>
</glyph>
<glyph name="uni01F6" format="1">
  <advance width="955"/>
  <unicode hex="01F6"/>
  <outline>
    <contour>
      <point x="862" y="517" type="line"/>
      <point x="864" y="489"/>
      <point x="865" y="457"/>
      <point x="865" y="424" type="curve" smooth="yes"/>
      <point x="865" y="242"/>
      <point x="826" y="-7"/>
      <point x="632" y="-7" type="curve" smooth="yes"/>
      <point x="523" y="-7"/>
      <point x="498" y="76"/>
      <point x="509" y="154" type="curve" smooth="yes"/>
      <point x="583" y="680" type="line"/>
      <point x="581" y="680" type="line"/>
      <point x="537" y="367" type="line"/>
      <point x="147" y="367" type="line"/>
      <point x="191" y="680" type="line"/>
      <point x="189" y="680" type="line"/>
      <point x="94" y="0" type="line"/>
      <point x="96" y="0" type="line"/>
      <point x="147" y="365" type="line"/>
      <point x="537" y="365" type="line"/>
      <point x="507" y="154" type="line" smooth="yes"/>
      <point x="497" y="82"/>
      <point x="516" y="-9"/>
      <point x="632" y="-9" type="curve" smooth="yes"/>
      <point x="826" y="-9"/>
      <point x="867" y="235"/>
      <point x="867" y="424" type="curve" smooth="yes"/>
      <point x="867" y="457"/>
      <point x="866" y="489"/>
      <point x="864" y="517" type="curve"/>
    </contour>
  </outline>
</glyph>
<glyph name="uni01F7" format="1">
  <advance width="552"/>
  <unicode hex="01F7"/>
  <outline>
    <contour>
      <point x="179" y="597" type="line"/>
      <point x="228" y="645"/>
      <point x="289" y="688"/>
      <point x="377" y="688" type="curve" smooth="yes"/>
      <point x="466" y="688"/>
      <point x="523" y="634"/>
      <point x="523" y="542" type="curve" smooth="yes"/>
      <point x="523" y="392"/>
      <point x="405" y="323"/>
      <point x="252" y="273" type="curve" smooth="yes"/>
      <point x="127" y="233" type="line"/>
      <point x="127" y="231" type="line"/>
      <point x="252" y="271" type="line" smooth="yes"/>
      <point x="406" y="320"/>
      <point x="525" y="391"/>
      <point x="525" y="542" type="curve" smooth="yes"/>
      <point x="525" y="635"/>
      <point x="467" y="690"/>
      <point x="377" y="690" type="curve" smooth="yes"/>
      <point x="288" y="690"/>
      <point x="227" y="646"/>
      <point x="179" y="600" type="curve"/>
    </contour>
    <contour>
      <point x="189" y="680" type="line"/>
      <point x="94" y="0" type="line"/>
      <point x="96" y="0" type="line"/>
      <point x="191" y="680" type="line"/>
    </contour>
  </outline>
</glyph>
<glyph name="uni021C" format="1">
  <advance width="485"/>
  <unicode hex="021C"/>
  <outline>
    <contour>
      <point x="209" y="690"/>
      <point x="151" y="660"/>
      <point x="90" y="605" type="curve"/>
      <point x="91" y="603" type="line"/>
      <point x="152" y="658"/>
      <point x="210" y="688"/>
      <point x="290" y="688" type="curve"/>
      <point x="385" y="688"/>
      <point x="434" y="629"/>
      <point x="434" y="548" type="curve" smooth="yes"/>
      <point x="434" y="440"/>
      <point x="353" y="363"/>
      <point x="237" y="363" type="curve" smooth="yes"/>
      <point x="183" y="363" type="line"/>
      <point x="183" y="361" type="line"/>
      <point x="240" y="361" type="line" smooth="yes"/>
      <point x="345" y="361"/>
      <point x="411" y="318"/>
      <point x="411" y="225" type="curve" smooth="yes"/>
      <point x="411" y="59"/>
      <point x="236" y="-23"/>
      <point x="23" y="-77" type="curve"/>
      <point x="22" y="-79" type="line"/>
      <point x="236" y="-25"/>
      <point x="413" y="57"/>
      <point x="413" y="225" type="curve" smooth="yes"/>
      <point x="413" y="319"/>
      <point x="346" y="359"/>
      <point x="255" y="362" type="curve"/>
      <point x="357" y="369"/>
      <point x="436" y="439"/>
      <point x="436" y="548" type="curve" smooth="yes"/>
      <point x="436" y="630"/>
      <point x="386" y="690"/>
      <point x="290" y="690" type="curve"/>
    </contour>
  </outline>
</glyph>
<glyph name="uni021D" format="1">
  <advance width="441"/>
  <unicode hex="021D"/>
  <outline>
    <contour>
      <point x="170" y="527"/>
      <point x="121" y="507"/>
      <point x="70" y="476" type="curve"/>
      <point x="71" y="474" type="line"/>
      <point x="122" y="505"/>
      <point x="170" y="525"/>
      <point x="236" y="525" type="curve"/>
      <point x="321" y="525"/>
      <point x="364" y="480"/>
      <point x="364" y="410" type="curve" smooth="yes"/>
      <point x="364" y="324"/>
      <point x="304" y="266"/>
      <point x="197" y="266" type="curve" smooth="yes"/>
      <point x="147" y="266" type="line"/>
      <point x="147" y="264" type="line"/>
      <point x="197" y="264" type="line" smooth="yes"/>
      <point x="310" y="264"/>
      <point x="352" y="233"/>
      <point x="352" y="167" type="curve" smooth="yes"/>
      <point x="352" y="29"/>
      <point x="204" y="-38"/>
      <point x="24" y="-77" type="curve"/>
      <point x="24" y="-79" type="line"/>
      <point x="205" y="-40"/>
      <point x="354" y="28"/>
      <point x="354" y="167" type="curve" smooth="yes"/>
      <point x="354" y="234"/>
      <point x="310" y="261"/>
      <point x="221" y="265" type="curve"/>
      <point x="307" y="273"/>
      <point x="366" y="323"/>
      <point x="366" y="410" type="curve" smooth="yes"/>
      <point x="366" y="482"/>
      <point x="320" y="527"/>
      <point x="236" y="527" type="curve"/>
    </contour>
  </outline>
</glyph>
<glyph name="uni0220" format="1">
  <advance width="640"/>
  <unicode hex="0220"/>
  <outline>
    <contour>
      <point x="323" y="690"/>
      <point x="252" y="638"/>
      <point x="172" y="552" type="curve"/>
      <point x="173" y="550" type="line"/>
      <point x="253" y="636"/>
      <point x="324" y="688"/>
      <point x="421" y="688" type="curve" smooth="yes"/>
      <point x="515" y="688"/>
      <point x="566" y="629"/>
      <point x="549" y="511" type="curve" smooth="yes"/>
      <point x="451" y="-188" type="line"/>
      <point x="453" y="-188" type="line"/>
      <point x="551" y="511" type="line" smooth="yes"/>
      <point x="568" y="630"/>
      <point x="516" y="690"/>
      <point x="421" y="690" type="curve" smooth="yes"/>
    </contour>
    <contour>
      <point x="189" y="680" type="line"/>
      <point x="94" y="0" type="line"/>
      <point x="96" y="0" type="line"/>
      <point x="173" y="552" type="line"/>
      <point x="191" y="680" type="line"/>
    </contour>
    <contour>
      <point x="379" y="680" type="move" name="top"/>
    </contour>
  </outline>
</glyph>
<glyph name="uni0221" format="1">
  <advance width="650"/>
  <unicode hex="0221"/>
  <outline>
    <contour>
      <point x="325" y="-9"/>
      <point x="383" y="65"/>
      <point x="430" y="150" type="curve"/>
      <point x="430" y="154" type="line"/>
      <point x="383" y="69"/>
      <point x="325" y="-7"/>
      <point x="228" y="-7" type="curve" smooth="yes"/>
      <point x="139" y="-7"/>
      <point x="81" y="62"/>
      <point x="81" y="182" type="curve" smooth="yes"/>
      <point x="81" y="314"/>
      <point x="139" y="525"/>
      <point x="317" y="525" type="curve" smooth="yes"/>
      <point x="402" y="525"/>
      <point x="447" y="474"/>
      <point x="467" y="420" type="curve"/>
      <point x="422" y="102" type="line" smooth="yes"/>
      <point x="411" y="22"/>
      <point x="458" y="-9"/>
      <point x="524" y="-9" type="curve"/>
      <point x="524" y="-7" type="line"/>
      <point x="459" y="-7"/>
      <point x="413" y="22"/>
      <point x="424" y="102" type="curve" smooth="yes"/>
      <point x="512" y="730" type="line"/>
      <point x="510" y="730" type="line"/>
      <point x="467" y="424" type="line"/>
      <point x="449" y="473"/>
      <point x="403" y="527"/>
      <point x="317" y="527" type="curve" smooth="yes"/>
      <point x="138" y="527"/>
      <point x="79" y="315"/>
      <point x="79" y="182" type="curve" smooth="yes"/>
      <point x="79" y="61"/>
      <point x="138" y="-9"/>
      <point x="228" y="-9" type="curve" smooth="yes"/>
    </contour>
    <contour>
      <point x="426" y="45" type="line"/>
      <point x="427" y="47" type="line"/>
      <point x="475" y="121"/>
      <point x="520" y="174"/>
      <point x="592" y="174" type="curve" smooth="yes"/>
      <point x="640" y="174"/>
      <point x="666" y="146"/>
      <point x="666" y="106" type="curve" smooth="yes"/>
      <point x="666" y="41"/>
      <point x="607" y="-7"/>
      <point x="524" y="-7" type="curve"/>
      <point x="524" y="-9" type="line"/>
      <point x="608" y="-9"/>
      <point x="668" y="40"/>
      <point x="668" y="106" type="curve" smooth="yes"/>
      <point x="668" y="147"/>
      <point x="641" y="176"/>
      <point x="592" y="176" type="curve" smooth="yes"/>
      <point x="519" y="176"/>
      <point x="474" y="123"/>
      <point x="426" y="49" type="curve"/>
      <point x="425" y="47" type="line"/>
      <point x="364" y="-49" type="line"/>
      <point x="366" y="-49" type="line"/>
    </contour>
  </outline>
</glyph>
<glyph name="uni0222" format="1">
  <advance width="627"/>
  <unicode hex="0222"/>
  <outline>
    <contour>
      <point x="181" y="390"/>
      <point x="73" y="291"/>
      <point x="73" y="159" type="curve" smooth="yes"/>
      <point x="73" y="64"/>
      <point x="145" y="-9"/>
      <point x="275" y="-9" type="curve" smooth="yes"/>
      <point x="422" y="-9"/>
      <point x="535" y="83"/>
      <point x="535" y="218" type="curve" smooth="yes"/>
      <point x="535" y="318"/>
      <point x="464" y="390"/>
      <point x="331" y="390" type="curve" smooth="yes"/>
    </contour>
    <contour>
      <point x="464" y="388"/>
      <point x="533" y="316"/>
      <point x="533" y="218" type="curve" smooth="yes"/>
      <point x="533" y="84"/>
      <point x="421" y="-7"/>
      <point x="275" y="-7" type="curve" smooth="yes"/>
      <point x="146" y="-7"/>
      <point x="75" y="65"/>
      <point x="75" y="159" type="curve" smooth="yes"/>
      <point x="75" y="290"/>
      <point x="182" y="388"/>
      <point x="331" y="388" type="curve" smooth="yes"/>
    </contour>
    <contour>
      <point x="547" y="680" type="line"/>
      <point x="531" y="563" type="line" smooth="yes"/>
      <point x="519" y="471"/>
      <point x="470" y="390"/>
      <point x="332" y="390" type="curve" smooth="yes"/>
      <point x="215" y="390"/>
      <point x="165" y="448"/>
      <point x="181" y="563" type="curve" smooth="yes"/>
      <point x="197" y="680" type="line"/>
      <point x="195" y="680" type="line"/>
      <point x="179" y="563" type="line" smooth="yes"/>
      <point x="163" y="447"/>
      <point x="214" y="388"/>
      <point x="332" y="388" type="curve" smooth="yes"/>
      <point x="471" y="388"/>
      <point x="520" y="470"/>
      <point x="533" y="563" type="curve" smooth="yes"/>
      <point x="549" y="680" type="line"/>
    </contour>
  </outline>
</glyph>
<glyph name="uni0223" format="1">
  <advance width="547"/>
  <unicode hex="0223"/>
  <outline>
    <contour>
      <point x="163" y="412"/>
      <point x="69" y="293"/>
      <point x="69" y="159" type="curve" smooth="yes"/>
      <point x="69" y="62"/>
      <point x="129" y="-9"/>
      <point x="234" y="-9" type="curve" smooth="yes"/>
      <point x="366" y="-9"/>
      <point x="462" y="102"/>
      <point x="462" y="246" type="curve" smooth="yes"/>
      <point x="462" y="346"/>
      <point x="400" y="412"/>
      <point x="294" y="412" type="curve" smooth="yes"/>
    </contour>
    <contour>
      <point x="399" y="410"/>
      <point x="460" y="345"/>
      <point x="460" y="246" type="curve" smooth="yes"/>
      <point x="460" y="103"/>
      <point x="365" y="-7"/>
      <point x="234" y="-7" type="curve" smooth="yes"/>
      <point x="130" y="-7"/>
      <point x="71" y="63"/>
      <point x="71" y="159" type="curve" smooth="yes"/>
      <point x="71" y="292"/>
      <point x="163" y="410"/>
      <point x="294" y="410" type="curve" smooth="yes"/>
    </contour>
    <contour>
      <point x="491" y="727" type="line"/>
      <point x="471" y="585" type="line" smooth="yes"/>
      <point x="457" y="482"/>
      <point x="406" y="412"/>
      <point x="295" y="412" type="curve" smooth="yes"/>
      <point x="186" y="412"/>
      <point x="152" y="478"/>
      <point x="167" y="585" type="curve" smooth="yes"/>
      <point x="187" y="727" type="line"/>
      <point x="185" y="727" type="line"/>
      <point x="165" y="585" type="line" smooth="yes"/>
      <point x="150" y="477"/>
      <point x="185" y="410"/>
      <point x="295" y="410" type="curve" smooth="yes"/>
      <point x="407" y="410"/>
      <point x="459" y="481"/>
      <point x="473" y="585" type="curve" smooth="yes"/>
      <point x="493" y="727" type="line"/>
    </contour>
  </outline>
</glyph>
<glyph name="uni0224" format="1">
  <advance width="504"/>
  <unicode hex="0224"/>
  <outline>
    <contour>
      <point x="401" y="0" type="line"/>
      <point x="401" y="2" type="line"/>
      <point x="12" y="2" type="line"/>
      <point x="513" y="678" type="line"/>
      <point x="513" y="680" type="line"/>
      <point x="141" y="680" type="line"/>
      <point x="141" y="678" type="line"/>
      <point x="510" y="678" type="line"/>
      <point x="9" y="2" type="line"/>
      <point x="9" y="0" type="line"/>
    </contour>
    <contour>
      <point x="340" y="-192"/>
      <point x="379" y="-159"/>
      <point x="388" y="-97" type="curve" smooth="yes"/>
      <point x="401" y="0" type="line"/>
      <point x="399" y="0" type="line"/>
      <point x="386" y="-97" type="line" smooth="yes"/>
      <point x="377" y="-158"/>
      <point x="339" y="-190"/>
      <point x="290" y="-190" type="curve" smooth="yes"/>
      <point x="253" y="-190"/>
      <point x="233" y="-178"/>
      <point x="216" y="-162" type="curve"/>
      <point x="215" y="-164" type="line"/>
      <point x="231" y="-179"/>
      <point x="252" y="-192"/>
      <point x="290" y="-192" type="curve" smooth="yes"/>
    </contour>
  </outline>
</glyph>
<glyph name="uni0225" format="1">
  <advance width="410"/>
  <unicode hex="0225"/>
  <outline>
    <contour>
      <point x="102" y="517" type="line"/>
      <point x="102" y="515" type="line"/>
      <point x="403" y="515" type="line"/>
      <point x="-1" y="2" type="line"/>
      <point x="-1" y="0" type="line"/>
      <point x="323" y="0" type="line"/>
      <point x="323" y="2" type="line"/>
      <point x="2" y="2" type="line"/>
      <point x="406" y="515" type="line"/>
      <point x="406" y="517" type="line"/>
    </contour>
    <contour>
      <point x="262" y="-192"/>
      <point x="301" y="-160"/>
      <point x="310" y="-97" type="curve" smooth="yes"/>
      <point x="323" y="0" type="line"/>
      <point x="321" y="0" type="line"/>
      <point x="308" y="-97" type="line" smooth="yes"/>
      <point x="299" y="-159"/>
      <point x="261" y="-190"/>
      <point x="212" y="-190" type="curve" smooth="yes"/>
      <point x="175" y="-190"/>
      <point x="155" y="-178"/>
      <point x="138" y="-162" type="curve"/>
      <point x="137" y="-164" type="line"/>
      <point x="153" y="-179"/>
      <point x="174" y="-192"/>
      <point x="212" y="-192" type="curve" smooth="yes"/>
    </contour>
  </outline>
</glyph>
